<svg width="300" height="300" viewBox="0 0 300 300" fill="none" xmlns="http://www.w3.org/2000/svg">
<rect x="0.5" y="0.5" width="299" height="299" fill="#D9D9D9" stroke="#D9D9D9"/>
<path d="M134 148.5V152.5H166V148.5H134Z" fill="#716F6D"/>
<path d="M134 148.5V152.5H166V148.5H150H134Z" fill="#716F6D"/>
<path d="M148 166H152V134H148V166Z" fill="#716F6D"/>
<path d="M148 166H152V134H148V150V166Z" fill="#716F6D"/>
<path d="M233.548 88.3603H189.686V85.9397C189.686 85.1376 189.036 84.4873 188.233 84.4873H181.262C180.46 84.4873 179.81 85.1376 179.81 85.9397V88.3603H175.452C174.65 88.3603 174 89.0106 174 89.8127V131.06C174 131.862 174.65 132.513 175.452 132.513H233.548C234.35 132.513 235 131.862 235 131.06V89.8127C235 89.0106 234.35 88.3603 233.548 88.3603ZM182.714 87.3921H186.781V88.3603H182.714V87.3921ZM232.095 129.608H176.905V91.2651C179.043 91.2651 229.556 91.2651 232.095 91.2651V129.608Z" fill="#716F6D"/>
<path d="M204.5 122.249C211.494 122.249 217.184 116.559 217.184 109.565C217.184 102.571 211.494 96.8809 204.5 96.8809C197.506 96.8809 191.816 102.571 191.816 109.565C191.816 116.559 197.506 122.249 204.5 122.249ZM204.5 99.7856C209.892 99.7856 214.279 104.173 214.279 109.565C214.279 114.957 209.892 119.344 204.5 119.344C199.108 119.344 194.721 114.957 194.721 109.565C194.721 104.173 199.108 99.7856 204.5 99.7856Z" fill="#716F6D"/>
<path d="M204.5 117.408C208.825 117.408 212.343 113.89 212.343 109.566C212.343 105.241 208.825 101.723 204.5 101.723C200.175 101.723 196.657 105.241 196.657 109.566C196.657 113.89 200.175 117.408 204.5 117.408ZM204.5 104.627C207.223 104.627 209.438 106.843 209.438 109.566C209.438 112.288 207.223 114.504 204.5 114.504C201.777 114.504 199.562 112.288 199.562 109.566C199.562 106.843 201.777 104.627 204.5 104.627Z" fill="#716F6D"/>
<path d="M221.541 103.272H227.738C228.54 103.272 229.19 102.621 229.19 101.819V95.6223C229.19 94.8202 228.54 94.1699 227.738 94.1699H221.541C220.739 94.1699 220.089 94.8202 220.089 95.6223V101.819C220.089 102.621 220.739 103.272 221.541 103.272ZM222.994 97.0747H226.286V100.367H222.994V97.0747Z" fill="#716F6D"/>
<path d="M181.456 122.636H187.072C187.874 122.636 188.524 121.986 188.524 121.184C188.524 120.382 187.874 119.731 187.072 119.731H181.456C180.654 119.731 180.003 120.382 180.003 121.184C180.003 121.986 180.654 122.636 181.456 122.636Z" fill="#716F6D"/>
<path d="M181.456 126.704H187.072C187.874 126.704 188.524 126.053 188.524 125.251C188.524 124.449 187.874 123.799 187.072 123.799H181.456C180.654 123.799 180.003 124.449 180.003 125.251C180.003 126.053 180.654 126.704 181.456 126.704Z" fill="#716F6D"/>
</svg>
