<svg width="55" height="29" viewBox="0 0 55 29" fill="none" xmlns="http://www.w3.org/2000/svg">
<path d="M53.8468 12.4231L46.5364 1.40846C46.3664 1.15329 46.0813 1 45.7761 1H9.22441C8.91829 1 8.6341 1.15329 8.46414 1.40846L1.15379 12.4231C0.966466 12.7049 0.949104 13.0665 1.1081 13.3648C1.2671 13.6641 1.57688 13.8504 1.91407 13.8504H7.39683V27.6536H9.22441V13.8504H13.7934V19.3577H15.621V13.8504H40.2934V19.3577H42.121V13.8504H46.6899V27.6536H48.5175V13.8504H53.0865C53.4237 13.8504 53.7334 13.6641 53.8924 13.3658C54.0514 13.0665 54.0341 12.7049 53.8468 12.4231ZM3.62195 12.0146L9.71329 2.83577H45.2873L51.3795 12.0146H3.62195Z" fill="#F94C66" stroke="#F94C66" stroke-width="2"/>
</svg>
