<svg width="66" height="61" viewBox="0 0 66 61" fill="none" xmlns="http://www.w3.org/2000/svg">
<path d="M10.7727 52H9.36364C9.2803 51.5947 9.13447 51.2386 8.92614 50.9318C8.72159 50.625 8.47159 50.3674 8.17614 50.1591C7.88447 49.947 7.56061 49.7879 7.20455 49.6818C6.84849 49.5758 6.47727 49.5227 6.09091 49.5227C5.38636 49.5227 4.74811 49.7008 4.17614 50.0568C3.60795 50.4129 3.1553 50.9375 2.81818 51.6307C2.48485 52.3239 2.31818 53.1742 2.31818 54.1818C2.31818 55.1894 2.48485 56.0398 2.81818 56.733C3.1553 57.4261 3.60795 57.9508 4.17614 58.3068C4.74811 58.6629 5.38636 58.8409 6.09091 58.8409C6.47727 58.8409 6.84849 58.7879 7.20455 58.6818C7.56061 58.5758 7.88447 58.4186 8.17614 58.2102C8.47159 57.9981 8.72159 57.7386 8.92614 57.4318C9.13447 57.1212 9.2803 56.7652 9.36364 56.3636H10.7727C10.6667 56.9583 10.4735 57.4905 10.1932 57.9602C9.91288 58.4299 9.56439 58.8295 9.14773 59.1591C8.73106 59.4848 8.26326 59.733 7.74432 59.9034C7.22917 60.0739 6.67803 60.1591 6.09091 60.1591C5.09849 60.1591 4.21591 59.9167 3.44318 59.4318C2.67045 58.947 2.0625 58.2576 1.61932 57.3636C1.17614 56.4697 0.954545 55.4091 0.954545 54.1818C0.954545 52.9545 1.17614 51.8939 1.61932 51C2.0625 50.1061 2.67045 49.4167 3.44318 48.9318C4.21591 48.447 5.09849 48.2045 6.09091 48.2045C6.67803 48.2045 7.22917 48.2898 7.74432 48.4602C8.26326 48.6307 8.73106 48.8807 9.14773 49.2102C9.56439 49.536 9.91288 49.9337 10.1932 50.4034C10.4735 50.8693 10.6667 51.4015 10.7727 52ZM15.4361 60.2045C14.883 60.2045 14.3812 60.1004 13.9304 59.892C13.4796 59.6799 13.1217 59.375 12.8565 58.9773C12.5914 58.5758 12.4588 58.0909 12.4588 57.5227C12.4588 57.0227 12.5573 56.6174 12.7543 56.3068C12.9512 55.9924 13.2145 55.7462 13.544 55.5682C13.8736 55.3902 14.2372 55.2576 14.6349 55.1705C15.0365 55.0795 15.4399 55.0076 15.8452 54.9545C16.3755 54.8864 16.8054 54.8352 17.1349 54.8011C17.4683 54.7633 17.7107 54.7008 17.8622 54.6136C18.0175 54.5265 18.0952 54.375 18.0952 54.1591V54.1136C18.0952 53.553 17.9418 53.1174 17.6349 52.8068C17.3319 52.4962 16.8717 52.3409 16.2543 52.3409C15.6141 52.3409 15.1122 52.4811 14.7486 52.7614C14.3849 53.0417 14.1293 53.3409 13.9815 53.6591L12.7088 53.2045C12.9361 52.6742 13.2391 52.2614 13.6179 51.9659C14.0005 51.6667 14.4171 51.4583 14.8679 51.3409C15.3224 51.2197 15.7694 51.1591 16.2088 51.1591C16.4891 51.1591 16.8111 51.1932 17.1747 51.2614C17.5421 51.3258 17.8963 51.4602 18.2372 51.6648C18.5819 51.8693 18.8679 52.178 19.0952 52.5909C19.3224 53.0038 19.4361 53.5568 19.4361 54.25V60H18.0952V58.8182H18.027C17.9361 59.0076 17.7846 59.2102 17.5724 59.4261C17.3603 59.642 17.0781 59.8258 16.7259 59.9773C16.3736 60.1288 15.9437 60.2045 15.4361 60.2045ZM15.6406 59C16.1709 59 16.6179 58.8958 16.9815 58.6875C17.349 58.4792 17.6255 58.2102 17.8111 57.8807C18.0005 57.5511 18.0952 57.2045 18.0952 56.8409V55.6136C18.0384 55.6818 17.9134 55.7443 17.7202 55.8011C17.5308 55.8542 17.3111 55.9015 17.0611 55.9432C16.8149 55.9811 16.5743 56.0152 16.3395 56.0455C16.1084 56.072 15.9209 56.0947 15.777 56.1136C15.4285 56.1591 15.1027 56.233 14.7997 56.3352C14.5005 56.4337 14.258 56.5833 14.0724 56.7841C13.8906 56.9811 13.7997 57.25 13.7997 57.5909C13.7997 58.0568 13.9721 58.4091 14.3168 58.6477C14.6652 58.8826 15.1065 59 15.6406 59ZM21.8835 60V51.2727H23.179V52.5909H23.2699C23.429 52.1591 23.7169 51.8087 24.1335 51.5398C24.5502 51.2708 25.0199 51.1364 25.5426 51.1364C25.6411 51.1364 25.7642 51.1383 25.9119 51.142C26.0597 51.1458 26.1714 51.1515 26.2472 51.1591V52.5227C26.2017 52.5114 26.0975 52.4943 25.9347 52.4716C25.7756 52.4451 25.607 52.4318 25.429 52.4318C25.0047 52.4318 24.6259 52.5208 24.2926 52.6989C23.9631 52.8731 23.7017 53.1155 23.5085 53.4261C23.3191 53.733 23.2244 54.0833 23.2244 54.4773V60H21.8835ZM27.8366 60V51.2727H29.1776V60H27.8366ZM28.5185 49.8182C28.2571 49.8182 28.0317 49.7292 27.8423 49.5511C27.6567 49.3731 27.5639 49.1591 27.5639 48.9091C27.5639 48.6591 27.6567 48.4451 27.8423 48.267C28.0317 48.089 28.2571 48 28.5185 48C28.7798 48 29.0033 48.089 29.1889 48.267C29.3783 48.4451 29.473 48.6591 29.473 48.9091C29.473 49.1591 29.3783 49.3731 29.1889 49.5511C29.0033 49.7292 28.7798 49.8182 28.5185 49.8182ZM35.429 51.2727V52.4091H30.9062V51.2727H35.429ZM32.2244 49.1818H33.5653V57.5C33.5653 57.8788 33.6203 58.1629 33.7301 58.3523C33.8438 58.5379 33.9877 58.6629 34.1619 58.7273C34.34 58.7879 34.5275 58.8182 34.7244 58.8182C34.8722 58.8182 34.9934 58.8106 35.0881 58.7955C35.1828 58.7765 35.2585 58.7614 35.3153 58.75L35.5881 59.9545C35.4972 59.9886 35.3703 60.0227 35.2074 60.0568C35.0445 60.0947 34.8381 60.1136 34.5881 60.1136C34.2093 60.1136 33.8381 60.0322 33.4744 59.8693C33.1146 59.7064 32.8153 59.4583 32.5767 59.125C32.3419 58.7917 32.2244 58.3712 32.2244 57.8636V49.1818ZM40.0142 60.2045C39.4612 60.2045 38.9593 60.1004 38.5085 59.892C38.0578 59.6799 37.6998 59.375 37.4347 58.9773C37.1695 58.5758 37.0369 58.0909 37.0369 57.5227C37.0369 57.0227 37.1354 56.6174 37.3324 56.3068C37.5294 55.9924 37.7926 55.7462 38.1222 55.5682C38.4517 55.3902 38.8153 55.2576 39.2131 55.1705C39.6146 55.0795 40.018 55.0076 40.4233 54.9545C40.9536 54.8864 41.3835 54.8352 41.7131 54.8011C42.0464 54.7633 42.2888 54.7008 42.4403 54.6136C42.5956 54.5265 42.6733 54.375 42.6733 54.1591V54.1136C42.6733 53.553 42.5199 53.1174 42.2131 52.8068C41.91 52.4962 41.4498 52.3409 40.8324 52.3409C40.1922 52.3409 39.6903 52.4811 39.3267 52.7614C38.9631 53.0417 38.7074 53.3409 38.5597 53.6591L37.2869 53.2045C37.5142 52.6742 37.8172 52.2614 38.196 51.9659C38.5786 51.6667 38.9953 51.4583 39.446 51.3409C39.9006 51.2197 40.3475 51.1591 40.7869 51.1591C41.0672 51.1591 41.3892 51.1932 41.7528 51.2614C42.1203 51.3258 42.4744 51.4602 42.8153 51.6648C43.16 51.8693 43.446 52.178 43.6733 52.5909C43.9006 53.0038 44.0142 53.5568 44.0142 54.25V60H42.6733V58.8182H42.6051C42.5142 59.0076 42.3627 59.2102 42.1506 59.4261C41.9384 59.642 41.6563 59.8258 41.304 59.9773C40.9517 60.1288 40.5218 60.2045 40.0142 60.2045ZM40.2188 59C40.7491 59 41.196 58.8958 41.5597 58.6875C41.9271 58.4792 42.2036 58.2102 42.3892 57.8807C42.5786 57.5511 42.6733 57.2045 42.6733 56.8409V55.6136C42.6165 55.6818 42.4915 55.7443 42.2983 55.8011C42.1089 55.8542 41.8892 55.9015 41.6392 55.9432C41.393 55.9811 41.1525 56.0152 40.9176 56.0455C40.6866 56.072 40.4991 56.0947 40.3551 56.1136C40.0066 56.1591 39.6809 56.233 39.3778 56.3352C39.0786 56.4337 38.8362 56.5833 38.6506 56.7841C38.4688 56.9811 38.3778 57.25 38.3778 57.5909C38.3778 58.0568 38.5502 58.4091 38.8949 58.6477C39.2434 58.8826 39.6847 59 40.2188 59ZM50.2571 51.2727V52.4091H45.7344V51.2727H50.2571ZM47.0526 49.1818H48.3935V57.5C48.3935 57.8788 48.4484 58.1629 48.5582 58.3523C48.6719 58.5379 48.8158 58.6629 48.9901 58.7273C49.1681 58.7879 49.3556 58.8182 49.5526 58.8182C49.7003 58.8182 49.8215 58.8106 49.9162 58.7955C50.0109 58.7765 50.0866 58.7614 50.1435 58.75L50.4162 59.9545C50.3253 59.9886 50.1984 60.0227 50.0355 60.0568C49.8726 60.0947 49.6662 60.1136 49.4162 60.1136C49.0374 60.1136 48.6662 60.0322 48.3026 59.8693C47.9427 59.7064 47.6435 59.4583 47.4048 59.125C47.17 58.7917 47.0526 58.3712 47.0526 57.8636V49.1818ZM52.2741 60V51.2727H53.6151V60H52.2741ZM52.956 49.8182C52.6946 49.8182 52.4692 49.7292 52.2798 49.5511C52.0942 49.3731 52.0014 49.1591 52.0014 48.9091C52.0014 48.6591 52.0942 48.4451 52.2798 48.267C52.4692 48.089 52.6946 48 52.956 48C53.2173 48 53.4408 48.089 53.6264 48.267C53.8158 48.4451 53.9105 48.6591 53.9105 48.9091C53.9105 49.1591 53.8158 49.3731 53.6264 49.5511C53.4408 49.7292 53.2173 49.8182 52.956 49.8182ZM59.9574 51.2727V52.4091H55.2528V51.2727H59.9574ZM56.6619 60V50.0682C56.6619 49.5682 56.7794 49.1515 57.0142 48.8182C57.2491 48.4848 57.554 48.2348 57.929 48.0682C58.304 47.9015 58.6998 47.8182 59.1165 47.8182C59.446 47.8182 59.715 47.8447 59.9233 47.8977C60.1316 47.9508 60.2869 48 60.3892 48.0455L60.0028 49.2045C59.9347 49.1818 59.84 49.1534 59.7188 49.1193C59.6013 49.0852 59.446 49.0682 59.2528 49.0682C58.8097 49.0682 58.4896 49.1799 58.2926 49.4034C58.0994 49.6269 58.0028 49.9545 58.0028 50.3864V60H56.6619Z" fill="#716F6D"/>
<path d="M43.8825 28.9884L32.1717 27.3666L27.5826 22.7781C27.4127 22.6078 27.412 22.3303 27.5807 22.1612C27.6918 22.0503 27.8217 22.0337 27.8892 22.0337C27.9563 22.0337 28.0854 22.0502 28.1952 22.1603L28.196 22.1609L31.6655 25.6305L31.6664 25.6313C31.6762 25.6413 31.6872 25.6495 31.6973 25.6593C31.7124 25.6732 31.7274 25.6876 31.743 25.7004C32.2524 26.1711 32.901 26.4093 33.5516 26.4093C34.2347 26.4093 34.9186 26.1495 35.4394 25.63C36.4785 24.5889 36.4783 22.896 35.4387 21.8563L25.9139 12.3313C25.7243 12.1417 25.4674 12.0352 25.1992 12.0352H15.0106C14.4523 12.0352 14 12.4877 14 13.0458C14 13.6039 14.4523 14.0564 15.0106 14.0564H24.7807L34.0093 23.285C34.2616 23.5374 34.2613 23.9486 34.0101 24.2002C33.7577 24.4522 33.3464 24.4522 33.094 24.2002L33.0926 24.199L29.6264 20.733L29.6251 20.7317L29.6237 20.7303C29.1608 20.2674 28.5447 20.0124 27.8892 20.0124C27.2331 20.0124 26.6162 20.2678 26.1512 20.7322C25.2204 21.6648 25.1991 23.1663 26.0822 24.1285C26.0882 24.1358 26.0952 24.1424 26.1012 24.1494C26.1183 24.1676 26.1333 24.1868 26.151 24.2046L26.1519 24.2054L30.9825 29.0357C31.1382 29.1913 31.3403 29.2918 31.5584 29.3221L43.5963 30.9891C43.8231 31.0226 44.2517 31.1741 44.2517 31.5088C44.252 31.6914 44.159 31.8116 44.1036 31.8671C44.048 31.9227 43.9273 32.0161 43.7439 32.0161H30.2805L19.5651 21.2994C19.3757 21.1099 19.1186 21.0033 18.8504 21.0033H15.0106C14.4523 21.0033 14 21.4558 14 22.0139C14 22.5721 14.4523 23.0245 15.0106 23.0245H18.4319L29.1473 33.7412C29.3367 33.9307 29.5938 34.0373 29.862 34.0373H43.7439C44.4202 34.0373 45.0556 33.7739 45.5336 33.2955C46.011 32.8176 46.2736 32.1822 46.2728 31.5077C46.2729 30.2322 45.2936 29.1967 43.8825 28.9884Z" fill="#716F6D"/>
<path d="M45.828 3C44.2934 3 42.7771 3.57011 41.6009 4.56022C40.4249 3.56997 38.909 3 37.3749 3C33.914 3 31.2029 5.71108 31.2029 9.17216C31.2029 13.2818 34.7208 16.3991 39.5939 20.7085L40.8875 21.9983C41.0847 22.195 41.3429 22.2933 41.6011 22.2933C41.8591 22.2933 42.1171 22.195 42.3143 21.9987L43.6093 20.7087C48.482 16.3995 52.0001 13.2819 52.0001 9.17216C52.0001 5.71108 49.2888 3 45.828 3ZM42.2477 19.2145C42.2327 19.2277 42.2181 19.2414 42.204 19.2556L41.6013 19.8559L40.9996 19.2558C40.9853 19.2416 40.9706 19.2277 40.9555 19.2143C36.0177 14.8476 33.2241 12.2282 33.2241 9.17202C33.2241 6.80562 35.0085 5.02105 37.3749 5.02105C38.6643 5.02105 39.988 5.63926 40.8292 6.63436C41.0213 6.8614 41.3037 6.99251 41.6011 6.99251C41.8984 6.99251 42.1809 6.86154 42.3729 6.63436C43.2142 5.63926 44.5382 5.02105 45.8283 5.02105C48.1947 5.02105 49.9791 6.80562 49.9791 9.17202C49.9789 12.2286 47.1852 14.8479 42.2477 19.2145Z" fill="#716F6D"/>
</svg>
