<svg width="119" height="60" viewBox="0 0 119 60" fill="none" xmlns="http://www.w3.org/2000/svg">
<path d="M5 59H1.40909V47.3636H5.15909C6.28788 47.3636 7.25379 47.5966 8.05682 48.0625C8.85985 48.5246 9.47538 49.1894 9.90341 50.0568C10.3314 50.9205 10.5455 51.9545 10.5455 53.1591C10.5455 54.3712 10.3295 55.4148 9.89773 56.2898C9.46591 57.161 8.83712 57.8314 8.01136 58.3011C7.18561 58.767 6.18182 59 5 59ZM2.81818 57.75H4.90909C5.87121 57.75 6.66856 57.5644 7.30114 57.1932C7.93371 56.822 8.4053 56.2936 8.71591 55.608C9.02652 54.9223 9.18182 54.1061 9.18182 53.1591C9.18182 52.2197 9.02841 51.411 8.72159 50.733C8.41477 50.0511 7.95644 49.5284 7.34659 49.1648C6.73674 48.7973 5.97727 48.6136 5.06818 48.6136H2.81818V57.75ZM12.7273 59V50.2727H14.0682V59H12.7273ZM13.4091 48.8182C13.1477 48.8182 12.9223 48.7292 12.733 48.5511C12.5473 48.3731 12.4545 48.1591 12.4545 47.9091C12.4545 47.6591 12.5473 47.4451 12.733 47.267C12.9223 47.089 13.1477 47 13.4091 47C13.6705 47 13.8939 47.089 14.0795 47.267C14.2689 47.4451 14.3636 47.6591 14.3636 47.9091C14.3636 48.1591 14.2689 48.3731 14.0795 48.5511C13.8939 48.7292 13.6705 48.8182 13.4091 48.8182ZM23.6605 50.2727L20.4332 59H19.0696L15.8423 50.2727H17.2969L19.706 57.2273H19.7969L22.206 50.2727H23.6605ZM28.777 59.1818C27.9361 59.1818 27.2107 58.9962 26.6009 58.625C25.9948 58.25 25.527 57.7273 25.1974 57.0568C24.8717 56.3826 24.7088 55.5985 24.7088 54.7045C24.7088 53.8106 24.8717 53.0227 25.1974 52.3409C25.527 51.6553 25.9853 51.1212 26.5724 50.7386C27.1634 50.3523 27.8527 50.1591 28.6406 50.1591C29.0952 50.1591 29.544 50.2348 29.9872 50.3864C30.4304 50.5379 30.8338 50.7841 31.1974 51.125C31.5611 51.4621 31.8509 51.9091 32.0668 52.4659C32.2827 53.0227 32.3906 53.7083 32.3906 54.5227V55.0909H25.6634V53.9318H31.027C31.027 53.4394 30.9285 53 30.7315 52.6136C30.5384 52.2273 30.2618 51.9223 29.902 51.6989C29.5459 51.4754 29.1255 51.3636 28.6406 51.3636C28.1065 51.3636 27.6444 51.4962 27.2543 51.7614C26.8679 52.0227 26.5705 52.3636 26.3622 52.7841C26.1539 53.2045 26.0497 53.6553 26.0497 54.1364V54.9091C26.0497 55.5682 26.1634 56.1269 26.3906 56.5852C26.6217 57.0398 26.9418 57.3864 27.3509 57.625C27.7599 57.8598 28.2353 57.9773 28.777 57.9773C29.1293 57.9773 29.4474 57.928 29.7315 57.8295C30.0194 57.7273 30.2675 57.5758 30.4759 57.375C30.6842 57.1705 30.8452 56.9167 30.9588 56.6136L32.2543 56.9773C32.1179 57.4167 31.8887 57.803 31.5668 58.1364C31.2448 58.4659 30.8471 58.7235 30.3736 58.9091C29.9001 59.0909 29.3679 59.1818 28.777 59.1818ZM34.4304 59V50.2727H35.7259V51.5909H35.8168C35.9759 51.1591 36.2637 50.8087 36.6804 50.5398C37.0971 50.2708 37.5668 50.1364 38.0895 50.1364C38.188 50.1364 38.3111 50.1383 38.4588 50.142C38.6065 50.1458 38.7183 50.1515 38.794 50.1591V51.5227C38.7486 51.5114 38.6444 51.4943 38.4815 51.4716C38.3224 51.4451 38.1539 51.4318 37.9759 51.4318C37.5516 51.4318 37.1728 51.5208 36.8395 51.6989C36.5099 51.8731 36.2486 52.1155 36.0554 52.4261C35.866 52.733 35.7713 53.0833 35.7713 53.4773V59H34.4304ZM44.7259 50.2727V51.4091H40.2031V50.2727H44.7259ZM41.5213 48.1818H42.8622V56.5C42.8622 56.8788 42.9171 57.1629 43.027 57.3523C43.1406 57.5379 43.2846 57.6629 43.4588 57.7273C43.6368 57.7879 43.8243 57.8182 44.0213 57.8182C44.169 57.8182 44.2902 57.8106 44.3849 57.7955C44.4796 57.7765 44.5554 57.7614 44.6122 57.75L44.8849 58.9545C44.794 58.9886 44.6671 59.0227 44.5043 59.0568C44.3414 59.0947 44.1349 59.1136 43.8849 59.1136C43.5062 59.1136 43.1349 59.0322 42.7713 58.8693C42.4115 58.7064 42.1122 58.4583 41.8736 58.125C41.6387 57.7917 41.5213 57.3712 41.5213 56.8636V48.1818ZM46.7429 59V50.2727H48.0838V59H46.7429ZM47.4247 48.8182C47.1634 48.8182 46.938 48.7292 46.7486 48.5511C46.563 48.3731 46.4702 48.1591 46.4702 47.9091C46.4702 47.6591 46.563 47.4451 46.7486 47.267C46.938 47.089 47.1634 47 47.4247 47C47.6861 47 47.9096 47.089 48.0952 47.267C48.2846 47.4451 48.3793 47.6591 48.3793 47.9091C48.3793 48.1591 48.2846 48.3731 48.0952 48.5511C47.9096 48.7292 47.6861 48.8182 47.4247 48.8182ZM56.7216 52.2273L55.517 52.5682C55.4413 52.3674 55.3295 52.1723 55.1818 51.983C55.0379 51.7898 54.8409 51.6307 54.5909 51.5057C54.3409 51.3807 54.0208 51.3182 53.6307 51.3182C53.0966 51.3182 52.6515 51.4413 52.2955 51.6875C51.9432 51.9299 51.767 52.2386 51.767 52.6136C51.767 52.947 51.8883 53.2102 52.1307 53.4034C52.3731 53.5966 52.7519 53.7576 53.267 53.8864L54.5625 54.2045C55.3428 54.3939 55.9242 54.6837 56.3068 55.0739C56.6894 55.4602 56.8807 55.9583 56.8807 56.5682C56.8807 57.0682 56.7367 57.5152 56.4489 57.9091C56.1648 58.303 55.767 58.6136 55.2557 58.8409C54.7443 59.0682 54.1496 59.1818 53.4716 59.1818C52.5814 59.1818 51.8447 58.9886 51.2614 58.6023C50.678 58.2159 50.3087 57.6515 50.1534 56.9091L51.4261 56.5909C51.5473 57.0606 51.7765 57.4129 52.1136 57.6477C52.4545 57.8826 52.8996 58 53.4489 58C54.0739 58 54.5701 57.8674 54.9375 57.6023C55.3087 57.3333 55.4943 57.0114 55.4943 56.6364C55.4943 56.3333 55.3883 56.0795 55.1761 55.875C54.964 55.6667 54.6383 55.5114 54.1989 55.4091L52.7443 55.0682C51.9451 54.8788 51.358 54.5852 50.983 54.1875C50.6117 53.786 50.4261 53.2841 50.4261 52.6818C50.4261 52.1894 50.5644 51.7538 50.8409 51.375C51.1212 50.9962 51.5019 50.6989 51.983 50.483C52.4678 50.267 53.017 50.1591 53.6307 50.1591C54.4943 50.1591 55.1723 50.3485 55.6648 50.7273C56.161 51.1061 56.5133 51.6061 56.7216 52.2273ZM65.081 52.2273L63.8764 52.5682C63.8007 52.3674 63.6889 52.1723 63.5412 51.983C63.3973 51.7898 63.2003 51.6307 62.9503 51.5057C62.7003 51.3807 62.3802 51.3182 61.9901 51.3182C61.456 51.3182 61.0109 51.4413 60.6548 51.6875C60.3026 51.9299 60.1264 52.2386 60.1264 52.6136C60.1264 52.947 60.2476 53.2102 60.4901 53.4034C60.7325 53.5966 61.1113 53.7576 61.6264 53.8864L62.9219 54.2045C63.7022 54.3939 64.2836 54.6837 64.6662 55.0739C65.0488 55.4602 65.2401 55.9583 65.2401 56.5682C65.2401 57.0682 65.0961 57.5152 64.8082 57.9091C64.5241 58.303 64.1264 58.6136 63.6151 58.8409C63.1037 59.0682 62.509 59.1818 61.831 59.1818C60.9408 59.1818 60.2041 58.9886 59.6207 58.6023C59.0374 58.2159 58.6681 57.6515 58.5128 56.9091L59.7855 56.5909C59.9067 57.0606 60.1359 57.4129 60.473 57.6477C60.8139 57.8826 61.259 58 61.8082 58C62.4332 58 62.9295 57.8674 63.2969 57.6023C63.6681 57.3333 63.8537 57.0114 63.8537 56.6364C63.8537 56.3333 63.7476 56.0795 63.5355 55.875C63.3234 55.6667 62.9976 55.5114 62.5582 55.4091L61.1037 55.0682C60.3045 54.8788 59.7173 54.5852 59.3423 54.1875C58.9711 53.786 58.7855 53.2841 58.7855 52.6818C58.7855 52.1894 58.9238 51.7538 59.2003 51.375C59.4806 50.9962 59.8613 50.6989 60.3423 50.483C60.8272 50.267 61.3764 50.1591 61.9901 50.1591C62.8537 50.1591 63.5317 50.3485 64.0241 50.7273C64.5204 51.1061 64.8726 51.6061 65.081 52.2273ZM70.9176 59.1818C70.0767 59.1818 69.3513 58.9962 68.7415 58.625C68.1354 58.25 67.6676 57.7273 67.3381 57.0568C67.0123 56.3826 66.8494 55.5985 66.8494 54.7045C66.8494 53.8106 67.0123 53.0227 67.3381 52.3409C67.6676 51.6553 68.1259 51.1212 68.7131 50.7386C69.304 50.3523 69.9934 50.1591 70.7812 50.1591C71.2358 50.1591 71.6847 50.2348 72.1278 50.3864C72.571 50.5379 72.9744 50.7841 73.3381 51.125C73.7017 51.4621 73.9915 51.9091 74.2074 52.4659C74.4233 53.0227 74.5312 53.7083 74.5312 54.5227V55.0909H67.804V53.9318H73.1676C73.1676 53.4394 73.0691 53 72.8722 52.6136C72.679 52.2273 72.4025 51.9223 72.0426 51.6989C71.6866 51.4754 71.2661 51.3636 70.7812 51.3636C70.2472 51.3636 69.785 51.4962 69.3949 51.7614C69.0085 52.0227 68.7112 52.3636 68.5028 52.7841C68.2945 53.2045 68.1903 53.6553 68.1903 54.1364V54.9091C68.1903 55.5682 68.304 56.1269 68.5312 56.5852C68.7623 57.0398 69.0824 57.3864 69.4915 57.625C69.9006 57.8598 70.3759 57.9773 70.9176 57.9773C71.2699 57.9773 71.5881 57.928 71.8722 57.8295C72.16 57.7273 72.4081 57.5758 72.6165 57.375C72.8248 57.1705 72.9858 56.9167 73.0994 56.6136L74.3949 56.9773C74.2585 57.4167 74.0294 57.803 73.7074 58.1364C73.3854 58.4659 72.9877 58.7235 72.5142 58.9091C72.0407 59.0909 71.5085 59.1818 70.9176 59.1818ZM76.571 59V50.2727H77.8665V51.6364H77.9801C78.1619 51.1705 78.4555 50.8087 78.8608 50.5511C79.2661 50.2898 79.7528 50.1591 80.321 50.1591C80.8968 50.1591 81.3759 50.2898 81.7585 50.5511C82.1449 50.8087 82.446 51.1705 82.6619 51.6364H82.7528C82.9763 51.1856 83.3116 50.8277 83.7585 50.5625C84.2055 50.2936 84.7415 50.1591 85.3665 50.1591C86.1468 50.1591 86.785 50.4034 87.2812 50.892C87.7775 51.3769 88.0256 52.1326 88.0256 53.1591V59H86.6847V53.1591C86.6847 52.5152 86.5085 52.0549 86.1562 51.7784C85.804 51.5019 85.3892 51.3636 84.9119 51.3636C84.2983 51.3636 83.8229 51.5492 83.4858 51.9205C83.1487 52.2879 82.9801 52.7538 82.9801 53.3182V59H81.6165V53.0227C81.6165 52.5265 81.4555 52.1269 81.1335 51.8239C80.8116 51.517 80.3968 51.3636 79.8892 51.3636C79.5407 51.3636 79.215 51.4564 78.9119 51.642C78.6127 51.8277 78.3703 52.0852 78.1847 52.4148C78.0028 52.7405 77.9119 53.1174 77.9119 53.5455V59H76.571ZM94.1364 59.1818C93.2955 59.1818 92.5701 58.9962 91.9602 58.625C91.3542 58.25 90.8864 57.7273 90.5568 57.0568C90.2311 56.3826 90.0682 55.5985 90.0682 54.7045C90.0682 53.8106 90.2311 53.0227 90.5568 52.3409C90.8864 51.6553 91.3447 51.1212 91.9318 50.7386C92.5227 50.3523 93.2121 50.1591 94 50.1591C94.4545 50.1591 94.9034 50.2348 95.3466 50.3864C95.7898 50.5379 96.1932 50.7841 96.5568 51.125C96.9205 51.4621 97.2102 51.9091 97.4261 52.4659C97.642 53.0227 97.75 53.7083 97.75 54.5227V55.0909H91.0227V53.9318H96.3864C96.3864 53.4394 96.2879 53 96.0909 52.6136C95.8977 52.2273 95.6212 51.9223 95.2614 51.6989C94.9053 51.4754 94.4848 51.3636 94 51.3636C93.4659 51.3636 93.0038 51.4962 92.6136 51.7614C92.2273 52.0227 91.9299 52.3636 91.7216 52.7841C91.5133 53.2045 91.4091 53.6553 91.4091 54.1364V54.9091C91.4091 55.5682 91.5227 56.1269 91.75 56.5852C91.9811 57.0398 92.3011 57.3864 92.7102 57.625C93.1193 57.8598 93.5947 57.9773 94.1364 57.9773C94.4886 57.9773 94.8068 57.928 95.0909 57.8295C95.3788 57.7273 95.6269 57.5758 95.8352 57.375C96.0436 57.1705 96.2045 56.9167 96.3182 56.6136L97.6136 56.9773C97.4773 57.4167 97.2481 57.803 96.9261 58.1364C96.6042 58.4659 96.2064 58.7235 95.733 58.9091C95.2595 59.0909 94.7273 59.1818 94.1364 59.1818ZM101.131 53.75V59H99.7898V50.2727H101.085V51.6364H101.199C101.403 51.1932 101.714 50.8371 102.131 50.5682C102.547 50.2955 103.085 50.1591 103.744 50.1591C104.335 50.1591 104.852 50.2803 105.295 50.5227C105.739 50.7614 106.083 51.125 106.33 51.6136C106.576 52.0985 106.699 52.7121 106.699 53.4545V59H105.358V53.5455C105.358 52.8598 105.18 52.3258 104.824 51.9432C104.468 51.5568 103.979 51.3636 103.358 51.3636C102.93 51.3636 102.547 51.4564 102.21 51.642C101.877 51.8277 101.614 52.0985 101.42 52.4545C101.227 52.8106 101.131 53.2424 101.131 53.75ZM112.945 50.2727V51.4091H108.422V50.2727H112.945ZM109.74 48.1818H111.081V56.5C111.081 56.8788 111.136 57.1629 111.246 57.3523C111.359 57.5379 111.503 57.6629 111.678 57.7273C111.856 57.7879 112.043 57.8182 112.24 57.8182C112.388 57.8182 112.509 57.8106 112.604 57.7955C112.698 57.7765 112.774 57.7614 112.831 57.75L113.104 58.9545C113.013 58.9886 112.886 59.0227 112.723 59.0568C112.56 59.0947 112.354 59.1136 112.104 59.1136C111.725 59.1136 111.354 59.0322 110.99 58.8693C110.63 58.7064 110.331 58.4583 110.092 58.125C109.857 57.7917 109.74 57.3712 109.74 56.8636V48.1818Z" fill="#716F6D"/>
<path d="M50.3333 30V10L70.3333 5V26.6667" stroke="#716F6D" stroke-width="2" stroke-linecap="round"/>
<path d="M46.9119 34.1841C44.4658 35.0744 42.0017 34.4742 41.4081 32.8435C40.8146 31.2127 42.3164 29.169 44.7625 28.2787C47.2086 27.3884 49.6727 27.9886 50.2663 29.6194C50.8598 31.2501 49.358 33.2938 46.9119 34.1841ZM66.9119 30.8508C64.4658 31.7411 62.0017 31.1409 61.4081 29.5101C60.8146 27.8794 62.3164 25.8357 64.7625 24.9454C67.2086 24.055 69.6727 24.6553 70.2663 26.286C70.8598 27.9168 69.358 29.9605 66.9119 30.8508Z" stroke="#716F6D" stroke-width="2" stroke-linecap="square"/>
</svg>
