<svg width="56" height="58" viewBox="0 0 56 58" fill="none" xmlns="http://www.w3.org/2000/svg">
<path d="M1.40909 57V45.3636H8.38636V46.6136H2.81818V50.5455H7.86364V51.7955H2.81818V57H1.40909ZM13.1861 57.2045C12.633 57.2045 12.1312 57.1004 11.6804 56.892C11.2296 56.6799 10.8717 56.375 10.6065 55.9773C10.3414 55.5758 10.2088 55.0909 10.2088 54.5227C10.2088 54.0227 10.3073 53.6174 10.5043 53.3068C10.7012 52.9924 10.9645 52.7462 11.294 52.5682C11.6236 52.3902 11.9872 52.2576 12.3849 52.1705C12.7865 52.0795 13.1899 52.0076 13.5952 51.9545C14.1255 51.8864 14.5554 51.8352 14.8849 51.8011C15.2183 51.7633 15.4607 51.7008 15.6122 51.6136C15.7675 51.5265 15.8452 51.375 15.8452 51.1591V51.1136C15.8452 50.553 15.6918 50.1174 15.3849 49.8068C15.0819 49.4962 14.6217 49.3409 14.0043 49.3409C13.3641 49.3409 12.8622 49.4811 12.4986 49.7614C12.1349 50.0417 11.8793 50.3409 11.7315 50.6591L10.4588 50.2045C10.6861 49.6742 10.9891 49.2614 11.3679 48.9659C11.7505 48.6667 12.1671 48.4583 12.6179 48.3409C13.0724 48.2197 13.5194 48.1591 13.9588 48.1591C14.2391 48.1591 14.5611 48.1932 14.9247 48.2614C15.2921 48.3258 15.6463 48.4602 15.9872 48.6648C16.3319 48.8693 16.6179 49.178 16.8452 49.5909C17.0724 50.0038 17.1861 50.5568 17.1861 51.25V57H15.8452V55.8182H15.777C15.6861 56.0076 15.5346 56.2102 15.3224 56.4261C15.1103 56.642 14.8281 56.8258 14.4759 56.9773C14.1236 57.1288 13.6937 57.2045 13.1861 57.2045ZM13.3906 56C13.9209 56 14.3679 55.8958 14.7315 55.6875C15.099 55.4792 15.3755 55.2102 15.5611 54.8807C15.7505 54.5511 15.8452 54.2045 15.8452 53.8409V52.6136C15.7884 52.6818 15.6634 52.7443 15.4702 52.8011C15.2808 52.8542 15.0611 52.9015 14.8111 52.9432C14.5649 52.9811 14.3243 53.0152 14.0895 53.0455C13.8584 53.072 13.6709 53.0947 13.527 53.1136C13.1785 53.1591 12.8527 53.233 12.5497 53.3352C12.2505 53.4337 12.008 53.5833 11.8224 53.7841C11.6406 53.9811 11.5497 54.25 11.5497 54.5909C11.5497 55.0568 11.7221 55.4091 12.0668 55.6477C12.4152 55.8826 12.8565 56 13.3906 56ZM26.4574 48.2727L23.2301 57H21.8665L18.6392 48.2727H20.0938L22.5028 55.2273H22.5938L25.0028 48.2727H26.4574ZM31.4602 57.1818C30.6723 57.1818 29.9811 56.9943 29.3864 56.6193C28.7955 56.2443 28.3333 55.7197 28 55.0455C27.6705 54.3712 27.5057 53.5833 27.5057 52.6818C27.5057 51.7727 27.6705 50.9792 28 50.3011C28.3333 49.6231 28.7955 49.0966 29.3864 48.7216C29.9811 48.3466 30.6723 48.1591 31.4602 48.1591C32.2481 48.1591 32.9375 48.3466 33.5284 48.7216C34.1231 49.0966 34.5852 49.6231 34.9148 50.3011C35.2481 50.9792 35.4148 51.7727 35.4148 52.6818C35.4148 53.5833 35.2481 54.3712 34.9148 55.0455C34.5852 55.7197 34.1231 56.2443 33.5284 56.6193C32.9375 56.9943 32.2481 57.1818 31.4602 57.1818ZM31.4602 55.9773C32.0587 55.9773 32.5511 55.8239 32.9375 55.517C33.3239 55.2102 33.6098 54.8068 33.7955 54.3068C33.9811 53.8068 34.0739 53.2652 34.0739 52.6818C34.0739 52.0985 33.9811 51.5549 33.7955 51.0511C33.6098 50.5473 33.3239 50.1402 32.9375 49.8295C32.5511 49.5189 32.0587 49.3636 31.4602 49.3636C30.8617 49.3636 30.3693 49.5189 29.983 49.8295C29.5966 50.1402 29.3106 50.5473 29.125 51.0511C28.9394 51.5549 28.8466 52.0985 28.8466 52.6818C28.8466 53.2652 28.9394 53.8068 29.125 54.3068C29.3106 54.8068 29.5966 55.2102 29.983 55.517C30.3693 55.8239 30.8617 55.9773 31.4602 55.9773ZM37.4616 57V48.2727H38.7571V49.5909H38.848C39.0071 49.1591 39.295 48.8087 39.7116 48.5398C40.1283 48.2708 40.598 48.1364 41.1207 48.1364C41.2192 48.1364 41.3423 48.1383 41.4901 48.142C41.6378 48.1458 41.7495 48.1515 41.8253 48.1591V49.5227C41.7798 49.5114 41.6757 49.4943 41.5128 49.4716C41.3537 49.4451 41.1851 49.4318 41.0071 49.4318C40.5829 49.4318 40.2041 49.5208 39.8707 49.6989C39.5412 49.8731 39.2798 50.1155 39.0866 50.4261C38.8973 50.733 38.8026 51.0833 38.8026 51.4773V57H37.4616ZM43.4148 57V48.2727H44.7557V57H43.4148ZM44.0966 46.8182C43.8352 46.8182 43.6098 46.7292 43.4205 46.5511C43.2348 46.3731 43.142 46.1591 43.142 45.9091C43.142 45.6591 43.2348 45.4451 43.4205 45.267C43.6098 45.089 43.8352 45 44.0966 45C44.358 45 44.5814 45.089 44.767 45.267C44.9564 45.4451 45.0511 45.6591 45.0511 45.9091C45.0511 46.1591 44.9564 46.3731 44.767 46.5511C44.5814 46.7292 44.358 46.8182 44.0966 46.8182ZM53.3935 50.2273L52.1889 50.5682C52.1132 50.3674 52.0014 50.1723 51.8537 49.983C51.7098 49.7898 51.5128 49.6307 51.2628 49.5057C51.0128 49.3807 50.6927 49.3182 50.3026 49.3182C49.7685 49.3182 49.3234 49.4413 48.9673 49.6875C48.6151 49.9299 48.4389 50.2386 48.4389 50.6136C48.4389 50.947 48.5601 51.2102 48.8026 51.4034C49.045 51.5966 49.4238 51.7576 49.9389 51.8864L51.2344 52.2045C52.0147 52.3939 52.5961 52.6837 52.9787 53.0739C53.3613 53.4602 53.5526 53.9583 53.5526 54.5682C53.5526 55.0682 53.4086 55.5152 53.1207 55.9091C52.8366 56.303 52.4389 56.6136 51.9276 56.8409C51.4162 57.0682 50.8215 57.1818 50.1435 57.1818C49.2533 57.1818 48.5166 56.9886 47.9332 56.6023C47.3499 56.2159 46.9806 55.6515 46.8253 54.9091L48.098 54.5909C48.2192 55.0606 48.4484 55.4129 48.7855 55.6477C49.1264 55.8826 49.5715 56 50.1207 56C50.7457 56 51.242 55.8674 51.6094 55.6023C51.9806 55.3333 52.1662 55.0114 52.1662 54.6364C52.1662 54.3333 52.0601 54.0795 51.848 53.875C51.6359 53.6667 51.3101 53.5114 50.8707 53.4091L49.4162 53.0682C48.617 52.8788 48.0298 52.5852 47.6548 52.1875C47.2836 51.786 47.098 51.2841 47.098 50.6818C47.098 50.1894 47.2363 49.7538 47.5128 49.375C47.7931 48.9962 48.1738 48.6989 48.6548 48.483C49.1397 48.267 49.6889 48.1591 50.3026 48.1591C51.1662 48.1591 51.8442 48.3485 52.3366 48.7273C52.8329 49.1061 53.1851 49.6061 53.3935 50.2273Z" fill="#716F6D"/>
<path d="M39.7943 2.64548C38.0971 0.94825 35.8502 0.0206142 33.452 0.0206142C31.0539 0.0206142 28.8001 0.955121 27.1029 2.65235L26.2165 3.53876L25.3163 2.63861C23.6191 0.941379 21.3584 0 18.9603 0C16.5691 0 14.3153 0.934507 12.6249 2.62487C10.9277 4.3221 9.99317 6.57591 10 8.97402C10 11.3721 10.9414 13.6191 12.6386 15.3163L25.5431 28.2207C25.7217 28.3994 25.9622 28.4956 26.1959 28.4956C26.4295 28.4956 26.67 28.4063 26.8487 28.2276L39.7806 15.3438C41.4778 13.6466 42.4123 11.3927 42.4123 8.99463C42.4192 6.59652 41.4916 4.34271 39.7943 2.64548ZM38.475 14.0314L26.1959 26.2624L13.9442 14.0107C12.5974 12.6639 11.8553 10.8774 11.8553 8.97402C11.8553 7.07065 12.5905 5.28409 13.9373 3.94417C15.2773 2.60425 17.0638 1.86214 18.9603 1.86214C20.8637 1.86214 22.6571 2.60425 24.0039 3.95104L25.5568 5.50397C25.921 5.86816 26.5051 5.86816 26.8693 5.50397L28.4085 3.96478C29.7552 2.61799 31.5487 1.87589 33.4452 1.87589C35.3417 1.87589 37.1282 2.61799 38.475 3.95791C39.8218 5.3047 40.5571 7.09126 40.5571 8.99463C40.5639 10.898 39.8218 12.6846 38.475 14.0314Z" fill="#716F6D"/>
</svg>
