<svg width="79" height="61" viewBox="0 0 79 61" fill="none" xmlns="http://www.w3.org/2000/svg">
<path d="M2.81818 48.3636V60H1.40909V48.3636H2.81818ZM6.80256 54.75V60H5.46165V51.2727H6.7571V52.6364H6.87074C7.07528 52.1932 7.38589 51.8371 7.80256 51.5682C8.21922 51.2955 8.7571 51.1591 9.41619 51.1591C10.0071 51.1591 10.5241 51.2803 10.9673 51.5227C11.4105 51.7614 11.7552 52.125 12.0014 52.6136C12.2476 53.0985 12.3707 53.7121 12.3707 54.4545V60H11.0298V54.5455C11.0298 53.8598 10.8518 53.3258 10.4957 52.9432C10.1397 52.5568 9.65104 52.3636 9.02983 52.3636C8.6018 52.3636 8.21922 52.4564 7.8821 52.642C7.54877 52.8277 7.28551 53.0985 7.09233 53.4545C6.89915 53.8106 6.80256 54.2424 6.80256 54.75ZM16.1619 54.75V60H14.821V51.2727H16.1165V52.6364H16.2301C16.4347 52.1932 16.7453 51.8371 17.1619 51.5682C17.5786 51.2955 18.1165 51.1591 18.7756 51.1591C19.3665 51.1591 19.8835 51.2803 20.3267 51.5227C20.7699 51.7614 21.1146 52.125 21.3608 52.6136C21.607 53.0985 21.7301 53.7121 21.7301 54.4545V60H20.3892V54.5455C20.3892 53.8598 20.2112 53.3258 19.8551 52.9432C19.4991 52.5568 19.0104 52.3636 18.3892 52.3636C17.9612 52.3636 17.5786 52.4564 17.2415 52.642C16.9081 52.8277 16.6449 53.0985 16.4517 53.4545C16.2585 53.8106 16.1619 54.2424 16.1619 54.75ZM27.7259 60.1818C26.938 60.1818 26.2467 59.9943 25.652 59.6193C25.0611 59.2443 24.599 58.7197 24.2656 58.0455C23.9361 57.3712 23.7713 56.5833 23.7713 55.6818C23.7713 54.7727 23.9361 53.9792 24.2656 53.3011C24.599 52.6231 25.0611 52.0966 25.652 51.7216C26.2467 51.3466 26.938 51.1591 27.7259 51.1591C28.5137 51.1591 29.2031 51.3466 29.794 51.7216C30.3887 52.0966 30.8509 52.6231 31.1804 53.3011C31.5137 53.9792 31.6804 54.7727 31.6804 55.6818C31.6804 56.5833 31.5137 57.3712 31.1804 58.0455C30.8509 58.7197 30.3887 59.2443 29.794 59.6193C29.2031 59.9943 28.5137 60.1818 27.7259 60.1818ZM27.7259 58.9773C28.3243 58.9773 28.8168 58.8239 29.2031 58.517C29.5895 58.2102 29.8755 57.8068 30.0611 57.3068C30.2467 56.8068 30.3395 56.2652 30.3395 55.6818C30.3395 55.0985 30.2467 54.5549 30.0611 54.0511C29.8755 53.5473 29.5895 53.1402 29.2031 52.8295C28.8168 52.5189 28.3243 52.3636 27.7259 52.3636C27.1274 52.3636 26.6349 52.5189 26.2486 52.8295C25.8622 53.1402 25.5762 53.5473 25.3906 54.0511C25.205 54.5549 25.1122 55.0985 25.1122 55.6818C25.1122 56.2652 25.205 56.8068 25.3906 57.3068C25.5762 57.8068 25.8622 58.2102 26.2486 58.517C26.6349 58.8239 27.1274 58.9773 27.7259 58.9773ZM40.5511 51.2727L37.3239 60H35.9602L32.733 51.2727H34.1875L36.5966 58.2273H36.6875L39.0966 51.2727H40.5511ZM44.6236 60.2045C44.0705 60.2045 43.5687 60.1004 43.1179 59.892C42.6671 59.6799 42.3092 59.375 42.044 58.9773C41.7789 58.5758 41.6463 58.0909 41.6463 57.5227C41.6463 57.0227 41.7448 56.6174 41.9418 56.3068C42.1387 55.9924 42.402 55.7462 42.7315 55.5682C43.0611 55.3902 43.4247 55.2576 43.8224 55.1705C44.224 55.0795 44.6274 55.0076 45.0327 54.9545C45.563 54.8864 45.9929 54.8352 46.3224 54.8011C46.6558 54.7633 46.8982 54.7008 47.0497 54.6136C47.205 54.5265 47.2827 54.375 47.2827 54.1591V54.1136C47.2827 53.553 47.1293 53.1174 46.8224 52.8068C46.5194 52.4962 46.0592 52.3409 45.4418 52.3409C44.8016 52.3409 44.2997 52.4811 43.9361 52.7614C43.5724 53.0417 43.3168 53.3409 43.169 53.6591L41.8963 53.2045C42.1236 52.6742 42.4266 52.2614 42.8054 51.9659C43.188 51.6667 43.6046 51.4583 44.0554 51.3409C44.5099 51.2197 44.9569 51.1591 45.3963 51.1591C45.6766 51.1591 45.9986 51.1932 46.3622 51.2614C46.7296 51.3258 47.0838 51.4602 47.4247 51.6648C47.7694 51.8693 48.0554 52.178 48.2827 52.5909C48.5099 53.0038 48.6236 53.5568 48.6236 54.25V60H47.2827V58.8182H47.2145C47.1236 59.0076 46.9721 59.2102 46.7599 59.4261C46.5478 59.642 46.2656 59.8258 45.9134 59.9773C45.5611 60.1288 45.1312 60.2045 44.6236 60.2045ZM44.8281 59C45.3584 59 45.8054 58.8958 46.169 58.6875C46.5365 58.4792 46.813 58.2102 46.9986 57.8807C47.188 57.5511 47.2827 57.2045 47.2827 56.8409V55.6136C47.2259 55.6818 47.1009 55.7443 46.9077 55.8011C46.7183 55.8542 46.4986 55.9015 46.2486 55.9432C46.0024 55.9811 45.7618 56.0152 45.527 56.0455C45.2959 56.072 45.1084 56.0947 44.9645 56.1136C44.616 56.1591 44.2902 56.233 43.9872 56.3352C43.688 56.4337 43.4455 56.5833 43.2599 56.7841C43.0781 56.9811 42.9872 57.25 42.9872 57.5909C42.9872 58.0568 43.1596 58.4091 43.5043 58.6477C43.8527 58.8826 44.294 59 44.8281 59ZM54.8665 51.2727V52.4091H50.3438V51.2727H54.8665ZM51.6619 49.1818H53.0028V57.5C53.0028 57.8788 53.0578 58.1629 53.1676 58.3523C53.2813 58.5379 53.4252 58.6629 53.5994 58.7273C53.7775 58.7879 53.965 58.8182 54.1619 58.8182C54.3097 58.8182 54.4309 58.8106 54.5256 58.7955C54.6203 58.7765 54.696 58.7614 54.7528 58.75L55.0256 59.9545C54.9347 59.9886 54.8078 60.0227 54.6449 60.0568C54.482 60.0947 54.2756 60.1136 54.0256 60.1136C53.6468 60.1136 53.2756 60.0322 52.9119 59.8693C52.5521 59.7064 52.2528 59.4583 52.0142 59.125C51.7794 58.7917 51.6619 58.3712 51.6619 57.8636V49.1818ZM56.8835 60V51.2727H58.2244V60H56.8835ZM57.5653 49.8182C57.304 49.8182 57.0786 49.7292 56.8892 49.5511C56.7036 49.3731 56.6108 49.1591 56.6108 48.9091C56.6108 48.6591 56.7036 48.4451 56.8892 48.267C57.0786 48.089 57.304 48 57.5653 48C57.8267 48 58.0502 48.089 58.2358 48.267C58.4252 48.4451 58.5199 48.6591 58.5199 48.9091C58.5199 49.1591 58.4252 49.3731 58.2358 49.5511C58.0502 49.7292 57.8267 49.8182 57.5653 49.8182ZM64.2259 60.1818C63.438 60.1818 62.7467 59.9943 62.152 59.6193C61.5611 59.2443 61.099 58.7197 60.7656 58.0455C60.4361 57.3712 60.2713 56.5833 60.2713 55.6818C60.2713 54.7727 60.4361 53.9792 60.7656 53.3011C61.099 52.6231 61.5611 52.0966 62.152 51.7216C62.7467 51.3466 63.438 51.1591 64.2259 51.1591C65.0137 51.1591 65.7031 51.3466 66.294 51.7216C66.8887 52.0966 67.3509 52.6231 67.6804 53.3011C68.0137 53.9792 68.1804 54.7727 68.1804 55.6818C68.1804 56.5833 68.0137 57.3712 67.6804 58.0455C67.3509 58.7197 66.8887 59.2443 66.294 59.6193C65.7031 59.9943 65.0137 60.1818 64.2259 60.1818ZM64.2259 58.9773C64.8243 58.9773 65.3168 58.8239 65.7031 58.517C66.0895 58.2102 66.3755 57.8068 66.5611 57.3068C66.7467 56.8068 66.8395 56.2652 66.8395 55.6818C66.8395 55.0985 66.7467 54.5549 66.5611 54.0511C66.3755 53.5473 66.0895 53.1402 65.7031 52.8295C65.3168 52.5189 64.8243 52.3636 64.2259 52.3636C63.6274 52.3636 63.1349 52.5189 62.7486 52.8295C62.3622 53.1402 62.0762 53.5473 61.8906 54.0511C61.705 54.5549 61.6122 55.0985 61.6122 55.6818C61.6122 56.2652 61.705 56.8068 61.8906 57.3068C62.0762 57.8068 62.3622 58.2102 62.7486 58.517C63.1349 58.8239 63.6274 58.9773 64.2259 58.9773ZM71.5682 54.75V60H70.2273V51.2727H71.5227V52.6364H71.6364C71.8409 52.1932 72.1515 51.8371 72.5682 51.5682C72.9848 51.2955 73.5227 51.1591 74.1818 51.1591C74.7727 51.1591 75.2898 51.2803 75.733 51.5227C76.1761 51.7614 76.5208 52.125 76.767 52.6136C77.0133 53.0985 77.1364 53.7121 77.1364 54.4545V60H75.7955V54.5455C75.7955 53.8598 75.6174 53.3258 75.2614 52.9432C74.9053 52.5568 74.4167 52.3636 73.7955 52.3636C73.3674 52.3636 72.9848 52.4564 72.6477 52.642C72.3144 52.8277 72.0511 53.0985 71.858 53.4545C71.6648 53.8106 71.5682 54.2424 71.5682 54.75Z" fill="#716F6D"/>
<mask id="path-2-outside-1_527_726" maskUnits="userSpaceOnUse" x="20" y="0" width="34" height="32" fill="black">
<rect fill="white" x="20" width="34" height="32"/>
<path d="M37.3132 8.5284C35.7063 8.5284 34.1354 8.96652 32.7993 9.78736C31.4631 10.6082 30.4217 11.7749 29.8067 13.1399C29.1918 14.5049 29.0309 16.0069 29.3444 17.4559C29.6579 18.905 30.4317 20.2361 31.568 21.2808C32.7043 22.3255 34.152 23.037 35.7281 23.3252C37.3042 23.6135 38.9379 23.4655 40.4225 22.9001C41.9072 22.3347 43.1761 21.3773 44.0689 20.1488C44.9617 18.9203 45.4382 17.476 45.4382 15.9986C45.4358 14.0181 44.579 12.1193 43.0558 10.7188C41.5326 9.3184 39.4674 8.53064 37.3132 8.5284ZM37.3132 22.3195C35.9535 22.3195 34.6243 21.9488 33.4937 21.2542C32.3631 20.5597 31.4819 19.5725 30.9616 18.4175C30.4412 17.2625 30.3051 15.9916 30.5704 14.7654C30.8356 13.5393 31.4904 12.413 32.4519 11.529C33.4134 10.645 34.6384 10.043 35.972 9.79912C37.3056 9.55522 38.6879 9.6804 39.9442 10.1588C41.2004 10.6372 42.2741 11.4474 43.0296 12.4869C43.785 13.5263 44.1882 14.7484 44.1882 15.9986C44.1862 17.6744 43.4612 19.2811 42.1723 20.4661C40.8834 21.6511 39.136 22.3176 37.3132 22.3195ZM53.5016 19.5621L51.0478 16.5544C51.0592 16.1859 51.0508 15.7123 51.0443 15.447L53.5005 12.436C53.5575 12.3662 53.5964 12.2854 53.6143 12.1997C53.6322 12.114 53.6287 12.0257 53.6039 11.9415C53.2278 10.6597 52.6734 9.428 51.9545 8.27672C51.9072 8.20102 51.8417 8.13621 51.7631 8.08723C51.6845 8.03825 51.5948 8.00638 51.5008 7.99403L47.456 7.46297C47.1828 7.18877 46.895 6.92418 46.5969 6.67306L46.0194 2.95586C46.006 2.86948 45.9714 2.78704 45.9182 2.7148C45.8649 2.64256 45.7945 2.58241 45.7122 2.53892C44.4605 1.87716 43.1211 1.36662 41.7273 1.01992C41.6356 0.997132 41.5395 0.993846 41.4463 1.01032C41.3531 1.02678 41.2651 1.06258 41.1892 1.11497L37.9207 3.36902C37.5166 3.35274 37.1097 3.35274 36.7056 3.36902L33.4384 1.11595C33.3625 1.0636 33.2746 1.02784 33.1814 1.01137C33.0882 0.994901 32.9922 0.998162 32.9006 1.02091C31.5064 1.36671 30.1667 1.87645 28.9145 2.53751C28.8321 2.58099 28.7617 2.64114 28.7084 2.7134C28.6551 2.78566 28.6205 2.86812 28.6071 2.95453L28.0295 6.67327C27.7313 6.92446 27.4435 7.18905 27.1703 7.46325L23.1273 7.99411C23.0333 8.00647 22.9437 8.03833 22.8651 8.08727C22.7865 8.13621 22.7211 8.20095 22.6738 8.27658C21.954 9.42748 21.3987 10.6589 21.0216 11.9405C20.9969 12.0247 20.9933 12.1131 21.0112 12.1988C21.0291 12.2845 21.0681 12.3654 21.125 12.4352L23.5789 15.4429C23.5675 15.8114 23.5758 16.285 23.5824 16.5503L21.1261 19.5613C21.0692 19.6311 21.0303 19.7119 21.0123 19.7976C20.9944 19.8833 20.998 19.9716 21.0227 20.0558C21.3988 21.3376 21.9532 22.5693 22.6722 23.7206C22.7195 23.7963 22.7849 23.8611 22.8635 23.9101C22.9421 23.9591 23.0318 23.9909 23.1258 24.0033L27.1706 24.5343C27.4438 24.8085 27.7316 25.0731 28.0298 25.3242L28.6072 29.0414C28.6206 29.1278 28.6552 29.2103 28.7085 29.2825C28.7617 29.3547 28.8321 29.4149 28.9144 29.4584C30.1661 30.1201 31.5055 30.6307 32.8993 30.9774C32.991 31.0002 33.0871 31.0035 33.1803 30.987C33.2736 30.9705 33.3615 30.9347 33.4374 30.8823L36.7059 28.6283C37.11 28.6446 37.5169 28.6446 37.921 28.6283L41.1882 30.8814C41.2641 30.9337 41.352 30.9695 41.4452 30.986C41.5384 31.0024 41.6344 30.9992 41.7261 30.9764C43.1202 30.6306 44.46 30.1209 45.7122 29.4598C45.7945 29.4163 45.865 29.3562 45.9182 29.2839C45.9715 29.2117 46.0061 29.1292 46.0196 29.0428L46.5976 25.3207C46.8891 25.0675 47.2474 24.7272 47.4469 24.5354L51.4994 24.0032C51.5933 23.9908 51.683 23.959 51.7615 23.91C51.8401 23.8611 51.9055 23.7964 51.9528 23.7207C52.6726 22.5698 53.2279 21.3384 53.605 20.0568C53.6297 19.9726 53.6333 19.8842 53.6154 19.7985C53.5975 19.7128 53.5586 19.6319 53.5016 19.5621ZM51.0173 22.9056L47.055 23.4259C46.9147 23.4443 46.7854 23.5061 46.6882 23.601C46.681 23.608 45.9703 24.3017 45.5961 24.6062C45.4852 24.6966 45.4127 24.8203 45.3918 24.9553L44.8257 28.5995C43.8314 29.1009 42.7804 29.5007 41.6915 29.7918L38.4897 27.5839C38.3712 27.502 38.2248 27.4616 38.0768 27.47C37.5684 27.4983 37.0586 27.4983 36.5502 27.47C36.4022 27.4617 36.2558 27.5021 36.1373 27.5839L32.9343 29.7928C31.8456 29.5009 30.795 29.1003 29.8011 28.5983L29.2351 24.9555C29.2142 24.8205 29.1417 24.6968 29.0307 24.6065C28.6494 24.296 28.2889 23.9645 27.9512 23.614C27.8529 23.5119 27.7184 23.4453 27.5716 23.4261L23.608 22.9056C23.0627 21.9915 22.6278 21.0252 22.3112 20.0241L24.7127 17.0801C24.7978 16.9758 24.8417 16.8481 24.8374 16.7179C24.8371 16.7082 24.8061 15.7556 24.8365 15.297C24.8455 15.1609 24.8016 15.0263 24.7126 14.9173L22.3101 11.9725C22.6276 10.9716 23.0632 10.0056 23.6093 9.09174L27.5715 8.57155C27.7182 8.55224 27.8527 8.48562 27.951 8.38356C28.2887 8.03299 28.6492 7.70155 29.0305 7.39107C29.1415 7.30068 29.2139 7.17697 29.2349 7.04203L29.8009 3.39784C30.7952 2.89646 31.8462 2.49663 32.9351 2.20552L36.1369 4.41341C36.2556 4.49505 36.4019 4.53541 36.5498 4.52733C37.0583 4.49899 37.5681 4.49899 38.0765 4.52733C38.2244 4.53547 38.3707 4.4951 38.4894 4.41341L41.6923 2.20453C42.781 2.49643 43.8317 2.89698 44.8256 3.39903L45.3915 7.04181C45.4125 7.17677 45.4849 7.30049 45.5959 7.39086C45.9772 7.70135 46.3377 8.03279 46.6755 8.38334C46.7737 8.48539 46.9083 8.552 47.055 8.57126L51.0186 9.09167C51.564 10.0058 51.9988 10.9721 52.3155 11.9732L49.9139 14.9172C49.8289 15.0215 49.7849 15.1492 49.7892 15.2795C49.7896 15.2891 49.8205 16.2417 49.7902 16.7003C49.7812 16.8364 49.8251 16.971 49.9141 17.08L52.3165 20.0248C51.9991 21.0257 51.5634 21.9917 51.0173 22.9056Z"/>
</mask>
<path d="M37.3132 8.5284C35.7063 8.5284 34.1354 8.96652 32.7993 9.78736C31.4631 10.6082 30.4217 11.7749 29.8067 13.1399C29.1918 14.5049 29.0309 16.0069 29.3444 17.4559C29.6579 18.905 30.4317 20.2361 31.568 21.2808C32.7043 22.3255 34.152 23.037 35.7281 23.3252C37.3042 23.6135 38.9379 23.4655 40.4225 22.9001C41.9072 22.3347 43.1761 21.3773 44.0689 20.1488C44.9617 18.9203 45.4382 17.476 45.4382 15.9986C45.4358 14.0181 44.579 12.1193 43.0558 10.7188C41.5326 9.3184 39.4674 8.53064 37.3132 8.5284ZM37.3132 22.3195C35.9535 22.3195 34.6243 21.9488 33.4937 21.2542C32.3631 20.5597 31.4819 19.5725 30.9616 18.4175C30.4412 17.2625 30.3051 15.9916 30.5704 14.7654C30.8356 13.5393 31.4904 12.413 32.4519 11.529C33.4134 10.645 34.6384 10.043 35.972 9.79912C37.3056 9.55522 38.6879 9.6804 39.9442 10.1588C41.2004 10.6372 42.2741 11.4474 43.0296 12.4869C43.785 13.5263 44.1882 14.7484 44.1882 15.9986C44.1862 17.6744 43.4612 19.2811 42.1723 20.4661C40.8834 21.6511 39.136 22.3176 37.3132 22.3195ZM53.5016 19.5621L51.0478 16.5544C51.0592 16.1859 51.0508 15.7123 51.0443 15.447L53.5005 12.436C53.5575 12.3662 53.5964 12.2854 53.6143 12.1997C53.6322 12.114 53.6287 12.0257 53.6039 11.9415C53.2278 10.6597 52.6734 9.428 51.9545 8.27672C51.9072 8.20102 51.8417 8.13621 51.7631 8.08723C51.6845 8.03825 51.5948 8.00638 51.5008 7.99403L47.456 7.46297C47.1828 7.18877 46.895 6.92418 46.5969 6.67306L46.0194 2.95586C46.006 2.86948 45.9714 2.78704 45.9182 2.7148C45.8649 2.64256 45.7945 2.58241 45.7122 2.53892C44.4605 1.87716 43.1211 1.36662 41.7273 1.01992C41.6356 0.997132 41.5395 0.993846 41.4463 1.01032C41.3531 1.02678 41.2651 1.06258 41.1892 1.11497L37.9207 3.36902C37.5166 3.35274 37.1097 3.35274 36.7056 3.36902L33.4384 1.11595C33.3625 1.0636 33.2746 1.02784 33.1814 1.01137C33.0882 0.994901 32.9922 0.998162 32.9006 1.02091C31.5064 1.36671 30.1667 1.87645 28.9145 2.53751C28.8321 2.58099 28.7617 2.64114 28.7084 2.7134C28.6551 2.78566 28.6205 2.86812 28.6071 2.95453L28.0295 6.67327C27.7313 6.92446 27.4435 7.18905 27.1703 7.46325L23.1273 7.99411C23.0333 8.00647 22.9437 8.03833 22.8651 8.08727C22.7865 8.13621 22.7211 8.20095 22.6738 8.27658C21.954 9.42748 21.3987 10.6589 21.0216 11.9405C20.9969 12.0247 20.9933 12.1131 21.0112 12.1988C21.0291 12.2845 21.0681 12.3654 21.125 12.4352L23.5789 15.4429C23.5675 15.8114 23.5758 16.285 23.5824 16.5503L21.1261 19.5613C21.0692 19.6311 21.0303 19.7119 21.0123 19.7976C20.9944 19.8833 20.998 19.9716 21.0227 20.0558C21.3988 21.3376 21.9532 22.5693 22.6722 23.7206C22.7195 23.7963 22.7849 23.8611 22.8635 23.9101C22.9421 23.9591 23.0318 23.9909 23.1258 24.0033L27.1706 24.5343C27.4438 24.8085 27.7316 25.0731 28.0298 25.3242L28.6072 29.0414C28.6206 29.1278 28.6552 29.2103 28.7085 29.2825C28.7617 29.3547 28.8321 29.4149 28.9144 29.4584C30.1661 30.1201 31.5055 30.6307 32.8993 30.9774C32.991 31.0002 33.0871 31.0035 33.1803 30.987C33.2736 30.9705 33.3615 30.9347 33.4374 30.8823L36.7059 28.6283C37.11 28.6446 37.5169 28.6446 37.921 28.6283L41.1882 30.8814C41.2641 30.9337 41.352 30.9695 41.4452 30.986C41.5384 31.0024 41.6344 30.9992 41.7261 30.9764C43.1202 30.6306 44.46 30.1209 45.7122 29.4598C45.7945 29.4163 45.865 29.3562 45.9182 29.2839C45.9715 29.2117 46.0061 29.1292 46.0196 29.0428L46.5976 25.3207C46.8891 25.0675 47.2474 24.7272 47.4469 24.5354L51.4994 24.0032C51.5933 23.9908 51.683 23.959 51.7615 23.91C51.8401 23.8611 51.9055 23.7964 51.9528 23.7207C52.6726 22.5698 53.2279 21.3384 53.605 20.0568C53.6297 19.9726 53.6333 19.8842 53.6154 19.7985C53.5975 19.7128 53.5586 19.6319 53.5016 19.5621ZM51.0173 22.9056L47.055 23.4259C46.9147 23.4443 46.7854 23.5061 46.6882 23.601C46.681 23.608 45.9703 24.3017 45.5961 24.6062C45.4852 24.6966 45.4127 24.8203 45.3918 24.9553L44.8257 28.5995C43.8314 29.1009 42.7804 29.5007 41.6915 29.7918L38.4897 27.5839C38.3712 27.502 38.2248 27.4616 38.0768 27.47C37.5684 27.4983 37.0586 27.4983 36.5502 27.47C36.4022 27.4617 36.2558 27.5021 36.1373 27.5839L32.9343 29.7928C31.8456 29.5009 30.795 29.1003 29.8011 28.5983L29.2351 24.9555C29.2142 24.8205 29.1417 24.6968 29.0307 24.6065C28.6494 24.296 28.2889 23.9645 27.9512 23.614C27.8529 23.5119 27.7184 23.4453 27.5716 23.4261L23.608 22.9056C23.0627 21.9915 22.6278 21.0252 22.3112 20.0241L24.7127 17.0801C24.7978 16.9758 24.8417 16.8481 24.8374 16.7179C24.8371 16.7082 24.8061 15.7556 24.8365 15.297C24.8455 15.1609 24.8016 15.0263 24.7126 14.9173L22.3101 11.9725C22.6276 10.9716 23.0632 10.0056 23.6093 9.09174L27.5715 8.57155C27.7182 8.55224 27.8527 8.48562 27.951 8.38356C28.2887 8.03299 28.6492 7.70155 29.0305 7.39107C29.1415 7.30068 29.2139 7.17697 29.2349 7.04203L29.8009 3.39784C30.7952 2.89646 31.8462 2.49663 32.9351 2.20552L36.1369 4.41341C36.2556 4.49505 36.4019 4.53541 36.5498 4.52733C37.0583 4.49899 37.5681 4.49899 38.0765 4.52733C38.2244 4.53547 38.3707 4.4951 38.4894 4.41341L41.6923 2.20453C42.781 2.49643 43.8317 2.89698 44.8256 3.39903L45.3915 7.04181C45.4125 7.17677 45.4849 7.30049 45.5959 7.39086C45.9772 7.70135 46.3377 8.03279 46.6755 8.38334C46.7737 8.48539 46.9083 8.552 47.055 8.57126L51.0186 9.09167C51.564 10.0058 51.9988 10.9721 52.3155 11.9732L49.9139 14.9172C49.8289 15.0215 49.7849 15.1492 49.7892 15.2795C49.7896 15.2891 49.8205 16.2417 49.7902 16.7003C49.7812 16.8364 49.8251 16.971 49.9141 17.08L52.3165 20.0248C51.9991 21.0257 51.5634 21.9917 51.0173 22.9056Z" fill="#716F6D"/>
<path d="M37.3132 8.5284C35.7063 8.5284 34.1354 8.96652 32.7993 9.78736C31.4631 10.6082 30.4217 11.7749 29.8067 13.1399C29.1918 14.5049 29.0309 16.0069 29.3444 17.4559C29.6579 18.905 30.4317 20.2361 31.568 21.2808C32.7043 22.3255 34.152 23.037 35.7281 23.3252C37.3042 23.6135 38.9379 23.4655 40.4225 22.9001C41.9072 22.3347 43.1761 21.3773 44.0689 20.1488C44.9617 18.9203 45.4382 17.476 45.4382 15.9986C45.4358 14.0181 44.579 12.1193 43.0558 10.7188C41.5326 9.3184 39.4674 8.53064 37.3132 8.5284ZM37.3132 22.3195C35.9535 22.3195 34.6243 21.9488 33.4937 21.2542C32.3631 20.5597 31.4819 19.5725 30.9616 18.4175C30.4412 17.2625 30.3051 15.9916 30.5704 14.7654C30.8356 13.5393 31.4904 12.413 32.4519 11.529C33.4134 10.645 34.6384 10.043 35.972 9.79912C37.3056 9.55522 38.6879 9.6804 39.9442 10.1588C41.2004 10.6372 42.2741 11.4474 43.0296 12.4869C43.785 13.5263 44.1882 14.7484 44.1882 15.9986C44.1862 17.6744 43.4612 19.2811 42.1723 20.4661C40.8834 21.6511 39.136 22.3176 37.3132 22.3195ZM53.5016 19.5621L51.0478 16.5544C51.0592 16.1859 51.0508 15.7123 51.0443 15.447L53.5005 12.436C53.5575 12.3662 53.5964 12.2854 53.6143 12.1997C53.6322 12.114 53.6287 12.0257 53.6039 11.9415C53.2278 10.6597 52.6734 9.428 51.9545 8.27672C51.9072 8.20102 51.8417 8.13621 51.7631 8.08723C51.6845 8.03825 51.5948 8.00638 51.5008 7.99403L47.456 7.46297C47.1828 7.18877 46.895 6.92418 46.5969 6.67306L46.0194 2.95586C46.006 2.86948 45.9714 2.78704 45.9182 2.7148C45.8649 2.64256 45.7945 2.58241 45.7122 2.53892C44.4605 1.87716 43.1211 1.36662 41.7273 1.01992C41.6356 0.997132 41.5395 0.993846 41.4463 1.01032C41.3531 1.02678 41.2651 1.06258 41.1892 1.11497L37.9207 3.36902C37.5166 3.35274 37.1097 3.35274 36.7056 3.36902L33.4384 1.11595C33.3625 1.0636 33.2746 1.02784 33.1814 1.01137C33.0882 0.994901 32.9922 0.998162 32.9006 1.02091C31.5064 1.36671 30.1667 1.87645 28.9145 2.53751C28.8321 2.58099 28.7617 2.64114 28.7084 2.7134C28.6551 2.78566 28.6205 2.86812 28.6071 2.95453L28.0295 6.67327C27.7313 6.92446 27.4435 7.18905 27.1703 7.46325L23.1273 7.99411C23.0333 8.00647 22.9437 8.03833 22.8651 8.08727C22.7865 8.13621 22.7211 8.20095 22.6738 8.27658C21.954 9.42748 21.3987 10.6589 21.0216 11.9405C20.9969 12.0247 20.9933 12.1131 21.0112 12.1988C21.0291 12.2845 21.0681 12.3654 21.125 12.4352L23.5789 15.4429C23.5675 15.8114 23.5758 16.285 23.5824 16.5503L21.1261 19.5613C21.0692 19.6311 21.0303 19.7119 21.0123 19.7976C20.9944 19.8833 20.998 19.9716 21.0227 20.0558C21.3988 21.3376 21.9532 22.5693 22.6722 23.7206C22.7195 23.7963 22.7849 23.8611 22.8635 23.9101C22.9421 23.9591 23.0318 23.9909 23.1258 24.0033L27.1706 24.5343C27.4438 24.8085 27.7316 25.0731 28.0298 25.3242L28.6072 29.0414C28.6206 29.1278 28.6552 29.2103 28.7085 29.2825C28.7617 29.3547 28.8321 29.4149 28.9144 29.4584C30.1661 30.1201 31.5055 30.6307 32.8993 30.9774C32.991 31.0002 33.0871 31.0035 33.1803 30.987C33.2736 30.9705 33.3615 30.9347 33.4374 30.8823L36.7059 28.6283C37.11 28.6446 37.5169 28.6446 37.921 28.6283L41.1882 30.8814C41.2641 30.9337 41.352 30.9695 41.4452 30.986C41.5384 31.0024 41.6344 30.9992 41.7261 30.9764C43.1202 30.6306 44.46 30.1209 45.7122 29.4598C45.7945 29.4163 45.865 29.3562 45.9182 29.2839C45.9715 29.2117 46.0061 29.1292 46.0196 29.0428L46.5976 25.3207C46.8891 25.0675 47.2474 24.7272 47.4469 24.5354L51.4994 24.0032C51.5933 23.9908 51.683 23.959 51.7615 23.91C51.8401 23.8611 51.9055 23.7964 51.9528 23.7207C52.6726 22.5698 53.2279 21.3384 53.605 20.0568C53.6297 19.9726 53.6333 19.8842 53.6154 19.7985C53.5975 19.7128 53.5586 19.6319 53.5016 19.5621ZM51.0173 22.9056L47.055 23.4259C46.9147 23.4443 46.7854 23.5061 46.6882 23.601C46.681 23.608 45.9703 24.3017 45.5961 24.6062C45.4852 24.6966 45.4127 24.8203 45.3918 24.9553L44.8257 28.5995C43.8314 29.1009 42.7804 29.5007 41.6915 29.7918L38.4897 27.5839C38.3712 27.502 38.2248 27.4616 38.0768 27.47C37.5684 27.4983 37.0586 27.4983 36.5502 27.47C36.4022 27.4617 36.2558 27.5021 36.1373 27.5839L32.9343 29.7928C31.8456 29.5009 30.795 29.1003 29.8011 28.5983L29.2351 24.9555C29.2142 24.8205 29.1417 24.6968 29.0307 24.6065C28.6494 24.296 28.2889 23.9645 27.9512 23.614C27.8529 23.5119 27.7184 23.4453 27.5716 23.4261L23.608 22.9056C23.0627 21.9915 22.6278 21.0252 22.3112 20.0241L24.7127 17.0801C24.7978 16.9758 24.8417 16.8481 24.8374 16.7179C24.8371 16.7082 24.8061 15.7556 24.8365 15.297C24.8455 15.1609 24.8016 15.0263 24.7126 14.9173L22.3101 11.9725C22.6276 10.9716 23.0632 10.0056 23.6093 9.09174L27.5715 8.57155C27.7182 8.55224 27.8527 8.48562 27.951 8.38356C28.2887 8.03299 28.6492 7.70155 29.0305 7.39107C29.1415 7.30068 29.2139 7.17697 29.2349 7.04203L29.8009 3.39784C30.7952 2.89646 31.8462 2.49663 32.9351 2.20552L36.1369 4.41341C36.2556 4.49505 36.4019 4.53541 36.5498 4.52733C37.0583 4.49899 37.5681 4.49899 38.0765 4.52733C38.2244 4.53547 38.3707 4.4951 38.4894 4.41341L41.6923 2.20453C42.781 2.49643 43.8317 2.89698 44.8256 3.39903L45.3915 7.04181C45.4125 7.17677 45.4849 7.30049 45.5959 7.39086C45.9772 7.70135 46.3377 8.03279 46.6755 8.38334C46.7737 8.48539 46.9083 8.552 47.055 8.57126L51.0186 9.09167C51.564 10.0058 51.9988 10.9721 52.3155 11.9732L49.9139 14.9172C49.8289 15.0215 49.7849 15.1492 49.7892 15.2795C49.7896 15.2891 49.8205 16.2417 49.7902 16.7003C49.7812 16.8364 49.8251 16.971 49.9141 17.08L52.3165 20.0248C51.9991 21.0257 51.5634 21.9917 51.0173 22.9056Z" stroke="#716F6D" stroke-width="0.4" mask="url(#path-2-outside-1_527_726)"/>
</svg>
