<svg width="55" height="65" viewBox="0 0 55 65" fill="none" xmlns="http://www.w3.org/2000/svg">
<path d="M7.77273 52.2727C7.70455 51.697 7.42803 51.25 6.94318 50.9318C6.45833 50.6136 5.86364 50.4545 5.15909 50.4545C4.64394 50.4545 4.19318 50.5379 3.80682 50.7045C3.42424 50.8712 3.125 51.1004 2.90909 51.392C2.69697 51.6837 2.59091 52.0152 2.59091 52.3864C2.59091 52.697 2.66477 52.964 2.8125 53.1875C2.96402 53.4072 3.1572 53.5909 3.39205 53.7386C3.62689 53.8826 3.87311 54.0019 4.13068 54.0966C4.38826 54.1875 4.625 54.2614 4.84091 54.3182L6.02273 54.6364C6.32576 54.7159 6.66288 54.8258 7.03409 54.9659C7.40909 55.1061 7.76705 55.2973 8.10795 55.5398C8.45265 55.7784 8.73674 56.0852 8.96023 56.4602C9.18371 56.8352 9.29545 57.2955 9.29545 57.8409C9.29545 58.4697 9.13068 59.0379 8.80114 59.5455C8.47538 60.053 7.99811 60.4564 7.36932 60.7557C6.74432 61.0549 5.98485 61.2045 5.09091 61.2045C4.25758 61.2045 3.53598 61.0701 2.92614 60.8011C2.32008 60.5322 1.8428 60.1572 1.49432 59.6761C1.14962 59.1951 0.954545 58.6364 0.909091 58H2.36364C2.40152 58.4394 2.54924 58.803 2.80682 59.0909C3.06818 59.375 3.39773 59.5871 3.79545 59.7273C4.19697 59.8636 4.62879 59.9318 5.09091 59.9318C5.62879 59.9318 6.11174 59.8447 6.53977 59.6705C6.9678 59.4924 7.30682 59.2462 7.55682 58.9318C7.80682 58.6136 7.93182 58.2424 7.93182 57.8182C7.93182 57.4318 7.82386 57.1174 7.60795 56.875C7.39205 56.6326 7.10795 56.4356 6.75568 56.2841C6.40341 56.1326 6.02273 56 5.61364 55.8864L4.18182 55.4773C3.27273 55.2159 2.55303 54.8428 2.02273 54.358C1.49242 53.8731 1.22727 53.2386 1.22727 52.4545C1.22727 51.803 1.40341 51.2348 1.75568 50.75C2.11174 50.2614 2.58902 49.8826 3.1875 49.6136C3.78977 49.3409 4.46212 49.2045 5.20455 49.2045C5.95455 49.2045 6.62121 49.339 7.20455 49.608C7.78788 49.8731 8.25 50.2367 8.59091 50.6989C8.93561 51.161 9.11742 51.6856 9.13636 52.2727H7.77273ZM11.4304 64.2727V52.2727H12.7259V53.6591H12.8849C12.9834 53.5076 13.1198 53.3144 13.294 53.0795C13.4721 52.8409 13.7259 52.6288 14.0554 52.4432C14.3887 52.2538 14.8395 52.1591 15.4077 52.1591C16.1425 52.1591 16.7902 52.3428 17.3509 52.7102C17.9115 53.0777 18.349 53.5985 18.6634 54.2727C18.9777 54.947 19.1349 55.7424 19.1349 56.6591C19.1349 57.5833 18.9777 58.3845 18.6634 59.0625C18.349 59.7367 17.9134 60.2595 17.3565 60.6307C16.7997 60.9981 16.1577 61.1818 15.4304 61.1818C14.8698 61.1818 14.4209 61.089 14.0838 60.9034C13.7467 60.714 13.4872 60.5 13.3054 60.2614C13.1236 60.0189 12.9834 59.8182 12.8849 59.6591H12.7713V64.2727H11.4304ZM12.7486 56.6364C12.7486 57.2955 12.8452 57.8769 13.0384 58.3807C13.2315 58.8807 13.5137 59.2727 13.8849 59.5568C14.2562 59.8371 14.7107 59.9773 15.2486 59.9773C15.8092 59.9773 16.277 59.8295 16.652 59.5341C17.0308 59.2348 17.3149 58.8333 17.5043 58.3295C17.6974 57.822 17.794 57.2576 17.794 56.6364C17.794 56.0227 17.6993 55.4697 17.5099 54.9773C17.3243 54.4811 17.0421 54.089 16.6634 53.8011C16.2884 53.5095 15.8168 53.3636 15.2486 53.3636C14.7031 53.3636 14.2448 53.5019 13.8736 53.7784C13.5024 54.0511 13.2221 54.4337 13.0327 54.9261C12.8433 55.4148 12.7486 55.9848 12.7486 56.6364ZM24.7259 61.1818C23.938 61.1818 23.2467 60.9943 22.652 60.6193C22.0611 60.2443 21.599 59.7197 21.2656 59.0455C20.9361 58.3712 20.7713 57.5833 20.7713 56.6818C20.7713 55.7727 20.9361 54.9792 21.2656 54.3011C21.599 53.6231 22.0611 53.0966 22.652 52.7216C23.2467 52.3466 23.938 52.1591 24.7259 52.1591C25.5137 52.1591 26.2031 52.3466 26.794 52.7216C27.3887 53.0966 27.8509 53.6231 28.1804 54.3011C28.5137 54.9792 28.6804 55.7727 28.6804 56.6818C28.6804 57.5833 28.5137 58.3712 28.1804 59.0455C27.8509 59.7197 27.3887 60.2443 26.794 60.6193C26.2031 60.9943 25.5137 61.1818 24.7259 61.1818ZM24.7259 59.9773C25.3243 59.9773 25.8168 59.8239 26.2031 59.517C26.5895 59.2102 26.8755 58.8068 27.0611 58.3068C27.2467 57.8068 27.3395 57.2652 27.3395 56.6818C27.3395 56.0985 27.2467 55.5549 27.0611 55.0511C26.8755 54.5473 26.5895 54.1402 26.2031 53.8295C25.8168 53.5189 25.3243 53.3636 24.7259 53.3636C24.1274 53.3636 23.6349 53.5189 23.2486 53.8295C22.8622 54.1402 22.5762 54.5473 22.3906 55.0511C22.205 55.5549 22.1122 56.0985 22.1122 56.6818C22.1122 57.2652 22.205 57.8068 22.3906 58.3068C22.5762 58.8068 22.8622 59.2102 23.2486 59.517C23.6349 59.8239 24.1274 59.9773 24.7259 59.9773ZM30.7273 61V52.2727H32.0227V53.5909H32.1136C32.2727 53.1591 32.5606 52.8087 32.9773 52.5398C33.3939 52.2708 33.8636 52.1364 34.3864 52.1364C34.4848 52.1364 34.608 52.1383 34.7557 52.142C34.9034 52.1458 35.0152 52.1515 35.0909 52.1591V53.5227C35.0455 53.5114 34.9413 53.4943 34.7784 53.4716C34.6193 53.4451 34.4508 53.4318 34.2727 53.4318C33.8485 53.4318 33.4697 53.5208 33.1364 53.6989C32.8068 53.8731 32.5455 54.1155 32.3523 54.4261C32.1629 54.733 32.0682 55.0833 32.0682 55.4773V61H30.7273ZM41.0227 52.2727V53.4091H36.5V52.2727H41.0227ZM37.8182 50.1818H39.1591V58.5C39.1591 58.8788 39.214 59.1629 39.3239 59.3523C39.4375 59.5379 39.5814 59.6629 39.7557 59.7273C39.9337 59.7879 40.1212 59.8182 40.3182 59.8182C40.4659 59.8182 40.5871 59.8106 40.6818 59.7955C40.7765 59.7765 40.8523 59.7614 40.9091 59.75L41.1818 60.9545C41.0909 60.9886 40.964 61.0227 40.8011 61.0568C40.6383 61.0947 40.4318 61.1136 40.1818 61.1136C39.803 61.1136 39.4318 61.0322 39.0682 60.8693C38.7083 60.7064 38.4091 60.4583 38.1705 60.125C37.9356 59.7917 37.8182 59.3712 37.8182 58.8636V50.1818ZM49.0653 54.2273L47.8608 54.5682C47.785 54.3674 47.6733 54.1723 47.5256 53.983C47.3816 53.7898 47.1847 53.6307 46.9347 53.5057C46.6847 53.3807 46.3646 53.3182 45.9744 53.3182C45.4403 53.3182 44.9953 53.4413 44.6392 53.6875C44.2869 53.9299 44.1108 54.2386 44.1108 54.6136C44.1108 54.947 44.232 55.2102 44.4744 55.4034C44.7169 55.5966 45.0956 55.7576 45.6108 55.8864L46.9062 56.2045C47.6866 56.3939 48.268 56.6837 48.6506 57.0739C49.0331 57.4602 49.2244 57.9583 49.2244 58.5682C49.2244 59.0682 49.0805 59.5152 48.7926 59.9091C48.5085 60.303 48.1108 60.6136 47.5994 60.8409C47.0881 61.0682 46.4934 61.1818 45.8153 61.1818C44.9252 61.1818 44.1884 60.9886 43.6051 60.6023C43.0218 60.2159 42.6525 59.6515 42.4972 58.9091L43.7699 58.5909C43.8911 59.0606 44.1203 59.4129 44.4574 59.6477C44.7983 59.8826 45.2434 60 45.7926 60C46.4176 60 46.9138 59.8674 47.2812 59.6023C47.6525 59.3333 47.8381 59.0114 47.8381 58.6364C47.8381 58.3333 47.732 58.0795 47.5199 57.875C47.3078 57.6667 46.982 57.5114 46.5426 57.4091L45.0881 57.0682C44.2888 56.8788 43.7017 56.5852 43.3267 56.1875C42.9555 55.786 42.7699 55.2841 42.7699 54.6818C42.7699 54.1894 42.9081 53.7538 43.1847 53.375C43.465 52.9962 43.8456 52.6989 44.3267 52.483C44.8116 52.267 45.3608 52.1591 45.9744 52.1591C46.8381 52.1591 47.5161 52.3485 48.0085 52.7273C48.5047 53.1061 48.857 53.6061 49.0653 54.2273Z" fill="#716F6D"/>
<path d="M48 9.22453C48 6.83564 47.0715 4.67196 45.3855 3.132C43.7017 1.594 41.3369 0.746948 38.7267 0.746948C35.2219 0.746948 31.6056 2.21405 28.805 4.77196C26.2321 7.12211 24.6676 10.1019 24.4284 13.0553C24.3566 13.4777 24.2897 13.9262 24.2194 14.4003C23.8168 17.1145 23.3196 20.458 21.3299 22.5776C21.1551 22.6037 20.992 22.679 20.8652 22.7959L13.6452 29.4532C12.7849 30.2465 12.7849 31.5371 13.6452 32.3304C14.062 32.7147 14.616 32.9263 15.2054 32.9263C15.7948 32.9263 16.3489 32.7146 16.7657 32.3303L23.9843 25.6716C24.1145 25.5514 24.1928 25.4018 24.2205 25.2461C26.5192 23.4103 30.1465 22.9517 33.0908 22.5803C33.6466 22.5102 34.1715 22.444 34.6615 22.3717C34.7832 22.3537 34.8943 22.3122 34.9912 22.2537C38.0678 21.9371 41.1408 20.5344 43.59 18.2973C46.3927 15.7375 48 12.4306 48 9.22453ZM25.3456 17.7863C25.7686 18.5879 26.327 19.3138 27.0097 19.9374C27.7322 20.5974 28.5805 21.1297 29.5196 21.5229C27.3262 21.9328 25.0414 22.6045 23.2893 23.9245L22.7618 23.4381C24.1714 21.8472 24.8994 19.7803 25.3456 17.7863ZM15.5654 31.2238C15.4693 31.3125 15.3414 31.3613 15.2054 31.3613C15.0694 31.3613 14.9416 31.3125 14.8453 31.2238C14.6468 31.0408 14.6468 30.7429 14.8453 30.5599L21.4652 24.4558L22.184 25.1185L15.5654 31.2238ZM33.6694 20.7574C33.6692 20.7574 33.6687 20.7574 33.6684 20.7574C31.4771 20.7571 29.5876 20.0891 28.2041 18.8255C26.8226 17.5637 26.0925 15.8414 26.0925 13.8448C26.0925 13.6416 26.1009 13.4378 26.1159 13.2338C26.1178 13.2226 26.1197 13.2107 26.1216 13.1995C26.131 13.1459 26.1341 13.0928 26.1316 13.0406C26.3751 10.5036 27.7543 7.93458 29.9996 5.88381C32.4847 3.61386 35.6657 2.31202 38.7267 2.31202C40.9178 2.31202 42.8074 2.98004 44.1911 4.24393C45.5726 5.50579 46.3027 7.22806 46.3027 9.22461C46.3026 12.0159 44.8786 14.9177 42.3956 17.1857C39.9103 19.4556 36.73 20.7574 33.6694 20.7574Z" fill="#716F6D"/>
</svg>
