<svg width="39" height="39" viewBox="0 0 39 39" fill="none" xmlns="http://www.w3.org/2000/svg">
<path d="M38.5 18.941C38.5 29.4814 29.9934 38.0261 19.5 38.0261C9.00659 38.0261 0.5 29.4814 0.5 18.941C0.5 8.40059 9.00659 -0.144104 19.5 -0.144104C29.9934 -0.144104 38.5 8.40059 38.5 18.941Z" fill="#FFC54D"/>
<path d="M37.8647 18.9838C37.8647 28.8885 29.71 36.9679 19.6653 36.9679C9.62057 36.9679 1.46582 28.8885 1.46582 18.9838C1.46582 9.0791 9.62057 0.999695 19.6653 0.999695C29.71 0.999695 37.8647 9.0791 37.8647 18.9838ZM37.7314 18.9837C37.7314 9.11647 29.6167 1.10896 19.6653 1.10896C9.71379 1.10896 1.59913 9.11647 1.59913 18.9837C1.59913 28.8509 9.71379 36.8584 19.6653 36.8584C29.6167 36.8584 37.7314 28.8509 37.7314 18.9837Z" stroke="#FFC54D" stroke-width="2"/>
<path d="M19.5986 26.2166V25.441L18.8474 25.2481C17.4292 24.8838 16.3987 23.6259 16.3987 22.1476C16.3987 22.1277 16.4177 22.093 16.4653 22.093C16.5128 22.093 16.5319 22.1277 16.5319 22.1476C16.5319 23.874 17.9471 25.257 19.6652 25.257C21.3834 25.257 22.7985 23.8739 22.7985 22.1476C22.7985 20.4213 21.3832 19.0383 19.6652 19.0383C17.8539 19.0383 16.3987 17.5834 16.3987 15.8196C16.3987 14.3414 17.4292 13.0834 18.8473 12.7192L19.5986 12.5263V11.7506V11.6008C19.5986 11.5809 19.6176 11.5462 19.6652 11.5462C19.7127 11.5462 19.7318 11.5809 19.7318 11.6008V11.7506V12.5262L20.483 12.7192C21.9012 13.0835 22.9317 14.3414 22.9317 15.8196C22.9317 15.8395 22.9126 15.8742 22.8651 15.8742C22.8175 15.8742 22.7985 15.8395 22.7985 15.8196C22.7985 14.0933 21.3832 12.7102 19.6652 12.7102C17.9469 12.7102 16.5319 14.0935 16.5319 15.8196C16.5319 17.5459 17.9471 18.929 19.6652 18.929C21.4765 18.929 22.9317 20.3839 22.9317 22.1476C22.9317 23.6259 21.9011 24.8839 20.4831 25.248L19.7318 25.441V26.2166V26.3664C19.7318 26.3863 19.7127 26.421 19.6652 26.421C19.6176 26.421 19.5986 26.3863 19.5986 26.3664V26.2166Z" stroke="#FAFAF9" stroke-width="2"/>
<path d="M33.5982 18.9837C33.5982 26.5629 27.358 32.7491 19.6652 32.7491C11.9725 32.7491 5.73242 26.563 5.73242 18.9838C5.73242 11.4045 11.9724 5.21832 19.6652 5.21832C27.3581 5.21832 33.5982 11.4044 33.5982 18.9837ZM33.4649 18.9838C33.4649 11.4421 27.2648 5.32771 19.6652 5.32771C12.0657 5.32771 5.86561 11.4421 5.86561 18.9838C5.86561 26.5254 12.0657 32.6398 19.6652 32.6398C27.2648 32.6398 33.4649 26.5254 33.4649 18.9838Z" stroke="#FAFAF9" stroke-width="2"/>
</svg>
