<svg width="30" height="40" viewBox="0 0 30 40" fill="none" xmlns="http://www.w3.org/2000/svg">
<path d="M24.688 24.2177C23.3354 22.9459 21.7576 21.9505 20.074 21.2784C23.2279 19.397 25.3543 15.8816 25.3543 11.8642C25.3543 5.87374 20.6219 1 14.8049 1C8.98678 1 4.25345 5.87361 4.25345 11.8642C4.25345 15.9498 6.45322 19.5156 9.6963 21.3724C8.09899 22.0417 6.60291 23.0033 5.31213 24.2169C2.53133 26.8314 1 30.2519 1 33.8482V38.0349C1 38.7124 1.53315 39.2615 2.19087 39.2615H27.8091C28.4667 39.2615 29 38.7124 29 38.0349V33.8482C28.9998 30.2526 27.4684 26.8324 24.688 24.2177ZM7.38959 15.391L11.5687 9.84762L22.7019 14.0116C21.7782 17.6156 18.5883 20.2808 14.8046 20.2808C11.522 20.2809 8.68716 18.2748 7.38959 15.391Z" fill="#53BF9D"/>
<path d="M6.65125 12.3705C6.64161 12.2029 6.63518 12.0342 6.63518 11.8641C6.63506 7.22621 10.2999 3.45312 14.8048 3.45312C19.1898 3.45312 22.7774 7.03032 22.9635 11.4995L11.5666 7.23688M3.38149 36.8083V33.8481C3.38149 28.998 7.02507 24.6368 11.7449 23.2179C11.9543 23.4066 12.2277 23.5218 12.5278 23.5218H13.5112M26.618 36.8082V33.848C26.618 28.8783 22.7926 24.4217 17.9034 23.1181C17.6856 23.3655 17.372 23.5216 17.0224 23.5216H15.893M24.688 24.2177C23.3354 22.9459 21.7576 21.9505 20.074 21.2784C23.2279 19.397 25.3543 15.8816 25.3543 11.8642C25.3543 5.87374 20.6219 1 14.8049 1C8.98678 1 4.25345 5.87361 4.25345 11.8642C4.25345 15.9498 6.45321 19.5156 9.6963 21.3724C8.09899 22.0417 6.60291 23.0033 5.31213 24.2169C2.53133 26.8314 1 30.2519 1 33.8482V38.0349C1 38.7124 1.53315 39.2615 2.19087 39.2615H27.8091C28.4667 39.2615 29 38.7124 29 38.0349V33.8482C28.9998 30.2526 27.4684 26.8324 24.688 24.2177ZM7.38959 15.391L11.5687 9.84762L22.7019 14.0116C21.7782 17.6156 18.5883 20.2808 14.8046 20.2808C11.522 20.2809 8.68716 18.2748 7.38959 15.391Z" stroke="#53BF9D" stroke-width="0.1"/>
</svg>
