<svg width="481" height="300" viewBox="0 0 481 300" fill="none" xmlns="http://www.w3.org/2000/svg">
<rect x="0.5" y="0.5" width="480" height="299" fill="#D9D9D9" stroke="#D9D9D9"/>
<path d="M224 148.5V152.5H256V148.5H224Z" fill="#716F6D"/>
<path d="M224 148.5V152.5H256V148.5H240H224Z" fill="#716F6D"/>
<path d="M238 166H242V134H238V166Z" fill="#716F6D"/>
<path d="M238 166H242V134H238V150V166Z" fill="#716F6D"/>
<path d="M323.548 88.3603H279.686V85.9397C279.686 85.1376 279.036 84.4873 278.233 84.4873H271.262C270.46 84.4873 269.81 85.1376 269.81 85.9397V88.3603H265.452C264.65 88.3603 264 89.0106 264 89.8127V131.06C264 131.862 264.65 132.513 265.452 132.513H323.548C324.35 132.513 325 131.862 325 131.06V89.8127C325 89.0106 324.35 88.3603 323.548 88.3603ZM272.714 87.3921H276.781V88.3603H272.714V87.3921ZM322.095 129.608H266.905V91.2651C269.043 91.2651 319.556 91.2651 322.095 91.2651V129.608Z" fill="#716F6D"/>
<path d="M294.5 122.249C301.494 122.249 307.184 116.559 307.184 109.565C307.184 102.571 301.494 96.8809 294.5 96.8809C287.506 96.8809 281.816 102.571 281.816 109.565C281.816 116.559 287.506 122.249 294.5 122.249ZM294.5 99.7856C299.892 99.7856 304.279 104.173 304.279 109.565C304.279 114.957 299.892 119.344 294.5 119.344C289.108 119.344 284.721 114.957 284.721 109.565C284.721 104.173 289.108 99.7856 294.5 99.7856Z" fill="#716F6D"/>
<path d="M294.5 117.408C298.825 117.408 302.343 113.89 302.343 109.566C302.343 105.241 298.825 101.723 294.5 101.723C290.175 101.723 286.657 105.241 286.657 109.566C286.657 113.89 290.175 117.408 294.5 117.408ZM294.5 104.627C297.223 104.627 299.438 106.843 299.438 109.566C299.438 112.288 297.223 114.504 294.5 114.504C291.777 114.504 289.562 112.288 289.562 109.566C289.562 106.843 291.777 104.627 294.5 104.627Z" fill="#716F6D"/>
<path d="M311.541 103.272H317.738C318.54 103.272 319.19 102.621 319.19 101.819V95.6223C319.19 94.8202 318.54 94.1699 317.738 94.1699H311.541C310.739 94.1699 310.089 94.8202 310.089 95.6223V101.819C310.089 102.621 310.739 103.272 311.541 103.272ZM312.994 97.0747H316.286V100.367H312.994V97.0747Z" fill="#716F6D"/>
<path d="M271.456 122.636H277.072C277.874 122.636 278.524 121.986 278.524 121.184C278.524 120.382 277.874 119.731 277.072 119.731H271.456C270.654 119.731 270.003 120.382 270.003 121.184C270.003 121.986 270.654 122.636 271.456 122.636Z" fill="#716F6D"/>
<path d="M271.456 126.704H277.072C277.874 126.704 278.524 126.053 278.524 125.251C278.524 124.449 277.874 123.799 277.072 123.799H271.456C270.654 123.799 270.003 124.449 270.003 125.251C270.003 126.053 270.654 126.704 271.456 126.704Z" fill="#716F6D"/>
</svg>
