<svg width="34" height="55" viewBox="0 0 34 55" fill="none" xmlns="http://www.w3.org/2000/svg">
<path d="M2.88636 54H1.40909L5.68182 42.3636H7.13636L11.4091 54H9.93182L6.45455 44.2045H6.36364L2.88636 54ZM3.43182 49.4545H9.38636V50.7045H3.43182V49.4545ZM13.0398 54V45.2727H14.3352V46.5909H14.4261C14.5852 46.1591 14.8731 45.8087 15.2898 45.5398C15.7064 45.2708 16.1761 45.1364 16.6989 45.1364C16.7973 45.1364 16.9205 45.1383 17.0682 45.142C17.2159 45.1458 17.3277 45.1515 17.4034 45.1591V46.5227C17.358 46.5114 17.2538 46.4943 17.0909 46.4716C16.9318 46.4451 16.7633 46.4318 16.5852 46.4318C16.161 46.4318 15.7822 46.5208 15.4489 46.6989C15.1193 46.8731 14.858 47.1155 14.6648 47.4261C14.4754 47.733 14.3807 48.0833 14.3807 48.4773V54H13.0398ZM23.3352 45.2727V46.4091H18.8125V45.2727H23.3352ZM20.1307 43.1818H21.4716V51.5C21.4716 51.8788 21.5265 52.1629 21.6364 52.3523C21.75 52.5379 21.8939 52.6629 22.0682 52.7273C22.2462 52.7879 22.4337 52.8182 22.6307 52.8182C22.7784 52.8182 22.8996 52.8106 22.9943 52.7955C23.089 52.7765 23.1648 52.7614 23.2216 52.75L23.4943 53.9545C23.4034 53.9886 23.2765 54.0227 23.1136 54.0568C22.9508 54.0947 22.7443 54.1136 22.4943 54.1136C22.1155 54.1136 21.7443 54.0322 21.3807 53.8693C21.0208 53.7064 20.7216 53.4583 20.483 53.125C20.2481 52.7917 20.1307 52.3712 20.1307 51.8636V43.1818ZM31.3778 47.2273L30.1733 47.5682C30.0975 47.3674 29.9858 47.1723 29.8381 46.983C29.6941 46.7898 29.4972 46.6307 29.2472 46.5057C28.9972 46.3807 28.6771 46.3182 28.2869 46.3182C27.7528 46.3182 27.3078 46.4413 26.9517 46.6875C26.5994 46.9299 26.4233 47.2386 26.4233 47.6136C26.4233 47.947 26.5445 48.2102 26.7869 48.4034C27.0294 48.5966 27.4081 48.7576 27.9233 48.8864L29.2188 49.2045C29.9991 49.3939 30.5805 49.6837 30.9631 50.0739C31.3456 50.4602 31.5369 50.9583 31.5369 51.5682C31.5369 52.0682 31.393 52.5152 31.1051 52.9091C30.821 53.303 30.4233 53.6136 29.9119 53.8409C29.4006 54.0682 28.8059 54.1818 28.1278 54.1818C27.2377 54.1818 26.5009 53.9886 25.9176 53.6023C25.3343 53.2159 24.965 52.6515 24.8097 51.9091L26.0824 51.5909C26.2036 52.0606 26.4328 52.4129 26.7699 52.6477C27.1108 52.8826 27.5559 53 28.1051 53C28.7301 53 29.2263 52.8674 29.5938 52.6023C29.965 52.3333 30.1506 52.0114 30.1506 51.6364C30.1506 51.3333 30.0445 51.0795 29.8324 50.875C29.6203 50.6667 29.2945 50.5114 28.8551 50.4091L27.4006 50.0682C26.6013 49.8788 26.0142 49.5852 25.6392 49.1875C25.268 48.786 25.0824 48.2841 25.0824 47.6818C25.0824 47.1894 25.2206 46.7538 25.4972 46.375C25.7775 45.9962 26.1581 45.6989 26.6392 45.483C27.1241 45.267 27.6733 45.1591 28.2869 45.1591C29.1506 45.1591 29.8286 45.3485 30.321 45.7273C30.8172 46.1061 31.1695 46.6061 31.3778 47.2273Z" fill="#716F6D"/>
<path d="M17.7357 10.4411C15.6781 10.4411 13.9903 11.9821 13.9903 13.893C13.9903 15.8033 15.6783 17.3448 17.7357 17.3448C19.7934 17.3448 21.481 15.8033 21.481 13.893C21.481 11.982 19.7921 10.4411 17.7357 10.4411ZM17.7357 15.9259C16.5035 15.9259 15.5158 15.006 15.5158 13.8929C15.5158 12.7794 16.5035 11.8598 17.7357 11.8598C18.9677 11.8598 19.9557 12.7794 19.9557 13.8929C19.9557 15.006 18.9669 15.9259 17.7357 15.9259Z" fill="#716F6D" stroke="#716F6D" stroke-width="0.2"/>
<mask id="path-3-outside-1_527_739" maskUnits="userSpaceOnUse" x="0" y="-0.656006" width="34" height="29" fill="black">
<rect fill="white" y="-0.656006" width="34" height="29"/>
<path d="M32.9807 8.45311H22.9195L17.8923 0.632867C17.886 0.623825 17.8769 0.619477 17.8703 0.61026C17.845 0.575654 17.8119 0.547831 17.779 0.517746C17.7483 0.49027 17.7203 0.461751 17.685 0.440361C17.6748 0.433579 17.6696 0.42471 17.6583 0.41845C17.6311 0.404016 17.6006 0.402103 17.5728 0.391148C17.531 0.375149 17.4913 0.358629 17.447 0.351325C17.4045 0.343325 17.3642 0.344021 17.3209 0.344021C17.2785 0.344021 17.2373 0.343152 17.1955 0.351325C17.1512 0.359324 17.1107 0.375149 17.0689 0.391495C17.0411 0.402451 17.0112 0.40419 16.9842 0.418276C16.9734 0.424014 16.9683 0.433405 16.9583 0.439839C16.9227 0.461751 16.8942 0.490444 16.8628 0.518963C16.8304 0.549048 16.7973 0.57635 16.7727 0.61026C16.7667 0.619477 16.7569 0.623825 16.7508 0.632867L11.724 8.45311H6.54678H1.66275C1.29676 8.45311 1 8.72578 1 9.06245V22.653V26.5574C1 26.8948 1.29676 27.1669 1.66275 27.1669H21.4862H32.9805C33.3461 27.1669 33.6433 26.8949 33.6433 26.5574V15.989V9.06245C33.6433 8.72578 33.3461 8.45311 32.9807 8.45311ZM17.3216 2.1404L21.3802 8.45311H13.2632L17.3216 2.1404ZM6.3077 9.67197C6.40776 9.74448 6.50384 9.82013 6.59936 9.89647C6.70074 9.97733 6.80496 10.0559 6.90104 10.1406C7.01434 10.2413 7.11912 10.3486 7.22504 10.4552C7.31469 10.5448 7.40832 10.6326 7.49249 10.7258C7.59179 10.8367 7.68049 10.9538 7.77147 11.0689C7.84807 11.1666 7.92903 11.2609 8.0009 11.3621C8.08639 11.483 8.15978 11.6097 8.23619 11.7353C8.29899 11.8382 8.36651 11.9382 8.42363 12.0436C8.49456 12.1758 8.55282 12.3128 8.61448 12.449C8.66195 12.5549 8.71643 12.6578 8.75823 12.7658C8.81516 12.9119 8.85847 13.0637 8.90481 13.2136C8.93583 13.3158 8.97498 13.4165 9.00146 13.5207C9.04515 13.6915 9.07239 13.868 9.10152 14.0424C9.11608 14.1304 9.13935 14.2154 9.15013 14.3048C9.18304 14.5702 9.20101 14.8392 9.20101 15.1107C9.20101 15.3439 9.18701 15.5736 9.16356 15.801C9.15486 15.8772 9.13821 15.9509 9.12762 16.0271C9.10606 16.1754 9.08525 16.3248 9.05348 16.4712C9.03399 16.5599 9.00695 16.645 8.98463 16.7324C8.95058 16.8622 8.91824 16.9931 8.87587 17.1199C8.84618 17.2098 8.80892 17.2985 8.77525 17.3865C8.73004 17.5061 8.6856 17.6263 8.63377 17.7418C8.59329 17.8311 8.54771 17.9174 8.50402 18.0056C8.44841 18.1169 8.39261 18.2275 8.33076 18.3353C8.28121 18.4227 8.22617 18.506 8.17245 18.5913C8.10682 18.6942 8.04119 18.7971 7.97026 18.8971C7.912 18.9799 7.84921 19.0597 7.78604 19.1394C7.71132 19.2354 7.63491 19.3305 7.55528 19.4227C7.48833 19.5 7.41797 19.575 7.34779 19.6501C7.26438 19.7395 7.17889 19.8258 7.09094 19.9101C7.01585 19.9821 6.93906 20.0517 6.86019 20.1209C6.76864 20.2012 6.67445 20.2798 6.57818 20.3565C6.49628 20.4214 6.41249 20.4855 6.32699 20.5474C6.22769 20.6189 6.12631 20.6886 6.02285 20.757C5.93415 20.8152 5.84449 20.8718 5.75333 20.926C5.64646 20.9897 5.53714 21.0498 5.42706 21.1093C5.3323 21.1599 5.23754 21.21 5.13994 21.2559C5.02664 21.311 4.91089 21.3606 4.79457 21.41C4.69451 21.4517 4.59521 21.495 4.49232 21.5326C4.37316 21.5773 4.25059 21.6164 4.1286 21.6552C4.02476 21.6891 3.92111 21.7232 3.81443 21.7529C3.68846 21.7873 3.55928 21.8146 3.42991 21.8433C3.32285 21.8673 3.21655 21.8934 3.1078 21.9124C2.97389 21.9362 2.83751 21.9522 2.70171 21.9701C2.59352 21.9832 2.48685 22.0011 2.37752 22.0099C2.36031 22.0118 2.34253 22.0113 2.32513 22.0125V9.67075H6.30808V9.67197H6.3077ZM2.32551 23.2399C2.36731 23.2368 2.40835 23.2286 2.45015 23.2257C2.58444 23.2149 2.71571 23.1971 2.84811 23.181C3.00472 23.162 3.16038 23.1429 3.31415 23.1161C3.44485 23.0928 3.57271 23.065 3.70114 23.037C3.85226 23.0038 4.00206 22.9704 4.15016 22.9299C4.27613 22.8961 4.39926 22.8586 4.52334 22.8186C4.66841 22.7734 4.81159 22.7264 4.95288 22.6739C5.07431 22.6299 5.19214 22.5817 5.31092 22.5323C5.44881 22.4753 5.58537 22.4151 5.71966 22.3515C5.83447 22.2962 5.9472 22.2391 6.05917 22.1807C6.18949 22.1118 6.31905 22.0397 6.44559 21.9647C6.55359 21.9018 6.65951 21.8357 6.76448 21.7684C6.8878 21.6886 7.00791 21.6047 7.12555 21.5195C7.22561 21.4468 7.32529 21.3738 7.42194 21.2976C7.53656 21.2083 7.64664 21.1137 7.75596 21.0185C7.84789 20.9377 7.93943 20.8573 8.02852 20.774C8.13368 20.674 8.23355 20.5699 8.33322 20.4652C8.41682 20.3772 8.50024 20.2902 8.57892 20.1993C8.67444 20.0904 8.76409 19.9767 8.8528 19.863C8.92656 19.7696 9.00127 19.6762 9.07031 19.579C9.15505 19.4613 9.23278 19.338 9.31071 19.2154C9.37369 19.1161 9.43876 19.0185 9.49777 18.9173C9.57116 18.7893 9.63622 18.6572 9.70318 18.5257C9.755 18.4233 9.81004 18.3222 9.85695 18.2175C9.91918 18.0788 9.97081 17.9379 10.0245 17.7962C10.0643 17.6918 10.1079 17.5891 10.1439 17.4825C10.1934 17.3326 10.2318 17.1783 10.2717 17.0248C10.299 16.9218 10.3313 16.8218 10.354 16.7177C10.3918 16.5452 10.4155 16.3688 10.4414 16.1927C10.4546 16.104 10.4739 16.0165 10.4832 15.9268C10.5123 15.6583 10.5284 15.387 10.5284 15.1126C10.5284 14.8168 10.5065 14.5239 10.4734 14.2354C10.4628 14.1466 10.4469 14.0579 10.4336 13.9694C10.4028 13.7671 10.3654 13.5663 10.3181 13.3675C10.2958 13.272 10.2717 13.1767 10.246 13.0825C10.1897 12.8795 10.1235 12.6796 10.0504 12.4829C10.0226 12.4079 9.99937 12.3316 9.96892 12.2573C9.86092 11.9916 9.73949 11.7313 9.60161 11.4777C9.57664 11.4322 9.54657 11.3889 9.52103 11.3433C9.40282 11.1362 9.27572 10.934 9.13859 10.7369C9.08298 10.6571 9.0234 10.5797 8.96477 10.5023C8.8422 10.3396 8.71434 10.1815 8.57835 10.0274C8.5114 9.95125 8.44538 9.8756 8.37578 9.80135C8.33606 9.75996 8.30126 9.7144 8.26097 9.67336H32.3178V15.3983C32.2141 15.4035 32.1146 15.4192 32.0123 15.4268C31.8311 15.4393 31.6512 15.4565 31.4719 15.4767C31.2563 15.5019 31.0427 15.532 30.8303 15.5668C30.6569 15.5958 30.4848 15.6263 30.3127 15.6607C30.1003 15.7049 29.8912 15.756 29.6836 15.8101C29.519 15.8523 29.3547 15.8946 29.1941 15.9435C28.9845 16.0071 28.78 16.0791 28.5765 16.1523C28.4237 16.2069 28.2697 16.26 28.1203 16.3196C27.9138 16.4029 27.7138 16.4958 27.5132 16.5892C27.3747 16.6528 27.2329 16.7147 27.0971 16.7837C26.8898 16.8902 26.6906 17.0063 26.4897 17.1235C26.3707 17.1924 26.2478 17.258 26.1311 17.3317C25.9098 17.4705 25.6995 17.6209 25.489 17.7727C25.4022 17.8357 25.3116 17.8924 25.2268 17.9577C24.6448 18.4017 24.1077 18.8951 23.6246 19.4307C23.5535 19.5098 23.4901 19.5948 23.4201 19.6759C23.2571 19.8675 23.0939 20.0597 22.9437 20.2607C22.8633 20.3697 22.7922 20.4828 22.7158 20.594C22.5902 20.7773 22.4635 20.9599 22.3483 21.1491C22.2726 21.2749 22.2058 21.4046 22.1353 21.5324C22.0337 21.7171 21.9327 21.9007 21.8434 22.0901C21.7772 22.2282 21.7197 22.3687 21.6607 22.5095C21.5805 22.6975 21.5022 22.8857 21.433 23.0784C21.3812 23.226 21.3352 23.3754 21.2893 23.5253C21.2297 23.7174 21.1735 23.9115 21.1262 24.1085C21.0874 24.264 21.0557 24.421 21.0247 24.5781C20.9864 24.7758 20.952 24.9744 20.925 25.1751C20.9036 25.337 20.8854 25.4999 20.8713 25.6637C20.8629 25.7595 20.8453 25.8536 20.8397 25.9494H2.32551V23.2399ZM22.1828 25.9482C22.1871 25.8757 22.1879 25.803 22.1945 25.731C22.2074 25.587 22.2255 25.4443 22.245 25.3031C22.2696 25.1234 22.2987 24.9453 22.3345 24.7688C22.3617 24.6295 22.3914 24.492 22.4251 24.3551C22.4684 24.1795 22.5181 24.0063 22.5711 23.8345C22.6127 23.7016 22.6539 23.5702 22.7006 23.4404C22.7621 23.2697 22.8313 23.1011 22.9026 22.9346C22.9556 22.8102 23.0074 22.6857 23.0657 22.5638C23.1459 22.3953 23.2352 22.2318 23.3252 22.0685C23.388 21.9545 23.4474 21.8402 23.5149 21.7289C23.617 21.5609 23.7298 21.3975 23.8417 21.2349C23.9096 21.1371 23.9732 21.0366 24.0443 20.941C24.1776 20.7619 24.3227 20.5904 24.4689 20.4203C24.5296 20.3495 24.5854 20.2739 24.6482 20.2043C25.0774 19.7294 25.5537 19.2914 26.0704 18.8968C26.1479 18.8371 26.2296 18.7853 26.3085 18.7295C26.4937 18.5961 26.6789 18.4636 26.8729 18.341C26.9779 18.2755 27.0865 18.2172 27.1926 18.1548C27.37 18.0511 27.5466 17.9482 27.7312 17.8548C27.851 17.7924 27.9758 17.7381 28.0987 17.6809C28.2762 17.5971 28.4555 17.5155 28.6386 17.4406C28.7706 17.3875 28.9058 17.3399 29.0405 17.2912C29.2224 17.2263 29.405 17.1621 29.5913 17.1056C29.7324 17.0622 29.8761 17.0241 30.0199 16.9865C30.2062 16.9376 30.3946 16.8931 30.5856 16.8524C30.7344 16.821 30.8844 16.7935 31.0361 16.7681C31.2277 16.7354 31.4218 16.7084 31.6172 16.6865C31.7713 16.6685 31.9255 16.6514 32.0821 16.6399C32.1604 16.6335 32.2406 16.6328 32.3189 16.6288V25.9477H22.1826V25.9482H22.1828Z"/>
</mask>
<path d="M32.9807 8.45311H22.9195L17.8923 0.632867C17.886 0.623825 17.8769 0.619477 17.8703 0.61026C17.845 0.575654 17.8119 0.547831 17.779 0.517746C17.7483 0.49027 17.7203 0.461751 17.685 0.440361C17.6748 0.433579 17.6696 0.42471 17.6583 0.41845C17.6311 0.404016 17.6006 0.402103 17.5728 0.391148C17.531 0.375149 17.4913 0.358629 17.447 0.351325C17.4045 0.343325 17.3642 0.344021 17.3209 0.344021C17.2785 0.344021 17.2373 0.343152 17.1955 0.351325C17.1512 0.359324 17.1107 0.375149 17.0689 0.391495C17.0411 0.402451 17.0112 0.40419 16.9842 0.418276C16.9734 0.424014 16.9683 0.433405 16.9583 0.439839C16.9227 0.461751 16.8942 0.490444 16.8628 0.518963C16.8304 0.549048 16.7973 0.57635 16.7727 0.61026C16.7667 0.619477 16.7569 0.623825 16.7508 0.632867L11.724 8.45311H6.54678H1.66275C1.29676 8.45311 1 8.72578 1 9.06245V22.653V26.5574C1 26.8948 1.29676 27.1669 1.66275 27.1669H21.4862H32.9805C33.3461 27.1669 33.6433 26.8949 33.6433 26.5574V15.989V9.06245C33.6433 8.72578 33.3461 8.45311 32.9807 8.45311ZM17.3216 2.1404L21.3802 8.45311H13.2632L17.3216 2.1404ZM6.3077 9.67197C6.40776 9.74448 6.50384 9.82013 6.59936 9.89647C6.70074 9.97733 6.80496 10.0559 6.90104 10.1406C7.01434 10.2413 7.11912 10.3486 7.22504 10.4552C7.31469 10.5448 7.40832 10.6326 7.49249 10.7258C7.59179 10.8367 7.68049 10.9538 7.77147 11.0689C7.84807 11.1666 7.92903 11.2609 8.0009 11.3621C8.08639 11.483 8.15978 11.6097 8.23619 11.7353C8.29899 11.8382 8.36651 11.9382 8.42363 12.0436C8.49456 12.1758 8.55282 12.3128 8.61448 12.449C8.66195 12.5549 8.71643 12.6578 8.75823 12.7658C8.81516 12.9119 8.85847 13.0637 8.90481 13.2136C8.93583 13.3158 8.97498 13.4165 9.00146 13.5207C9.04515 13.6915 9.07239 13.868 9.10152 14.0424C9.11608 14.1304 9.13935 14.2154 9.15013 14.3048C9.18304 14.5702 9.20101 14.8392 9.20101 15.1107C9.20101 15.3439 9.18701 15.5736 9.16356 15.801C9.15486 15.8772 9.13821 15.9509 9.12762 16.0271C9.10606 16.1754 9.08525 16.3248 9.05348 16.4712C9.03399 16.5599 9.00695 16.645 8.98463 16.7324C8.95058 16.8622 8.91824 16.9931 8.87587 17.1199C8.84618 17.2098 8.80892 17.2985 8.77525 17.3865C8.73004 17.5061 8.6856 17.6263 8.63377 17.7418C8.59329 17.8311 8.54771 17.9174 8.50402 18.0056C8.44841 18.1169 8.39261 18.2275 8.33076 18.3353C8.28121 18.4227 8.22617 18.506 8.17245 18.5913C8.10682 18.6942 8.04119 18.7971 7.97026 18.8971C7.912 18.9799 7.84921 19.0597 7.78604 19.1394C7.71132 19.2354 7.63491 19.3305 7.55528 19.4227C7.48833 19.5 7.41797 19.575 7.34779 19.6501C7.26438 19.7395 7.17889 19.8258 7.09094 19.9101C7.01585 19.9821 6.93906 20.0517 6.86019 20.1209C6.76864 20.2012 6.67445 20.2798 6.57818 20.3565C6.49628 20.4214 6.41249 20.4855 6.32699 20.5474C6.22769 20.6189 6.12631 20.6886 6.02285 20.757C5.93415 20.8152 5.84449 20.8718 5.75333 20.926C5.64646 20.9897 5.53714 21.0498 5.42706 21.1093C5.3323 21.1599 5.23754 21.21 5.13994 21.2559C5.02664 21.311 4.91089 21.3606 4.79457 21.41C4.69451 21.4517 4.59521 21.495 4.49232 21.5326C4.37316 21.5773 4.25059 21.6164 4.1286 21.6552C4.02476 21.6891 3.92111 21.7232 3.81443 21.7529C3.68846 21.7873 3.55928 21.8146 3.42991 21.8433C3.32285 21.8673 3.21655 21.8934 3.1078 21.9124C2.97389 21.9362 2.83751 21.9522 2.70171 21.9701C2.59352 21.9832 2.48685 22.0011 2.37752 22.0099C2.36031 22.0118 2.34253 22.0113 2.32513 22.0125V9.67075H6.30808V9.67197H6.3077ZM2.32551 23.2399C2.36731 23.2368 2.40835 23.2286 2.45015 23.2257C2.58444 23.2149 2.71571 23.1971 2.84811 23.181C3.00472 23.162 3.16038 23.1429 3.31415 23.1161C3.44485 23.0928 3.57271 23.065 3.70114 23.037C3.85226 23.0038 4.00206 22.9704 4.15016 22.9299C4.27613 22.8961 4.39926 22.8586 4.52334 22.8186C4.66841 22.7734 4.81159 22.7264 4.95288 22.6739C5.07431 22.6299 5.19214 22.5817 5.31092 22.5323C5.44881 22.4753 5.58537 22.4151 5.71966 22.3515C5.83447 22.2962 5.9472 22.2391 6.05917 22.1807C6.18949 22.1118 6.31905 22.0397 6.44559 21.9647C6.55359 21.9018 6.65951 21.8357 6.76448 21.7684C6.8878 21.6886 7.00791 21.6047 7.12555 21.5195C7.22561 21.4468 7.32529 21.3738 7.42194 21.2976C7.53656 21.2083 7.64664 21.1137 7.75596 21.0185C7.84789 20.9377 7.93943 20.8573 8.02852 20.774C8.13368 20.674 8.23355 20.5699 8.33322 20.4652C8.41682 20.3772 8.50024 20.2902 8.57892 20.1993C8.67444 20.0904 8.76409 19.9767 8.8528 19.863C8.92656 19.7696 9.00127 19.6762 9.07031 19.579C9.15505 19.4613 9.23278 19.338 9.31071 19.2154C9.37369 19.1161 9.43876 19.0185 9.49777 18.9173C9.57116 18.7893 9.63622 18.6572 9.70318 18.5257C9.755 18.4233 9.81004 18.3222 9.85695 18.2175C9.91918 18.0788 9.97081 17.9379 10.0245 17.7962C10.0643 17.6918 10.1079 17.5891 10.1439 17.4825C10.1934 17.3326 10.2318 17.1783 10.2717 17.0248C10.299 16.9218 10.3313 16.8218 10.354 16.7177C10.3918 16.5452 10.4155 16.3688 10.4414 16.1927C10.4546 16.104 10.4739 16.0165 10.4832 15.9268C10.5123 15.6583 10.5284 15.387 10.5284 15.1126C10.5284 14.8168 10.5065 14.5239 10.4734 14.2354C10.4628 14.1466 10.4469 14.0579 10.4336 13.9694C10.4028 13.7671 10.3654 13.5663 10.3181 13.3675C10.2958 13.272 10.2717 13.1767 10.246 13.0825C10.1897 12.8795 10.1235 12.6796 10.0504 12.4829C10.0226 12.4079 9.99937 12.3316 9.96892 12.2573C9.86092 11.9916 9.73949 11.7313 9.60161 11.4777C9.57664 11.4322 9.54657 11.3889 9.52103 11.3433C9.40282 11.1362 9.27572 10.934 9.13859 10.7369C9.08298 10.6571 9.0234 10.5797 8.96477 10.5023C8.8422 10.3396 8.71434 10.1815 8.57835 10.0274C8.5114 9.95125 8.44538 9.8756 8.37578 9.80135C8.33606 9.75996 8.30126 9.7144 8.26097 9.67336H32.3178V15.3983C32.2141 15.4035 32.1146 15.4192 32.0123 15.4268C31.8311 15.4393 31.6512 15.4565 31.4719 15.4767C31.2563 15.5019 31.0427 15.532 30.8303 15.5668C30.6569 15.5958 30.4848 15.6263 30.3127 15.6607C30.1003 15.7049 29.8912 15.756 29.6836 15.8101C29.519 15.8523 29.3547 15.8946 29.1941 15.9435C28.9845 16.0071 28.78 16.0791 28.5765 16.1523C28.4237 16.2069 28.2697 16.26 28.1203 16.3196C27.9138 16.4029 27.7138 16.4958 27.5132 16.5892C27.3747 16.6528 27.2329 16.7147 27.0971 16.7837C26.8898 16.8902 26.6906 17.0063 26.4897 17.1235C26.3707 17.1924 26.2478 17.258 26.1311 17.3317C25.9098 17.4705 25.6995 17.6209 25.489 17.7727C25.4022 17.8357 25.3116 17.8924 25.2268 17.9577C24.6448 18.4017 24.1077 18.8951 23.6246 19.4307C23.5535 19.5098 23.4901 19.5948 23.4201 19.6759C23.2571 19.8675 23.0939 20.0597 22.9437 20.2607C22.8633 20.3697 22.7922 20.4828 22.7158 20.594C22.5902 20.7773 22.4635 20.9599 22.3483 21.1491C22.2726 21.2749 22.2058 21.4046 22.1353 21.5324C22.0337 21.7171 21.9327 21.9007 21.8434 22.0901C21.7772 22.2282 21.7197 22.3687 21.6607 22.5095C21.5805 22.6975 21.5022 22.8857 21.433 23.0784C21.3812 23.226 21.3352 23.3754 21.2893 23.5253C21.2297 23.7174 21.1735 23.9115 21.1262 24.1085C21.0874 24.264 21.0557 24.421 21.0247 24.5781C20.9864 24.7758 20.952 24.9744 20.925 25.1751C20.9036 25.337 20.8854 25.4999 20.8713 25.6637C20.8629 25.7595 20.8453 25.8536 20.8397 25.9494H2.32551V23.2399ZM22.1828 25.9482C22.1871 25.8757 22.1879 25.803 22.1945 25.731C22.2074 25.587 22.2255 25.4443 22.245 25.3031C22.2696 25.1234 22.2987 24.9453 22.3345 24.7688C22.3617 24.6295 22.3914 24.492 22.4251 24.3551C22.4684 24.1795 22.5181 24.0063 22.5711 23.8345C22.6127 23.7016 22.6539 23.5702 22.7006 23.4404C22.7621 23.2697 22.8313 23.1011 22.9026 22.9346C22.9556 22.8102 23.0074 22.6857 23.0657 22.5638C23.1459 22.3953 23.2352 22.2318 23.3252 22.0685C23.388 21.9545 23.4474 21.8402 23.5149 21.7289C23.617 21.5609 23.7298 21.3975 23.8417 21.2349C23.9096 21.1371 23.9732 21.0366 24.0443 20.941C24.1776 20.7619 24.3227 20.5904 24.4689 20.4203C24.5296 20.3495 24.5854 20.2739 24.6482 20.2043C25.0774 19.7294 25.5537 19.2914 26.0704 18.8968C26.1479 18.8371 26.2296 18.7853 26.3085 18.7295C26.4937 18.5961 26.6789 18.4636 26.8729 18.341C26.9779 18.2755 27.0865 18.2172 27.1926 18.1548C27.37 18.0511 27.5466 17.9482 27.7312 17.8548C27.851 17.7924 27.9758 17.7381 28.0987 17.6809C28.2762 17.5971 28.4555 17.5155 28.6386 17.4406C28.7706 17.3875 28.9058 17.3399 29.0405 17.2912C29.2224 17.2263 29.405 17.1621 29.5913 17.1056C29.7324 17.0622 29.8761 17.0241 30.0199 16.9865C30.2062 16.9376 30.3946 16.8931 30.5856 16.8524C30.7344 16.821 30.8844 16.7935 31.0361 16.7681C31.2277 16.7354 31.4218 16.7084 31.6172 16.6865C31.7713 16.6685 31.9255 16.6514 32.0821 16.6399C32.1604 16.6335 32.2406 16.6328 32.3189 16.6288V25.9477H22.1826V25.9482H22.1828Z" fill="#716F6D"/>
<path d="M32.9807 8.45311H22.9195L17.8923 0.632867C17.886 0.623825 17.8769 0.619477 17.8703 0.61026C17.845 0.575654 17.8119 0.547831 17.779 0.517746C17.7483 0.49027 17.7203 0.461751 17.685 0.440361C17.6748 0.433579 17.6696 0.42471 17.6583 0.41845C17.6311 0.404016 17.6006 0.402103 17.5728 0.391148C17.531 0.375149 17.4913 0.358629 17.447 0.351325C17.4045 0.343325 17.3642 0.344021 17.3209 0.344021C17.2785 0.344021 17.2373 0.343152 17.1955 0.351325C17.1512 0.359324 17.1107 0.375149 17.0689 0.391495C17.0411 0.402451 17.0112 0.40419 16.9842 0.418276C16.9734 0.424014 16.9683 0.433405 16.9583 0.439839C16.9227 0.461751 16.8942 0.490444 16.8628 0.518963C16.8304 0.549048 16.7973 0.57635 16.7727 0.61026C16.7667 0.619477 16.7569 0.623825 16.7508 0.632867L11.724 8.45311H6.54678H1.66275C1.29676 8.45311 1 8.72578 1 9.06245V22.653V26.5574C1 26.8948 1.29676 27.1669 1.66275 27.1669H21.4862H32.9805C33.3461 27.1669 33.6433 26.8949 33.6433 26.5574V15.989V9.06245C33.6433 8.72578 33.3461 8.45311 32.9807 8.45311ZM17.3216 2.1404L21.3802 8.45311H13.2632L17.3216 2.1404ZM6.3077 9.67197C6.40776 9.74448 6.50384 9.82013 6.59936 9.89647C6.70074 9.97733 6.80496 10.0559 6.90104 10.1406C7.01434 10.2413 7.11912 10.3486 7.22504 10.4552C7.31469 10.5448 7.40832 10.6326 7.49249 10.7258C7.59179 10.8367 7.68049 10.9538 7.77147 11.0689C7.84807 11.1666 7.92903 11.2609 8.0009 11.3621C8.08639 11.483 8.15978 11.6097 8.23619 11.7353C8.29899 11.8382 8.36651 11.9382 8.42363 12.0436C8.49456 12.1758 8.55282 12.3128 8.61448 12.449C8.66195 12.5549 8.71643 12.6578 8.75823 12.7658C8.81516 12.9119 8.85847 13.0637 8.90481 13.2136C8.93583 13.3158 8.97498 13.4165 9.00146 13.5207C9.04515 13.6915 9.07239 13.868 9.10152 14.0424C9.11608 14.1304 9.13935 14.2154 9.15013 14.3048C9.18304 14.5702 9.20101 14.8392 9.20101 15.1107C9.20101 15.3439 9.18701 15.5736 9.16356 15.801C9.15486 15.8772 9.13821 15.9509 9.12762 16.0271C9.10606 16.1754 9.08525 16.3248 9.05348 16.4712C9.03399 16.5599 9.00695 16.645 8.98463 16.7324C8.95058 16.8622 8.91824 16.9931 8.87587 17.1199C8.84618 17.2098 8.80892 17.2985 8.77525 17.3865C8.73004 17.5061 8.6856 17.6263 8.63377 17.7418C8.59329 17.8311 8.54771 17.9174 8.50402 18.0056C8.44841 18.1169 8.39261 18.2275 8.33076 18.3353C8.28121 18.4227 8.22617 18.506 8.17245 18.5913C8.10682 18.6942 8.04119 18.7971 7.97026 18.8971C7.912 18.9799 7.84921 19.0597 7.78604 19.1394C7.71132 19.2354 7.63491 19.3305 7.55528 19.4227C7.48833 19.5 7.41797 19.575 7.34779 19.6501C7.26438 19.7395 7.17889 19.8258 7.09094 19.9101C7.01585 19.9821 6.93906 20.0517 6.86019 20.1209C6.76864 20.2012 6.67445 20.2798 6.57818 20.3565C6.49628 20.4214 6.41249 20.4855 6.32699 20.5474C6.22769 20.6189 6.12631 20.6886 6.02285 20.757C5.93415 20.8152 5.84449 20.8718 5.75333 20.926C5.64646 20.9897 5.53714 21.0498 5.42706 21.1093C5.3323 21.1599 5.23754 21.21 5.13994 21.2559C5.02664 21.311 4.91089 21.3606 4.79457 21.41C4.69451 21.4517 4.59521 21.495 4.49232 21.5326C4.37316 21.5773 4.25059 21.6164 4.1286 21.6552C4.02476 21.6891 3.92111 21.7232 3.81443 21.7529C3.68846 21.7873 3.55928 21.8146 3.42991 21.8433C3.32285 21.8673 3.21655 21.8934 3.1078 21.9124C2.97389 21.9362 2.83751 21.9522 2.70171 21.9701C2.59352 21.9832 2.48685 22.0011 2.37752 22.0099C2.36031 22.0118 2.34253 22.0113 2.32513 22.0125V9.67075H6.30808V9.67197H6.3077ZM2.32551 23.2399C2.36731 23.2368 2.40835 23.2286 2.45015 23.2257C2.58444 23.2149 2.71571 23.1971 2.84811 23.181C3.00472 23.162 3.16038 23.1429 3.31415 23.1161C3.44485 23.0928 3.57271 23.065 3.70114 23.037C3.85226 23.0038 4.00206 22.9704 4.15016 22.9299C4.27613 22.8961 4.39926 22.8586 4.52334 22.8186C4.66841 22.7734 4.81159 22.7264 4.95288 22.6739C5.07431 22.6299 5.19214 22.5817 5.31092 22.5323C5.44881 22.4753 5.58537 22.4151 5.71966 22.3515C5.83447 22.2962 5.9472 22.2391 6.05917 22.1807C6.18949 22.1118 6.31905 22.0397 6.44559 21.9647C6.55359 21.9018 6.65951 21.8357 6.76448 21.7684C6.8878 21.6886 7.00791 21.6047 7.12555 21.5195C7.22561 21.4468 7.32529 21.3738 7.42194 21.2976C7.53656 21.2083 7.64664 21.1137 7.75596 21.0185C7.84789 20.9377 7.93943 20.8573 8.02852 20.774C8.13368 20.674 8.23355 20.5699 8.33322 20.4652C8.41682 20.3772 8.50024 20.2902 8.57892 20.1993C8.67444 20.0904 8.76409 19.9767 8.8528 19.863C8.92656 19.7696 9.00127 19.6762 9.07031 19.579C9.15505 19.4613 9.23278 19.338 9.31071 19.2154C9.37369 19.1161 9.43876 19.0185 9.49777 18.9173C9.57116 18.7893 9.63622 18.6572 9.70318 18.5257C9.755 18.4233 9.81004 18.3222 9.85695 18.2175C9.91918 18.0788 9.97081 17.9379 10.0245 17.7962C10.0643 17.6918 10.1079 17.5891 10.1439 17.4825C10.1934 17.3326 10.2318 17.1783 10.2717 17.0248C10.299 16.9218 10.3313 16.8218 10.354 16.7177C10.3918 16.5452 10.4155 16.3688 10.4414 16.1927C10.4546 16.104 10.4739 16.0165 10.4832 15.9268C10.5123 15.6583 10.5284 15.387 10.5284 15.1126C10.5284 14.8168 10.5065 14.5239 10.4734 14.2354C10.4628 14.1466 10.4469 14.0579 10.4336 13.9694C10.4028 13.7671 10.3654 13.5663 10.3181 13.3675C10.2958 13.272 10.2717 13.1767 10.246 13.0825C10.1897 12.8795 10.1235 12.6796 10.0504 12.4829C10.0226 12.4079 9.99937 12.3316 9.96892 12.2573C9.86092 11.9916 9.73949 11.7313 9.60161 11.4777C9.57664 11.4322 9.54657 11.3889 9.52103 11.3433C9.40282 11.1362 9.27572 10.934 9.13859 10.7369C9.08298 10.6571 9.0234 10.5797 8.96477 10.5023C8.8422 10.3396 8.71434 10.1815 8.57835 10.0274C8.5114 9.95125 8.44538 9.8756 8.37578 9.80135C8.33606 9.75996 8.30126 9.7144 8.26097 9.67336H32.3178V15.3983C32.2141 15.4035 32.1146 15.4192 32.0123 15.4268C31.8311 15.4393 31.6512 15.4565 31.4719 15.4767C31.2563 15.5019 31.0427 15.532 30.8303 15.5668C30.6569 15.5958 30.4848 15.6263 30.3127 15.6607C30.1003 15.7049 29.8912 15.756 29.6836 15.8101C29.519 15.8523 29.3547 15.8946 29.1941 15.9435C28.9845 16.0071 28.78 16.0791 28.5765 16.1523C28.4237 16.2069 28.2697 16.26 28.1203 16.3196C27.9138 16.4029 27.7138 16.4958 27.5132 16.5892C27.3747 16.6528 27.2329 16.7147 27.0971 16.7837C26.8898 16.8902 26.6906 17.0063 26.4897 17.1235C26.3707 17.1924 26.2478 17.258 26.1311 17.3317C25.9098 17.4705 25.6995 17.6209 25.489 17.7727C25.4022 17.8357 25.3116 17.8924 25.2268 17.9577C24.6448 18.4017 24.1077 18.8951 23.6246 19.4307C23.5535 19.5098 23.4901 19.5948 23.4201 19.6759C23.2571 19.8675 23.0939 20.0597 22.9437 20.2607C22.8633 20.3697 22.7922 20.4828 22.7158 20.594C22.5902 20.7773 22.4635 20.9599 22.3483 21.1491C22.2726 21.2749 22.2058 21.4046 22.1353 21.5324C22.0337 21.7171 21.9327 21.9007 21.8434 22.0901C21.7772 22.2282 21.7197 22.3687 21.6607 22.5095C21.5805 22.6975 21.5022 22.8857 21.433 23.0784C21.3812 23.226 21.3352 23.3754 21.2893 23.5253C21.2297 23.7174 21.1735 23.9115 21.1262 24.1085C21.0874 24.264 21.0557 24.421 21.0247 24.5781C20.9864 24.7758 20.952 24.9744 20.925 25.1751C20.9036 25.337 20.8854 25.4999 20.8713 25.6637C20.8629 25.7595 20.8453 25.8536 20.8397 25.9494H2.32551V23.2399ZM22.1828 25.9482C22.1871 25.8757 22.1879 25.803 22.1945 25.731C22.2074 25.587 22.2255 25.4443 22.245 25.3031C22.2696 25.1234 22.2987 24.9453 22.3345 24.7688C22.3617 24.6295 22.3914 24.492 22.4251 24.3551C22.4684 24.1795 22.5181 24.0063 22.5711 23.8345C22.6127 23.7016 22.6539 23.5702 22.7006 23.4404C22.7621 23.2697 22.8313 23.1011 22.9026 22.9346C22.9556 22.8102 23.0074 22.6857 23.0657 22.5638C23.1459 22.3953 23.2352 22.2318 23.3252 22.0685C23.388 21.9545 23.4474 21.8402 23.5149 21.7289C23.617 21.5609 23.7298 21.3975 23.8417 21.2349C23.9096 21.1371 23.9732 21.0366 24.0443 20.941C24.1776 20.7619 24.3227 20.5904 24.4689 20.4203C24.5296 20.3495 24.5854 20.2739 24.6482 20.2043C25.0774 19.7294 25.5537 19.2914 26.0704 18.8968C26.1479 18.8371 26.2296 18.7853 26.3085 18.7295C26.4937 18.5961 26.6789 18.4636 26.8729 18.341C26.9779 18.2755 27.0865 18.2172 27.1926 18.1548C27.37 18.0511 27.5466 17.9482 27.7312 17.8548C27.851 17.7924 27.9758 17.7381 28.0987 17.6809C28.2762 17.5971 28.4555 17.5155 28.6386 17.4406C28.7706 17.3875 28.9058 17.3399 29.0405 17.2912C29.2224 17.2263 29.405 17.1621 29.5913 17.1056C29.7324 17.0622 29.8761 17.0241 30.0199 16.9865C30.2062 16.9376 30.3946 16.8931 30.5856 16.8524C30.7344 16.821 30.8844 16.7935 31.0361 16.7681C31.2277 16.7354 31.4218 16.7084 31.6172 16.6865C31.7713 16.6685 31.9255 16.6514 32.0821 16.6399C32.1604 16.6335 32.2406 16.6328 32.3189 16.6288V25.9477H22.1826V25.9482H22.1828Z" stroke="#716F6D" stroke-width="0.4" mask="url(#path-3-outside-1_527_739)"/>
</svg>
