<svg width="35" height="59" viewBox="0 0 35 59" fill="none" xmlns="http://www.w3.org/2000/svg">
<path d="M3.40909 58V46.3636H7.47727C8.28788 46.3636 8.95644 46.5038 9.48295 46.7841C10.0095 47.0606 10.4015 47.4337 10.6591 47.9034C10.9167 48.3693 11.0455 48.8864 11.0455 49.4545C11.0455 49.9545 10.9564 50.3674 10.7784 50.6932C10.6042 51.0189 10.3731 51.2765 10.0852 51.4659C9.80114 51.6553 9.49242 51.7955 9.15909 51.8864V52C9.51515 52.0227 9.87311 52.1477 10.233 52.375C10.5928 52.6023 10.8939 52.928 11.1364 53.3523C11.3788 53.7765 11.5 54.2955 11.5 54.9091C11.5 55.4924 11.3674 56.017 11.1023 56.483C10.8371 56.9489 10.4186 57.3182 9.84659 57.5909C9.27462 57.8636 8.5303 58 7.61364 58H3.40909ZM4.81818 56.75H7.61364C8.53409 56.75 9.1875 56.572 9.57386 56.2159C9.96402 55.8561 10.1591 55.4205 10.1591 54.9091C10.1591 54.5152 10.0587 54.1515 9.85795 53.8182C9.6572 53.4811 9.37121 53.2121 9 53.0114C8.62879 52.8068 8.18939 52.7045 7.68182 52.7045H4.81818V56.75ZM4.81818 51.4773H7.43182C7.85606 51.4773 8.23864 51.3939 8.57955 51.2273C8.92424 51.0606 9.19697 50.8258 9.39773 50.5227C9.60227 50.2197 9.70455 49.8636 9.70455 49.4545C9.70455 48.9432 9.52652 48.5095 9.17045 48.1534C8.81439 47.7936 8.25 47.6136 7.47727 47.6136H4.81818V51.4773ZM17.4062 58H13.8153V46.3636H17.5653C18.6941 46.3636 19.66 46.5966 20.4631 47.0625C21.2661 47.5246 21.8816 48.1894 22.3097 49.0568C22.7377 49.9205 22.9517 50.9545 22.9517 52.1591C22.9517 53.3712 22.7358 54.4148 22.304 55.2898C21.8722 56.161 21.2434 56.8314 20.4176 57.3011C19.5919 57.767 18.5881 58 17.4062 58ZM15.2244 56.75H17.3153C18.2775 56.75 19.0748 56.5644 19.7074 56.1932C20.34 55.822 20.8116 55.2936 21.1222 54.608C21.4328 53.9223 21.5881 53.1061 21.5881 52.1591C21.5881 51.2197 21.4347 50.411 21.1278 49.733C20.821 49.0511 20.3627 48.5284 19.7528 48.1648C19.143 47.7973 18.3835 47.6136 17.4744 47.6136H15.2244V56.75ZM25.3153 58V46.3636H32.3381V47.6136H26.7244V51.5455H31.9744V52.7955H26.7244V56.75H32.429V58H25.3153Z" fill="#716F6D"/>
<path d="M34.2586 32.8775H0.741447C0.331983 32.8775 0 32.5455 0 32.1361C0 31.7266 0.331983 31.3946 0.741447 31.3946H34.2586C34.668 31.3946 35 31.7266 35 32.1361C35 32.5455 34.668 32.8775 34.2586 32.8775ZM32.8987 29.4981C32.4893 29.4981 32.1573 29.1661 32.1573 28.7567V12.372H13.6949C13.2854 12.372 12.9534 12.04 12.9534 11.6305C12.9534 11.2211 13.2854 10.8891 13.6949 10.8891H32.8988C33.3083 10.8891 33.6403 11.2211 33.6403 11.6305V28.7566C33.6402 29.1661 33.3083 29.4981 32.8987 29.4981ZM7.14653 29.4981C6.73706 29.4981 6.40508 29.1661 6.40508 28.7567V16.609C6.40508 16.1995 6.73706 15.8675 7.14653 15.8675C7.55599 15.8675 7.88798 16.1995 7.88798 16.609V28.7566C7.88798 29.1661 7.55599 29.4981 7.14653 29.4981ZM29.7485 28.0222H26.7286C26.3191 28.0222 25.9872 27.6902 25.9872 27.2807V22.9681C25.9872 22.5586 26.3191 22.2266 26.7286 22.2266H29.7485C30.158 22.2266 30.49 22.5586 30.49 22.9681V27.2807C30.49 27.6903 30.158 28.0222 29.7485 28.0222ZM27.4701 26.5393H29.0071V23.7095H27.4701V26.5393ZM23.6967 28.0222H20.6768C20.2674 28.0222 19.9354 27.6902 19.9354 27.2807V22.9681C19.9354 22.5586 20.2674 22.2266 20.6768 22.2266H23.6967C24.1062 22.2266 24.4382 22.5586 24.4382 22.9681V27.2807C24.4382 27.6903 24.1062 28.0222 23.6967 28.0222ZM21.4183 26.5393H22.9553V23.7095H21.4183V26.5393ZM17.6449 28.0222H14.6249C14.2154 28.0222 13.8834 27.6902 13.8834 27.2807V22.9681C13.8834 22.5586 14.2154 22.2266 14.6249 22.2266H17.6449C18.0543 22.2266 18.3863 22.5586 18.3863 22.9681V27.2807C18.3863 27.6903 18.0543 28.0222 17.6449 28.0222ZM15.3663 26.5393H16.9034V23.7095H15.3663V26.5393ZM3.86711 24.9655C3.62567 24.9655 3.38888 24.8478 3.24652 24.6308C2.78515 23.9276 2.52528 23.1206 2.48932 22.2849C0.981768 21.4832 0 19.887 0 18.164C0 16.441 0.981768 14.8449 2.48922 14.043C2.59479 11.5656 4.6434 9.58247 7.14653 9.58247C9.64956 9.58247 11.6981 11.5655 11.8037 14.0429C13.3113 14.8447 14.2931 16.4409 14.2931 18.1639C14.2931 19.8868 13.3112 21.4831 11.8036 22.2848C11.7679 23.1164 11.51 23.9203 11.0526 24.6212C10.8288 24.9642 10.3694 25.0608 10.0265 24.837C9.68357 24.6132 9.58691 24.1538 9.81073 23.8109C10.1473 23.2952 10.3251 22.698 10.3251 22.0839C10.3251 22.0136 10.3225 21.9419 10.3172 21.865C10.295 21.5424 10.4844 21.2425 10.7854 21.124C11.9964 20.6474 12.8102 19.4577 12.8102 18.1639C12.8102 16.8701 11.9964 15.6803 10.7854 15.2038C10.4844 15.0853 10.2949 14.7855 10.3172 14.4628C10.3225 14.3858 10.3251 14.3142 10.3251 14.2439C10.3251 12.4912 8.89922 11.0653 7.14662 11.0653C5.39393 11.0653 3.96795 12.4912 3.96795 14.2439C3.96795 14.3148 3.97054 14.3883 3.97573 14.4624C3.99816 14.7852 3.80872 15.0852 3.5076 15.2038C2.29654 15.6805 1.48289 16.8701 1.48289 18.164C1.48289 19.458 2.29654 20.6475 3.5076 21.1241C3.80853 21.2426 3.99807 21.5424 3.97573 21.8651C3.97045 21.942 3.96785 22.0137 3.96785 22.084C3.96785 22.7009 4.14719 23.3003 4.4864 23.8173C4.71106 24.1597 4.6156 24.6194 4.27324 24.844C4.14775 24.9263 4.00669 24.9655 3.86711 24.9655ZM29.7485 20.2672H26.7286C26.3191 20.2672 25.9872 19.9352 25.9872 19.5257V15.2131C25.9872 14.8036 26.3191 14.4717 26.7286 14.4717H29.7485C30.158 14.4717 30.49 14.8036 30.49 15.2131V19.5257C30.49 19.9352 30.158 20.2672 29.7485 20.2672ZM27.4701 18.7843H29.0071V15.9546H27.4701V18.7843ZM23.6967 20.2672H20.6768C20.2674 20.2672 19.9354 19.9352 19.9354 19.5257V15.2131C19.9354 14.8036 20.2674 14.4717 20.6768 14.4717H23.6967C24.1062 14.4717 24.4382 14.8036 24.4382 15.2131V19.5257C24.4382 19.9352 24.1062 20.2672 23.6967 20.2672ZM21.4183 18.7843H22.9553V15.9546H21.4183V18.7843ZM17.6449 20.2672H16.2405C15.831 20.2672 15.499 19.9352 15.499 19.5257C15.499 19.1163 15.831 18.7843 16.2405 18.7843H16.9034V15.9546H16.2405C15.831 15.9546 15.499 15.6226 15.499 15.2131C15.499 14.8036 15.831 14.4717 16.2405 14.4717H17.6449C18.0543 14.4717 18.3863 14.8036 18.3863 15.2131V19.5257C18.3863 19.9352 18.0543 20.2672 17.6449 20.2672ZM30.7218 9.55078C30.3123 9.55078 29.9803 9.21879 29.9803 8.80933V3.60539H19.4418V8.80933C19.4418 9.21879 19.1098 9.55078 18.7003 9.55078C18.2908 9.55078 17.9589 9.21879 17.9589 8.80933V2.86394C17.9589 2.45448 18.2908 2.1225 18.7003 2.1225H30.7218C31.1312 2.1225 31.4632 2.45448 31.4632 2.86394V8.80933C31.4632 9.21889 31.1313 9.55078 30.7218 9.55078ZM27.6373 8.34389C27.2279 8.34389 26.8959 8.0119 26.8959 7.60244V6.1607C26.8959 5.75123 27.2279 5.41925 27.6373 5.41925C28.0468 5.41925 28.3788 5.75123 28.3788 6.1607V7.60235C28.3788 8.0119 28.0468 8.34389 27.6373 8.34389ZM24.7109 8.34389C24.3015 8.34389 23.9695 8.0119 23.9695 7.60244V6.1607C23.9695 5.75123 24.3015 5.41925 24.7109 5.41925C25.1204 5.41925 25.4524 5.75123 25.4524 6.1607V7.60235C25.4524 8.0119 25.1204 8.34389 24.7109 8.34389ZM21.7848 8.34389C21.3754 8.34389 21.0434 8.0119 21.0434 7.60244V6.1607C21.0434 5.75123 21.3754 5.41925 21.7848 5.41925C22.1943 5.41925 22.5263 5.75123 22.5263 6.1607V7.60235C22.5263 8.0119 22.1943 8.34389 21.7848 8.34389Z" fill="#716F6D"/>
</svg>
