<svg width="97" height="61" viewBox="0 0 97 61" fill="none" xmlns="http://www.w3.org/2000/svg">
<path d="M10.7727 52H9.36364C9.2803 51.5947 9.13447 51.2386 8.92614 50.9318C8.72159 50.625 8.47159 50.3674 8.17614 50.1591C7.88447 49.947 7.56061 49.7879 7.20455 49.6818C6.84849 49.5758 6.47727 49.5227 6.09091 49.5227C5.38636 49.5227 4.74811 49.7008 4.17614 50.0568C3.60795 50.4129 3.1553 50.9375 2.81818 51.6307C2.48485 52.3239 2.31818 53.1742 2.31818 54.1818C2.31818 55.1894 2.48485 56.0398 2.81818 56.733C3.1553 57.4261 3.60795 57.9508 4.17614 58.3068C4.74811 58.6629 5.38636 58.8409 6.09091 58.8409C6.47727 58.8409 6.84849 58.7879 7.20455 58.6818C7.56061 58.5758 7.88447 58.4186 8.17614 58.2102C8.47159 57.9981 8.72159 57.7386 8.92614 57.4318C9.13447 57.1212 9.2803 56.7652 9.36364 56.3636H10.7727C10.6667 56.9583 10.4735 57.4905 10.1932 57.9602C9.91288 58.4299 9.56439 58.8295 9.14773 59.1591C8.73106 59.4848 8.26326 59.733 7.74432 59.9034C7.22917 60.0739 6.67803 60.1591 6.09091 60.1591C5.09849 60.1591 4.21591 59.9167 3.44318 59.4318C2.67045 58.947 2.0625 58.2576 1.61932 57.3636C1.17614 56.4697 0.954545 55.4091 0.954545 54.1818C0.954545 52.9545 1.17614 51.8939 1.61932 51C2.0625 50.1061 2.67045 49.4167 3.44318 48.9318C4.21591 48.447 5.09849 48.2045 6.09091 48.2045C6.67803 48.2045 7.22917 48.2898 7.74432 48.4602C8.26326 48.6307 8.73106 48.8807 9.14773 49.2102C9.56439 49.536 9.91288 49.9337 10.1932 50.4034C10.4735 50.8693 10.6667 51.4015 10.7727 52ZM16.4134 60.1818C15.6255 60.1818 14.9342 59.9943 14.3395 59.6193C13.7486 59.2443 13.2865 58.7197 12.9531 58.0455C12.6236 57.3712 12.4588 56.5833 12.4588 55.6818C12.4588 54.7727 12.6236 53.9792 12.9531 53.3011C13.2865 52.6231 13.7486 52.0966 14.3395 51.7216C14.9342 51.3466 15.6255 51.1591 16.4134 51.1591C17.2012 51.1591 17.8906 51.3466 18.4815 51.7216C19.0762 52.0966 19.5384 52.6231 19.8679 53.3011C20.2012 53.9792 20.3679 54.7727 20.3679 55.6818C20.3679 56.5833 20.2012 57.3712 19.8679 58.0455C19.5384 58.7197 19.0762 59.2443 18.4815 59.6193C17.8906 59.9943 17.2012 60.1818 16.4134 60.1818ZM16.4134 58.9773C17.0118 58.9773 17.5043 58.8239 17.8906 58.517C18.277 58.2102 18.563 57.8068 18.7486 57.3068C18.9342 56.8068 19.027 56.2652 19.027 55.6818C19.027 55.0985 18.9342 54.5549 18.7486 54.0511C18.563 53.5473 18.277 53.1402 17.8906 52.8295C17.5043 52.5189 17.0118 52.3636 16.4134 52.3636C15.8149 52.3636 15.3224 52.5189 14.9361 52.8295C14.5497 53.1402 14.2637 53.5473 14.0781 54.0511C13.8925 54.5549 13.7997 55.0985 13.7997 55.6818C13.7997 56.2652 13.8925 56.8068 14.0781 57.3068C14.2637 57.8068 14.5497 58.2102 14.9361 58.517C15.3224 58.8239 15.8149 58.9773 16.4134 58.9773ZM23.7557 54.75V60H22.4148V51.2727H23.7102V52.6364H23.8239C24.0284 52.1932 24.339 51.8371 24.7557 51.5682C25.1723 51.2955 25.7102 51.1591 26.3693 51.1591C26.9602 51.1591 27.4773 51.2803 27.9205 51.5227C28.3636 51.7614 28.7083 52.125 28.9545 52.6136C29.2008 53.0985 29.3239 53.7121 29.3239 54.4545V60H27.983V54.5455C27.983 53.8598 27.8049 53.3258 27.4489 52.9432C27.0928 52.5568 26.6042 52.3636 25.983 52.3636C25.5549 52.3636 25.1723 52.4564 24.8352 52.642C24.5019 52.8277 24.2386 53.0985 24.0455 53.4545C23.8523 53.8106 23.7557 54.2424 23.7557 54.75ZM35.6605 51.2727V52.4091H30.956V51.2727H35.6605ZM32.3651 60V50.0682C32.3651 49.5682 32.4825 49.1515 32.7173 48.8182C32.9522 48.4848 33.2571 48.2348 33.6321 48.0682C34.0071 47.9015 34.4029 47.8182 34.8196 47.8182C35.1491 47.8182 35.4181 47.8447 35.6264 47.8977C35.8348 47.9508 35.9901 48 36.0923 48.0455L35.706 49.2045C35.6378 49.1818 35.5431 49.1534 35.4219 49.1193C35.3045 49.0852 35.1491 49.0682 34.956 49.0682C34.5128 49.0682 34.1927 49.1799 33.9957 49.4034C33.8026 49.6269 33.706 49.9545 33.706 50.3864V60H32.3651ZM40.8395 60.1818C39.9986 60.1818 39.2732 59.9962 38.6634 59.625C38.0573 59.25 37.5895 58.7273 37.2599 58.0568C36.9342 57.3826 36.7713 56.5985 36.7713 55.7045C36.7713 54.8106 36.9342 54.0227 37.2599 53.3409C37.5895 52.6553 38.0478 52.1212 38.6349 51.7386C39.2259 51.3523 39.9152 51.1591 40.7031 51.1591C41.1577 51.1591 41.6065 51.2348 42.0497 51.3864C42.4929 51.5379 42.8963 51.7841 43.2599 52.125C43.6236 52.4621 43.9134 52.9091 44.1293 53.4659C44.3452 54.0227 44.4531 54.7083 44.4531 55.5227V56.0909H37.7259V54.9318H43.0895C43.0895 54.4394 42.991 54 42.794 53.6136C42.6009 53.2273 42.3243 52.9223 41.9645 52.6989C41.6084 52.4754 41.188 52.3636 40.7031 52.3636C40.169 52.3636 39.7069 52.4962 39.3168 52.7614C38.9304 53.0227 38.633 53.3636 38.4247 53.7841C38.2164 54.2045 38.1122 54.6553 38.1122 55.1364V55.9091C38.1122 56.5682 38.2259 57.1269 38.4531 57.5852C38.6842 58.0398 39.0043 58.3864 39.4134 58.625C39.8224 58.8598 40.2978 58.9773 40.8395 58.9773C41.1918 58.9773 41.5099 58.928 41.794 58.8295C42.0819 58.7273 42.33 58.5758 42.5384 58.375C42.7467 58.1705 42.9077 57.9167 43.0213 57.6136L44.3168 57.9773C44.1804 58.4167 43.9512 58.803 43.6293 59.1364C43.3073 59.4659 42.9096 59.7235 42.4361 59.9091C41.9626 60.0909 41.4304 60.1818 40.8395 60.1818ZM40.0213 50.0909L41.4077 47.4545H42.9759L41.2031 50.0909H40.0213ZM46.4929 60V51.2727H47.7884V52.5909H47.8793C48.0384 52.1591 48.3262 51.8087 48.7429 51.5398C49.1596 51.2708 49.6293 51.1364 50.152 51.1364C50.2505 51.1364 50.3736 51.1383 50.5213 51.142C50.669 51.1458 50.7808 51.1515 50.8565 51.1591V52.5227C50.8111 52.5114 50.7069 52.4943 50.544 52.4716C50.3849 52.4451 50.2164 52.4318 50.0384 52.4318C49.6141 52.4318 49.2353 52.5208 48.902 52.6989C48.5724 52.8731 48.3111 53.1155 48.1179 53.4261C47.9285 53.733 47.8338 54.0833 47.8338 54.4773V60H46.4929ZM55.8395 60.1818C54.9986 60.1818 54.2732 59.9962 53.6634 59.625C53.0573 59.25 52.5895 58.7273 52.2599 58.0568C51.9342 57.3826 51.7713 56.5985 51.7713 55.7045C51.7713 54.8106 51.9342 54.0227 52.2599 53.3409C52.5895 52.6553 53.0478 52.1212 53.6349 51.7386C54.2259 51.3523 54.9152 51.1591 55.7031 51.1591C56.1577 51.1591 56.6065 51.2348 57.0497 51.3864C57.4929 51.5379 57.8963 51.7841 58.2599 52.125C58.6236 52.4621 58.9134 52.9091 59.1293 53.4659C59.3452 54.0227 59.4531 54.7083 59.4531 55.5227V56.0909H52.7259V54.9318H58.0895C58.0895 54.4394 57.991 54 57.794 53.6136C57.6009 53.2273 57.3243 52.9223 56.9645 52.6989C56.6084 52.4754 56.188 52.3636 55.7031 52.3636C55.169 52.3636 54.7069 52.4962 54.3168 52.7614C53.9304 53.0227 53.633 53.3636 53.4247 53.7841C53.2164 54.2045 53.1122 54.6553 53.1122 55.1364V55.9091C53.1122 56.5682 53.2259 57.1269 53.4531 57.5852C53.6842 58.0398 54.0043 58.3864 54.4134 58.625C54.8224 58.8598 55.2978 58.9773 55.8395 58.9773C56.1918 58.9773 56.5099 58.928 56.794 58.8295C57.0819 58.7273 57.33 58.5758 57.5384 58.375C57.7467 58.1705 57.9077 57.9167 58.0213 57.6136L59.3168 57.9773C59.1804 58.4167 58.9512 58.803 58.6293 59.1364C58.3073 59.4659 57.9096 59.7235 57.4361 59.9091C56.9626 60.0909 56.4304 60.1818 55.8395 60.1818ZM62.8338 54.75V60H61.4929V51.2727H62.7884V52.6364H62.902C63.1065 52.1932 63.4171 51.8371 63.8338 51.5682C64.2505 51.2955 64.7884 51.1591 65.4474 51.1591C66.0384 51.1591 66.5554 51.2803 66.9986 51.5227C67.4418 51.7614 67.7865 52.125 68.0327 52.6136C68.2789 53.0985 68.402 53.7121 68.402 54.4545V60H67.0611V54.5455C67.0611 53.8598 66.883 53.3258 66.527 52.9432C66.1709 52.5568 65.6823 52.3636 65.0611 52.3636C64.633 52.3636 64.2505 52.4564 63.9134 52.642C63.58 52.8277 63.3168 53.0985 63.1236 53.4545C62.9304 53.8106 62.8338 54.2424 62.8338 54.75ZM74.3977 60.1818C73.5795 60.1818 72.875 59.9886 72.2841 59.6023C71.6932 59.2159 71.2386 58.6837 70.9205 58.0057C70.6023 57.3277 70.4432 56.553 70.4432 55.6818C70.4432 54.7955 70.6061 54.0133 70.9318 53.3352C71.2614 52.6534 71.7197 52.1212 72.3068 51.7386C72.8977 51.3523 73.5871 51.1591 74.375 51.1591C74.9886 51.1591 75.5417 51.2727 76.0341 51.5C76.5265 51.7273 76.9299 52.0455 77.2443 52.4545C77.5587 52.8636 77.7538 53.3409 77.8295 53.8864H76.4886C76.3864 53.4886 76.1591 53.1364 75.8068 52.8295C75.4583 52.5189 74.9886 52.3636 74.3977 52.3636C73.875 52.3636 73.4167 52.5 73.0227 52.7727C72.6326 53.0417 72.3277 53.4223 72.108 53.9148C71.892 54.4034 71.7841 54.9773 71.7841 55.6364C71.7841 56.3106 71.8902 56.8977 72.1023 57.3977C72.3182 57.8977 72.6212 58.286 73.0114 58.5625C73.4053 58.839 73.8674 58.9773 74.3977 58.9773C74.7462 58.9773 75.0625 58.9167 75.3466 58.7955C75.6307 58.6742 75.8712 58.5 76.0682 58.2727C76.2652 58.0455 76.4053 57.7727 76.4886 57.4545H77.8295C77.7538 57.9697 77.5663 58.4337 77.267 58.8466C76.9716 59.2557 76.5795 59.5814 76.0909 59.8239C75.6061 60.0625 75.0417 60.1818 74.3977 60.1818ZM83.4489 60.1818C82.608 60.1818 81.8826 59.9962 81.2727 59.625C80.6667 59.25 80.1989 58.7273 79.8693 58.0568C79.5436 57.3826 79.3807 56.5985 79.3807 55.7045C79.3807 54.8106 79.5436 54.0227 79.8693 53.3409C80.1989 52.6553 80.6572 52.1212 81.2443 51.7386C81.8352 51.3523 82.5246 51.1591 83.3125 51.1591C83.767 51.1591 84.2159 51.2348 84.6591 51.3864C85.1023 51.5379 85.5057 51.7841 85.8693 52.125C86.233 52.4621 86.5227 52.9091 86.7386 53.4659C86.9545 54.0227 87.0625 54.7083 87.0625 55.5227V56.0909H80.3352V54.9318H85.6989C85.6989 54.4394 85.6004 54 85.4034 53.6136C85.2102 53.2273 84.9337 52.9223 84.5739 52.6989C84.2178 52.4754 83.7973 52.3636 83.3125 52.3636C82.7784 52.3636 82.3163 52.4962 81.9261 52.7614C81.5398 53.0227 81.2424 53.3636 81.0341 53.7841C80.8258 54.2045 80.7216 54.6553 80.7216 55.1364V55.9091C80.7216 56.5682 80.8352 57.1269 81.0625 57.5852C81.2936 58.0398 81.6136 58.3864 82.0227 58.625C82.4318 58.8598 82.9072 58.9773 83.4489 58.9773C83.8011 58.9773 84.1193 58.928 84.4034 58.8295C84.6913 58.7273 84.9394 58.5758 85.1477 58.375C85.3561 58.1705 85.517 57.9167 85.6307 57.6136L86.9261 57.9773C86.7898 58.4167 86.5606 58.803 86.2386 59.1364C85.9167 59.4659 85.5189 59.7235 85.0455 59.9091C84.572 60.0909 84.0398 60.1818 83.4489 60.1818ZM95.2841 53.2273L94.0795 53.5682C94.0038 53.3674 93.892 53.1723 93.7443 52.983C93.6004 52.7898 93.4034 52.6307 93.1534 52.5057C92.9034 52.3807 92.5833 52.3182 92.1932 52.3182C91.6591 52.3182 91.214 52.4413 90.858 52.6875C90.5057 52.9299 90.3295 53.2386 90.3295 53.6136C90.3295 53.947 90.4508 54.2102 90.6932 54.4034C90.9356 54.5966 91.3144 54.7576 91.8295 54.8864L93.125 55.2045C93.9053 55.3939 94.4867 55.6837 94.8693 56.0739C95.2519 56.4602 95.4432 56.9583 95.4432 57.5682C95.4432 58.0682 95.2992 58.5152 95.0114 58.9091C94.7273 59.303 94.3295 59.6136 93.8182 59.8409C93.3068 60.0682 92.7121 60.1818 92.0341 60.1818C91.1439 60.1818 90.4072 59.9886 89.8239 59.6023C89.2405 59.2159 88.8712 58.6515 88.7159 57.9091L89.9886 57.5909C90.1098 58.0606 90.339 58.4129 90.6761 58.6477C91.017 58.8826 91.4621 59 92.0114 59C92.6364 59 93.1326 58.8674 93.5 58.6023C93.8712 58.3333 94.0568 58.0114 94.0568 57.6364C94.0568 57.3333 93.9508 57.0795 93.7386 56.875C93.5265 56.6667 93.2008 56.5114 92.7614 56.4091L91.3068 56.0682C90.5076 55.8788 89.9205 55.5852 89.5455 55.1875C89.1742 54.786 88.9886 54.2841 88.9886 53.6818C88.9886 53.1894 89.1269 52.7538 89.4034 52.375C89.6837 51.9962 90.0644 51.6989 90.5455 51.483C91.0303 51.267 91.5795 51.1591 92.1932 51.1591C93.0568 51.1591 93.7348 51.3485 94.2273 51.7273C94.7235 52.1061 95.0758 52.6061 95.2841 53.2273Z" fill="#716F6D"/>
<path d="M48.0938 20.7375C51.4154 20.7375 54.1375 18.1845 54.1375 15.022V6.51543C54.1375 3.35298 51.4154 0.8 48.0938 0.8C44.7721 0.8 42.05 3.35298 42.05 6.51543V15.022C42.05 18.1845 44.7721 20.7375 48.0938 20.7375ZM43.5125 6.51543C43.5125 4.13307 45.558 2.17687 48.0938 2.17687C50.6295 2.17687 52.675 4.13307 52.675 6.51543V15.022C52.675 17.4044 50.6295 19.3606 48.0938 19.3606C45.558 19.3606 43.5125 17.4044 43.5125 15.022V6.51543Z" fill="#716F6D" stroke="#716F6D" stroke-width="0.4"/>
<path d="M57.6562 13.0109C57.2686 13.0109 56.925 13.3037 56.925 13.6994V15.474C56.925 20.0293 52.9752 23.7565 48.0938 23.7565C43.2123 23.7565 39.2625 20.0293 39.2625 15.474V13.6994C39.2625 13.3037 38.9189 13.0109 38.5312 13.0109C38.1436 13.0109 37.8 13.3037 37.8 13.6994V15.474C37.8 20.58 42.0393 24.7433 47.3625 25.0969V31.0831H42.25C41.8623 31.0831 41.5187 31.3759 41.5187 31.7715C41.5187 32.1673 41.8624 32.46 42.25 32.46H53.9375C54.3251 32.46 54.6688 32.1673 54.6688 31.7715C54.6688 31.3759 54.3252 31.0831 53.9375 31.0831H48.825V25.0969C54.1482 24.7433 58.3875 20.58 58.3875 15.474V13.6994C58.3875 13.3037 58.0439 13.0109 57.6562 13.0109Z" fill="#716F6D" stroke="#716F6D" stroke-width="0.4"/>
</svg>
