<svg width="76" height="59" viewBox="0 0 76 59" fill="none" xmlns="http://www.w3.org/2000/svg">
<path d="M1.40909 58V46.3636H8.43182V47.6136H2.81818V51.5455H8.06818V52.7955H2.81818V56.75H8.52273V58H1.40909ZM14.0852 58.1818C13.358 58.1818 12.7159 57.9981 12.1591 57.6307C11.6023 57.2595 11.1667 56.7367 10.8523 56.0625C10.5379 55.3845 10.3807 54.5833 10.3807 53.6591C10.3807 52.7424 10.5379 51.947 10.8523 51.2727C11.1667 50.5985 11.6042 50.0777 12.1648 49.7102C12.7254 49.3428 13.3731 49.1591 14.108 49.1591C14.6761 49.1591 15.125 49.2538 15.4545 49.4432C15.7879 49.6288 16.0417 49.8409 16.2159 50.0795C16.3939 50.3144 16.5322 50.5076 16.6307 50.6591H16.7443V46.3636H18.0852V58H16.7898V56.6591H16.6307C16.5322 56.8182 16.392 57.0189 16.2102 57.2614C16.0284 57.5 15.7689 57.714 15.4318 57.9034C15.0947 58.089 14.6458 58.1818 14.0852 58.1818ZM14.267 56.9773C14.8049 56.9773 15.2595 56.8371 15.6307 56.5568C16.0019 56.2727 16.2841 55.8807 16.4773 55.3807C16.6705 54.8769 16.767 54.2955 16.767 53.6364C16.767 52.9848 16.6723 52.4148 16.483 51.9261C16.2936 51.4337 16.0133 51.0511 15.642 50.7784C15.2708 50.5019 14.8125 50.3636 14.267 50.3636C13.6989 50.3636 13.2254 50.5095 12.8466 50.8011C12.4716 51.089 12.1894 51.4811 12 51.9773C11.8144 52.4697 11.7216 53.0227 11.7216 53.6364C11.7216 54.2576 11.8163 54.822 12.0057 55.3295C12.1989 55.8333 12.483 56.2348 12.858 56.5341C13.2367 56.8295 13.7064 56.9773 14.267 56.9773ZM26.2273 54.4318V49.2727H27.5682V58H26.2273V56.5227H26.1364C25.9318 56.9659 25.6136 57.3428 25.1818 57.6534C24.75 57.9602 24.2045 58.1136 23.5455 58.1136C23 58.1136 22.5152 57.9943 22.0909 57.7557C21.6667 57.5133 21.3333 57.1496 21.0909 56.6648C20.8485 56.1761 20.7273 55.5606 20.7273 54.8182V49.2727H22.0682V54.7273C22.0682 55.3636 22.2462 55.8712 22.6023 56.25C22.9621 56.6288 23.4205 56.8182 23.9773 56.8182C24.3106 56.8182 24.6496 56.733 24.9943 56.5625C25.3428 56.392 25.6345 56.1307 25.8693 55.7784C26.108 55.4261 26.2273 54.9773 26.2273 54.4318ZM33.5696 58.1818C32.7514 58.1818 32.0469 57.9886 31.456 57.6023C30.8651 57.2159 30.4105 56.6837 30.0923 56.0057C29.7741 55.3277 29.6151 54.553 29.6151 53.6818C29.6151 52.7955 29.7779 52.0133 30.1037 51.3352C30.4332 50.6534 30.8916 50.1212 31.4787 49.7386C32.0696 49.3523 32.759 49.1591 33.5469 49.1591C34.1605 49.1591 34.7135 49.2727 35.206 49.5C35.6984 49.7273 36.1018 50.0455 36.4162 50.4545C36.7306 50.8636 36.9257 51.3409 37.0014 51.8864H35.6605C35.5582 51.4886 35.331 51.1364 34.9787 50.8295C34.6302 50.5189 34.1605 50.3636 33.5696 50.3636C33.0469 50.3636 32.5885 50.5 32.1946 50.7727C31.8045 51.0417 31.4995 51.4223 31.2798 51.9148C31.0639 52.4034 30.956 52.9773 30.956 53.6364C30.956 54.3106 31.062 54.8977 31.2741 55.3977C31.4901 55.8977 31.7931 56.286 32.1832 56.5625C32.5772 56.839 33.0393 56.9773 33.5696 56.9773C33.9181 56.9773 34.2344 56.9167 34.5185 56.7955C34.8026 56.6742 35.0431 56.5 35.2401 56.2727C35.437 56.0455 35.5772 55.7727 35.6605 55.4545H37.0014C36.9257 55.9697 36.7382 56.4337 36.4389 56.8466C36.1435 57.2557 35.7514 57.5814 35.2628 57.8239C34.7779 58.0625 34.2135 58.1818 33.5696 58.1818ZM41.5298 58.2045C40.9768 58.2045 40.4749 58.1004 40.0241 57.892C39.5734 57.6799 39.2154 57.375 38.9503 56.9773C38.6851 56.5758 38.5526 56.0909 38.5526 55.5227C38.5526 55.0227 38.651 54.6174 38.848 54.3068C39.045 53.9924 39.3082 53.7462 39.6378 53.5682C39.9673 53.3902 40.331 53.2576 40.7287 53.1705C41.1302 53.0795 41.5336 53.0076 41.9389 52.9545C42.4692 52.8864 42.8991 52.8352 43.2287 52.8011C43.562 52.7633 43.8045 52.7008 43.956 52.6136C44.1113 52.5265 44.1889 52.375 44.1889 52.1591V52.1136C44.1889 51.553 44.0355 51.1174 43.7287 50.8068C43.4257 50.4962 42.9654 50.3409 42.348 50.3409C41.7079 50.3409 41.206 50.4811 40.8423 50.7614C40.4787 51.0417 40.223 51.3409 40.0753 51.6591L38.8026 51.2045C39.0298 50.6742 39.3329 50.2614 39.7116 49.9659C40.0942 49.6667 40.5109 49.4583 40.9616 49.3409C41.4162 49.2197 41.8632 49.1591 42.3026 49.1591C42.5829 49.1591 42.9048 49.1932 43.2685 49.2614C43.6359 49.3258 43.9901 49.4602 44.331 49.6648C44.6757 49.8693 44.9616 50.178 45.1889 50.5909C45.4162 51.0038 45.5298 51.5568 45.5298 52.25V58H44.1889V56.8182H44.1207C44.0298 57.0076 43.8783 57.2102 43.6662 57.4261C43.4541 57.642 43.1719 57.8258 42.8196 57.9773C42.4673 58.1288 42.0374 58.2045 41.5298 58.2045ZM41.7344 57C42.2647 57 42.7116 56.8958 43.0753 56.6875C43.4427 56.4792 43.7192 56.2102 43.9048 55.8807C44.0942 55.5511 44.1889 55.2045 44.1889 54.8409V53.6136C44.1321 53.6818 44.0071 53.7443 43.8139 53.8011C43.6245 53.8542 43.4048 53.9015 43.1548 53.9432C42.9086 53.9811 42.6681 54.0152 42.4332 54.0455C42.2022 54.072 42.0147 54.0947 41.8707 54.1136C41.5223 54.1591 41.1965 54.233 40.8935 54.3352C40.5942 54.4337 40.3518 54.5833 40.1662 54.7841C39.9844 54.9811 39.8935 55.25 39.8935 55.5909C39.8935 56.0568 40.0658 56.4091 40.4105 56.6477C40.759 56.8826 41.2003 57 41.7344 57ZM51.7727 49.2727V50.4091H47.25V49.2727H51.7727ZM48.5682 47.1818H49.9091V55.5C49.9091 55.8788 49.964 56.1629 50.0739 56.3523C50.1875 56.5379 50.3314 56.6629 50.5057 56.7273C50.6837 56.7879 50.8712 56.8182 51.0682 56.8182C51.2159 56.8182 51.3371 56.8106 51.4318 56.7955C51.5265 56.7765 51.6023 56.7614 51.6591 56.75L51.9318 57.9545C51.8409 57.9886 51.714 58.0227 51.5511 58.0568C51.3883 58.0947 51.1818 58.1136 50.9318 58.1136C50.553 58.1136 50.1818 58.0322 49.8182 57.8693C49.4583 57.7064 49.1591 57.4583 48.9205 57.125C48.6856 56.7917 48.5682 56.3712 48.5682 55.8636V47.1818ZM53.7898 58V49.2727H55.1307V58H53.7898ZM54.4716 47.8182C54.2102 47.8182 53.9848 47.7292 53.7955 47.5511C53.6098 47.3731 53.517 47.1591 53.517 46.9091C53.517 46.6591 53.6098 46.4451 53.7955 46.267C53.9848 46.089 54.2102 46 54.4716 46C54.733 46 54.9564 46.089 55.142 46.267C55.3314 46.4451 55.4261 46.6591 55.4261 46.9091C55.4261 47.1591 55.3314 47.3731 55.142 47.5511C54.9564 47.7292 54.733 47.8182 54.4716 47.8182ZM61.1321 58.1818C60.3442 58.1818 59.6529 57.9943 59.0582 57.6193C58.4673 57.2443 58.0052 56.7197 57.6719 56.0455C57.3423 55.3712 57.1776 54.5833 57.1776 53.6818C57.1776 52.7727 57.3423 51.9792 57.6719 51.3011C58.0052 50.6231 58.4673 50.0966 59.0582 49.7216C59.6529 49.3466 60.3442 49.1591 61.1321 49.1591C61.92 49.1591 62.6094 49.3466 63.2003 49.7216C63.795 50.0966 64.2571 50.6231 64.5866 51.3011C64.92 51.9792 65.0866 52.7727 65.0866 53.6818C65.0866 54.5833 64.92 55.3712 64.5866 56.0455C64.2571 56.7197 63.795 57.2443 63.2003 57.6193C62.6094 57.9943 61.92 58.1818 61.1321 58.1818ZM61.1321 56.9773C61.7306 56.9773 62.223 56.8239 62.6094 56.517C62.9957 56.2102 63.2817 55.8068 63.4673 55.3068C63.6529 54.8068 63.7457 54.2652 63.7457 53.6818C63.7457 53.0985 63.6529 52.5549 63.4673 52.0511C63.2817 51.5473 62.9957 51.1402 62.6094 50.8295C62.223 50.5189 61.7306 50.3636 61.1321 50.3636C60.5336 50.3636 60.0412 50.5189 59.6548 50.8295C59.2685 51.1402 58.9825 51.5473 58.7969 52.0511C58.6113 52.5549 58.5185 53.0985 58.5185 53.6818C58.5185 54.2652 58.6113 54.8068 58.7969 55.3068C58.9825 55.8068 59.2685 56.2102 59.6548 56.517C60.0412 56.8239 60.5336 56.9773 61.1321 56.9773ZM68.4744 52.75V58H67.1335V49.2727H68.429V50.6364H68.5426C68.7472 50.1932 69.0578 49.8371 69.4744 49.5682C69.8911 49.2955 70.429 49.1591 71.0881 49.1591C71.679 49.1591 72.196 49.2803 72.6392 49.5227C73.0824 49.7614 73.4271 50.125 73.6733 50.6136C73.9195 51.0985 74.0426 51.7121 74.0426 52.4545V58H72.7017V52.5455C72.7017 51.8598 72.5237 51.3258 72.1676 50.9432C71.8116 50.5568 71.3229 50.3636 70.7017 50.3636C70.2737 50.3636 69.8911 50.4564 69.554 50.642C69.2206 50.8277 68.9574 51.0985 68.7642 51.4545C68.571 51.8106 68.4744 52.2424 68.4744 52.75Z" fill="#716F6D"/>
<path d="M22.75 13.2075H48.75V26.4369H22.75V13.2075Z" fill="#FAFAF9" stroke="#716F6D" stroke-width="1.5"/>
<path d="M53.5998 11.9469L35.2665 8.81596C34.8082 8.72388 34.2582 9.09222 34.1665 9.55265C34.0748 10.0131 34.4415 10.5656 34.8998 10.6577L52.4998 13.6044V27.2332C52.4998 27.7857 52.8665 28.154 53.4165 28.154C53.9665 28.154 54.3332 27.7857 54.3332 27.2332V12.8678C54.3332 12.4073 53.9665 12.039 53.5998 11.9469Z" fill="#716F6D"/>
<path d="M35.5776 1.62667L35.6001 1.61678L35.6221 1.60579C35.8906 1.47157 36.1094 1.47157 36.3779 1.60579L36.3999 1.61678L36.4224 1.62667L56.9453 10.653L36.4694 19.6587C36.1521 19.7566 35.8479 19.7566 35.5306 19.6587L15.0547 10.653L35.5776 1.62667Z" fill="#FAFAF9" stroke="#716F6D" stroke-width="2"/>
</svg>
