<svg xmlns="http://www.w3.org/2000/svg" xmlns:xlink="http://www.w3.org/1999/xlink" width="500" zoomAndPan="magnify" viewBox="0 0 375 374.999991" height="500" preserveAspectRatio="xMidYMid meet" version="1.0"><path fill="#1b69e4" d="M 280.914062 0 L 94.085938 0 C 92.546875 0 91.007812 0.0390625 89.46875 0.113281 C 87.929688 0.1875 86.394531 0.300781 84.863281 0.453125 C 83.332031 0.605469 81.804688 0.792969 80.28125 1.019531 C 78.757812 1.246094 77.238281 1.507812 75.730469 1.808594 C 74.21875 2.109375 72.71875 2.445312 71.222656 2.820312 C 69.730469 3.195312 68.246094 3.605469 66.773438 4.050781 C 65.300781 4.5 63.839844 4.980469 62.386719 5.5 C 60.9375 6.019531 59.503906 6.574219 58.082031 7.160156 C 56.65625 7.75 55.25 8.375 53.859375 9.03125 C 52.464844 9.691406 51.089844 10.382812 49.734375 11.109375 C 48.375 11.835938 47.035156 12.59375 45.714844 13.386719 C 44.394531 14.175781 43.09375 15 41.8125 15.855469 C 40.535156 16.710938 39.273438 17.597656 38.039062 18.515625 C 36.800781 19.433594 35.589844 20.378906 34.398438 21.355469 C 33.207031 22.332031 32.042969 23.339844 30.902344 24.371094 C 29.761719 25.40625 28.644531 26.46875 27.558594 27.558594 C 26.46875 28.644531 25.40625 29.761719 24.371094 30.902344 C 23.339844 32.042969 22.332031 33.207031 21.355469 34.398438 C 20.378906 35.589844 19.433594 36.800781 18.515625 38.039062 C 17.597656 39.273438 16.710938 40.535156 15.855469 41.8125 C 15 43.09375 14.175781 44.394531 13.386719 45.714844 C 12.59375 47.035156 11.835938 48.375 11.109375 49.734375 C 10.382812 51.089844 9.691406 52.464844 9.03125 53.859375 C 8.375 55.25 7.75 56.65625 7.160156 58.082031 C 6.574219 59.503906 6.019531 60.9375 5.5 62.386719 C 4.980469 63.839844 4.5 65.300781 4.050781 66.773438 C 3.605469 68.246094 3.195312 69.730469 2.820312 71.222656 C 2.445312 72.71875 2.109375 74.21875 1.808594 75.730469 C 1.507812 77.238281 1.246094 78.757812 1.019531 80.28125 C 0.792969 81.804688 0.605469 83.332031 0.453125 84.863281 C 0.300781 86.394531 0.1875 87.929688 0.113281 89.46875 C 0.0390625 91.007812 0 92.546875 0 94.085938 L 0 280.914062 C 0 282.453125 0.0390625 283.992188 0.113281 285.53125 C 0.1875 287.070312 0.300781 288.605469 0.453125 290.136719 C 0.605469 291.667969 0.792969 293.195312 1.019531 294.71875 C 1.246094 296.242188 1.507812 297.761719 1.808594 299.269531 C 2.109375 300.78125 2.445312 302.28125 2.820312 303.777344 C 3.195312 305.269531 3.605469 306.753906 4.050781 308.226562 C 4.5 309.699219 4.980469 311.160156 5.5 312.613281 C 6.019531 314.0625 6.574219 315.496094 7.160156 316.917969 C 7.75 318.34375 8.375 319.75 9.03125 321.140625 C 9.691406 322.535156 10.382812 323.910156 11.109375 325.265625 C 11.835938 326.625 12.59375 327.964844 13.386719 329.285156 C 14.175781 330.605469 15 331.90625 15.855469 333.1875 C 16.710938 334.464844 17.597656 335.726562 18.515625 336.960938 C 19.433594 338.199219 20.378906 339.410156 21.355469 340.601562 C 22.332031 341.792969 23.339844 342.957031 24.371094 344.097656 C 25.40625 345.238281 26.46875 346.355469 27.558594 347.441406 C 28.644531 348.53125 29.761719 349.59375 30.902344 350.628906 C 32.042969 351.660156 33.207031 352.667969 34.398438 353.644531 C 35.589844 354.621094 36.800781 355.566406 38.039062 356.484375 C 39.273438 357.402344 40.535156 358.289062 41.8125 359.144531 C 43.09375 360 44.394531 360.824219 45.714844 361.613281 C 47.035156 362.40625 48.375 363.164062 49.734375 363.890625 C 51.089844 364.617188 52.464844 365.308594 53.859375 365.964844 C 55.25 366.625 56.65625 367.25 58.082031 367.839844 C 59.503906 368.425781 60.9375 368.980469 62.386719 369.5 C 63.839844 370.019531 65.300781 370.5 66.773438 370.949219 C 68.246094 371.394531 69.730469 371.804688 71.222656 372.179688 C 72.71875 372.554688 74.21875 372.890625 75.730469 373.191406 C 77.238281 373.492188 78.757812 373.753906 80.28125 373.980469 C 81.804688 374.207031 83.332031 374.394531 84.863281 374.546875 C 86.394531 374.699219 87.929688 374.8125 89.46875 374.886719 C 91.007812 374.960938 92.546875 375 94.085938 375 L 280.914062 375 C 282.453125 375 283.992188 374.960938 285.53125 374.886719 C 287.070312 374.8125 288.605469 374.699219 290.136719 374.546875 C 291.667969 374.394531 293.195312 374.207031 294.71875 373.980469 C 296.242188 373.753906 297.761719 373.492188 299.269531 373.191406 C 300.78125 372.890625 302.28125 372.554688 303.777344 372.179688 C 305.269531 371.804688 306.753906 371.394531 308.226562 370.949219 C 309.699219 370.5 311.160156 370.019531 312.613281 369.5 C 314.0625 368.980469 315.496094 368.425781 316.917969 367.839844 C 318.34375 367.25 319.75 366.625 321.140625 365.964844 C 322.535156 365.308594 323.910156 364.617188 325.265625 363.890625 C 326.625 363.164062 327.964844 362.40625 329.285156 361.613281 C 330.605469 360.824219 331.90625 360 333.1875 359.144531 C 334.464844 358.289062 335.726562 357.402344 336.960938 356.484375 C 338.199219 355.566406 339.410156 354.621094 340.601562 353.644531 C 341.792969 352.667969 342.957031 351.660156 344.097656 350.628906 C 345.238281 349.59375 346.355469 348.53125 347.441406 347.441406 C 348.53125 346.355469 349.59375 345.238281 350.628906 344.097656 C 351.660156 342.957031 352.667969 341.792969 353.644531 340.601562 C 354.621094 339.410156 355.566406 338.199219 356.484375 336.960938 C 357.402344 335.726562 358.289062 334.464844 359.144531 333.1875 C 360 331.90625 360.824219 330.605469 361.613281 329.285156 C 362.40625 327.964844 363.164062 326.625 363.890625 325.265625 C 364.617188 323.910156 365.308594 322.535156 365.96875 321.140625 C 366.625 319.75 367.25 318.34375 367.839844 316.917969 C 368.425781 315.496094 368.980469 314.0625 369.5 312.613281 C 370.019531 311.160156 370.5 309.699219 370.949219 308.226562 C 371.394531 306.753906 371.804688 305.269531 372.179688 303.777344 C 372.554688 302.28125 372.890625 300.78125 373.191406 299.269531 C 373.492188 297.761719 373.753906 296.242188 373.980469 294.71875 C 374.207031 293.195312 374.394531 291.667969 374.546875 290.136719 C 374.699219 288.605469 374.8125 287.070312 374.886719 285.53125 C 374.960938 283.992188 375 282.453125 375 280.914062 L 375 94.085938 C 375 92.546875 374.960938 91.007812 374.886719 89.46875 C 374.8125 87.929688 374.699219 86.394531 374.546875 84.863281 C 374.394531 83.332031 374.207031 81.804688 373.980469 80.28125 C 373.753906 78.757812 373.492188 77.238281 373.191406 75.730469 C 372.890625 74.21875 372.554688 72.71875 372.179688 71.222656 C 371.804688 69.730469 371.394531 68.246094 370.949219 66.773438 C 370.5 65.300781 370.019531 63.839844 369.5 62.386719 C 368.980469 60.9375 368.425781 59.503906 367.839844 58.082031 C 367.25 56.65625 366.625 55.25 365.964844 53.859375 C 365.308594 52.464844 364.617188 51.089844 363.890625 49.734375 C 363.164062 48.375 362.40625 47.035156 361.613281 45.714844 C 360.824219 44.394531 360 43.09375 359.144531 41.8125 C 358.289062 40.535156 357.402344 39.273438 356.484375 38.039062 C 355.566406 36.800781 354.621094 35.589844 353.644531 34.398438 C 352.667969 33.207031 351.660156 32.042969 350.628906 30.902344 C 349.59375 29.761719 348.53125 28.644531 347.441406 27.558594 C 346.355469 26.46875 345.238281 25.40625 344.097656 24.371094 C 342.957031 23.339844 341.792969 22.332031 340.601562 21.355469 C 339.410156 20.378906 338.199219 19.433594 336.960938 18.515625 C 335.726562 17.597656 334.464844 16.710938 333.1875 15.855469 C 331.90625 15 330.605469 14.175781 329.285156 13.386719 C 327.964844 12.59375 326.625 11.835938 325.265625 11.109375 C 323.910156 10.382812 322.535156 9.691406 321.140625 9.03125 C 319.75 8.375 318.34375 7.75 316.917969 7.160156 C 315.496094 6.574219 314.0625 6.019531 312.613281 5.5 C 311.160156 4.980469 309.699219 4.5 308.226562 4.050781 C 306.753906 3.605469 305.269531 3.195312 303.777344 2.820312 C 302.28125 2.445312 300.78125 2.109375 299.269531 1.808594 C 297.761719 1.507812 296.242188 1.246094 294.71875 1.019531 C 293.195312 0.792969 291.667969 0.605469 290.136719 0.453125 C 288.605469 0.300781 287.070312 0.1875 285.53125 0.113281 C 283.992188 0.0390625 282.453125 0 280.914062 0 Z M 282.855469 226.070312 C 283.800781 227 284.695312 227.972656 285.539062 228.988281 C 286.386719 230.003906 287.179688 231.0625 287.921875 232.15625 C 288.664062 233.25 289.351562 234.378906 289.980469 235.542969 C 290.613281 236.707031 291.183594 237.894531 291.695312 239.117188 C 292.210938 240.335938 292.660156 241.578125 293.050781 242.839844 C 293.441406 244.105469 293.769531 245.382812 294.03125 246.679688 C 294.296875 247.976562 294.496094 249.28125 294.628906 250.597656 C 294.765625 251.914062 294.835938 253.234375 294.839844 254.554688 C 294.84375 255.878906 294.785156 257.199219 294.65625 258.515625 C 294.53125 259.832031 294.34375 261.140625 294.085938 262.4375 C 293.832031 263.734375 293.515625 265.015625 293.132812 266.285156 C 292.75 267.550781 292.308594 268.792969 291.804688 270.015625 C 291.300781 271.238281 290.734375 272.433594 290.113281 273.601562 C 289.492188 274.769531 288.8125 275.902344 288.078125 277.003906 C 287.34375 278.101562 286.558594 279.164062 285.71875 280.1875 C 284.878906 281.210938 283.992188 282.1875 283.054688 283.121094 C 282.121094 284.058594 281.140625 284.945312 280.117188 285.78125 C 279.09375 286.621094 278.03125 287.40625 276.929688 288.136719 C 275.828125 288.871094 274.695312 289.546875 273.527344 290.167969 C 272.359375 290.789062 271.164062 291.351562 269.941406 291.855469 C 268.714844 292.359375 267.472656 292.800781 266.203125 293.179688 C 264.9375 293.558594 263.65625 293.875 262.355469 294.128906 C 261.058594 294.382812 259.75 294.570312 258.433594 294.695312 C 257.117188 294.820312 255.796875 294.878906 254.472656 294.875 C 253.152344 294.867188 251.832031 294.796875 250.515625 294.660156 C 249.203125 294.523438 247.894531 294.320312 246.601562 294.054688 C 245.304688 293.792969 244.023438 293.460938 242.761719 293.070312 C 241.496094 292.679688 240.257812 292.226562 239.039062 291.710938 C 237.820312 291.199219 236.628906 290.625 235.46875 289.992188 C 234.304688 289.359375 233.175781 288.671875 232.082031 287.929688 C 230.988281 287.1875 229.933594 286.390625 228.917969 285.542969 C 227.902344 284.695312 226.929688 283.800781 226.003906 282.855469 L 160.714844 217.5 L 160.714844 254.464844 C 160.714844 255.78125 160.648438 257.09375 160.519531 258.402344 C 160.390625 259.710938 160.199219 261.011719 159.941406 262.300781 C 159.683594 263.59375 159.367188 264.867188 158.984375 266.128906 C 158.601562 267.386719 158.160156 268.625 157.65625 269.839844 C 157.152344 271.054688 156.589844 272.242188 155.96875 273.40625 C 155.351562 274.566406 154.675781 275.691406 153.941406 276.785156 C 153.210938 277.878906 152.429688 278.9375 151.59375 279.953125 C 150.757812 280.96875 149.875 281.945312 148.945312 282.875 C 148.015625 283.804688 147.042969 284.6875 146.023438 285.523438 C 145.007812 286.359375 143.953125 287.140625 142.859375 287.871094 C 141.761719 288.601562 140.636719 289.277344 139.476562 289.898438 C 138.316406 290.519531 137.128906 291.082031 135.910156 291.585938 C 134.695312 292.089844 133.457031 292.53125 132.199219 292.914062 C 130.941406 293.292969 129.664062 293.613281 128.375 293.871094 C 127.082031 294.128906 125.785156 294.320312 124.472656 294.449219 C 123.164062 294.578125 121.851562 294.644531 120.535156 294.644531 C 119.21875 294.644531 117.90625 294.578125 116.597656 294.449219 C 115.289062 294.320312 113.988281 294.128906 112.695312 293.871094 C 111.40625 293.613281 110.132812 293.292969 108.871094 292.914062 C 107.613281 292.53125 106.375 292.089844 105.160156 291.585938 C 103.945312 291.082031 102.757812 290.519531 101.59375 289.898438 C 100.433594 289.277344 99.308594 288.601562 98.214844 287.871094 C 97.121094 287.140625 96.0625 286.359375 95.046875 285.523438 C 94.03125 284.6875 93.054688 283.804688 92.125 282.875 C 91.195312 281.945312 90.3125 280.96875 89.476562 279.953125 C 88.640625 278.9375 87.859375 277.878906 87.128906 276.785156 C 86.398438 275.691406 85.722656 274.566406 85.101562 273.40625 C 84.480469 272.242188 83.917969 271.054688 83.414062 269.839844 C 82.910156 268.625 82.46875 267.386719 82.085938 266.128906 C 81.707031 264.867188 81.386719 263.59375 81.128906 262.300781 C 80.871094 261.011719 80.679688 259.710938 80.550781 258.402344 C 80.421875 257.09375 80.355469 255.78125 80.355469 254.464844 L 80.355469 120.535156 C 80.355469 119.21875 80.421875 117.90625 80.550781 116.597656 C 80.679688 115.289062 80.871094 113.988281 81.128906 112.695312 C 81.386719 111.40625 81.707031 110.132812 82.085938 108.871094 C 82.46875 107.613281 82.910156 106.375 83.414062 105.160156 C 83.917969 103.945312 84.480469 102.757812 85.101562 101.59375 C 85.722656 100.433594 86.398438 99.308594 87.128906 98.214844 C 87.859375 97.121094 88.640625 96.0625 89.476562 95.046875 C 90.3125 94.03125 91.195312 93.054688 92.125 92.125 C 93.054688 91.195312 94.03125 90.3125 95.046875 89.476562 C 96.0625 88.640625 97.121094 87.859375 98.214844 87.128906 C 99.308594 86.398438 100.433594 85.722656 101.59375 85.101562 C 102.757812 84.480469 103.945312 83.917969 105.160156 83.414062 C 106.375 82.910156 107.613281 82.46875 108.871094 82.085938 C 110.132812 81.707031 111.40625 81.386719 112.695312 81.128906 C 113.988281 80.871094 115.289062 80.679688 116.597656 80.550781 C 117.90625 80.421875 119.21875 80.355469 120.535156 80.355469 C 121.851562 80.355469 123.164062 80.421875 124.472656 80.550781 C 125.785156 80.679688 127.082031 80.871094 128.375 81.128906 C 129.664062 81.386719 130.941406 81.707031 132.199219 82.085938 C 133.457031 82.46875 134.695312 82.910156 135.910156 83.414062 C 137.128906 83.917969 138.316406 84.480469 139.476562 85.101562 C 140.636719 85.722656 141.761719 86.398438 142.859375 87.128906 C 143.953125 87.859375 145.007812 88.640625 146.023438 89.476562 C 147.042969 90.3125 148.015625 91.195312 148.945312 92.125 C 149.875 93.054688 150.757812 94.03125 151.59375 95.046875 C 152.429688 96.0625 153.210938 97.121094 153.941406 98.214844 C 154.675781 99.308594 155.351562 100.433594 155.96875 101.59375 C 156.589844 102.757812 157.152344 103.945312 157.65625 105.160156 C 158.160156 106.375 158.601562 107.613281 158.984375 108.871094 C 159.367188 110.132812 159.683594 111.40625 159.941406 112.695312 C 160.199219 113.988281 160.390625 115.289062 160.519531 116.597656 C 160.648438 117.90625 160.714844 119.21875 160.714844 120.535156 L 160.714844 157.5 L 226.070312 92.144531 C 227 91.199219 227.96875 90.304688 228.984375 89.457031 C 230 88.609375 231.054688 87.8125 232.148438 87.070312 C 233.242188 86.328125 234.371094 85.640625 235.535156 85.007812 C 236.695312 84.375 237.886719 83.800781 239.105469 83.289062 C 240.324219 82.773438 241.566406 82.320312 242.828125 81.929688 C 244.089844 81.535156 245.371094 81.207031 246.667969 80.941406 C 247.960938 80.675781 249.269531 80.476562 250.585938 80.339844 C 251.898438 80.203125 253.21875 80.132812 254.542969 80.125 C 255.863281 80.121094 257.183594 80.179688 258.5 80.304688 C 259.816406 80.425781 261.125 80.617188 262.421875 80.871094 C 263.722656 81.121094 265.003906 81.4375 266.273438 81.820312 C 267.539062 82.199219 268.785156 82.640625 270.007812 83.144531 C 271.230469 83.648438 272.425781 84.207031 273.59375 84.828125 C 274.761719 85.449219 275.894531 86.128906 276.996094 86.859375 C 278.097656 87.59375 279.160156 88.378906 280.183594 89.21875 C 281.207031 90.054688 282.1875 90.941406 283.121094 91.878906 C 284.058594 92.8125 284.945312 93.789062 285.785156 94.8125 C 286.625 95.835938 287.410156 96.894531 288.144531 97.996094 C 288.878906 99.097656 289.558594 100.230469 290.179688 101.398438 C 290.804688 102.566406 291.367188 103.757812 291.871094 104.980469 C 292.375 106.203125 292.820312 107.449219 293.199219 108.714844 C 293.582031 109.984375 293.898438 111.265625 294.15625 112.5625 C 294.410156 113.859375 294.601562 115.167969 294.726562 116.484375 C 294.851562 117.800781 294.910156 119.121094 294.90625 120.445312 C 294.902344 121.765625 294.832031 123.085938 294.699219 124.402344 C 294.5625 125.71875 294.363281 127.023438 294.101562 128.320312 C 293.835938 129.617188 293.507812 130.894531 293.117188 132.160156 C 292.726562 133.421875 292.277344 134.664062 291.765625 135.882812 C 291.25 137.105469 290.679688 138.292969 290.046875 139.457031 C 289.417969 140.621094 288.730469 141.75 287.988281 142.84375 C 287.246094 143.9375 286.453125 144.996094 285.605469 146.011719 C 284.761719 147.027344 283.867188 148 282.925781 148.929688 L 244.351562 187.5 Z M 282.855469 226.070312 " fill-opacity="1" fill-rule="nonzero"/></svg>